<?xml version="1.0" standalone="no"?>
<!DOCTYPE svg PUBLIC "-//W3C//DTD SVG 20010904//EN"
 "http://www.w3.org/TR/2001/REC-SVG-20010904/DTD/svg10.dtd">
<svg version="1.0" xmlns="http://www.w3.org/2000/svg"
 width="736.000000pt" height="736.000000pt" viewBox="0 0 736.000000 736.000000"
 preserveAspectRatio="xMidYMid meet">
<metadata>
Created by potrace 1.11, written by Peter Selinger 2001-2013
</metadata>
<g transform="translate(0.000000,736.000000) scale(0.100000,-0.100000)"
fill="#000000" stroke="none">
<path d="M5049 6326 c-2 -2 -22 -7 -44 -10 -75 -11 -100 -18 -122 -32 -13 -8
-23 -12 -23 -9 0 3 -21 -9 -47 -27 -166 -113 -241 -289 -209 -488 19 -116 105
-244 213 -313 24 -15 45 -27 47 -27 3 0 17 -5 33 -12 187 -76 420 -2 540 172
44 64 63 114 77 200 21 127 -11 252 -91 357 -48 63 -50 65 -117 108 -68 43
-118 62 -188 70 -28 3 -55 8 -58 10 -4 3 -9 3 -11 1z"/>
<path d="M2198 6280 c-79 -25 -142 -64 -200 -124 -55 -57 -112 -167 -123 -236
-8 -45 -9 -141 -2 -170 2 -8 7 -31 11 -50 5 -19 13 -41 18 -47 6 -7 8 -13 4
-13 -13 0 61 -107 101 -146 39 -39 143 -110 143 -99 0 3 10 0 23 -7 12 -6 27
-13 32 -14 6 -1 26 -5 45 -8 135 -26 291 21 392 117 217 208 196 551 -45 730
-31 24 -93 56 -119 63 -5 1 -9 2 -10 4 -26 20 -205 21 -270 0z"/>
<path d="M2217 5124 c-1 -1 -38 -5 -82 -9 -44 -3 -98 -10 -120 -15 -22 -5 -57
-11 -78 -14 -20 -3 -70 -15 -110 -26 -39 -12 -76 -22 -82 -23 -78 -22 -241
-86 -310 -123 -131 -69 -153 -82 -240 -141 -160 -109 -277 -214 -414 -374 -96
-113 -143 -179 -202 -284 -18 -33 -36 -62 -39 -65 -6 -5 -101 -209 -105 -225
-2 -12 -13 -41 -25 -70 -41 -97 -87 -310 -105 -480 -11 -113 -6 -377 10 -455
8 -41 14 -73 20 -115 14 -91 64 -260 115 -390 6 -16 12 -32 12 -35 4 -18 132
-256 139 -258 5 -2 9 -8 9 -13 0 -10 62 -103 73 -107 4 -2 7 -8 7 -13 0 -6 13
-24 30 -42 16 -18 30 -35 30 -39 0 -15 162 -183 251 -260 30 -26 65 -57 79
-69 55 -46 251 -170 345 -217 138 -69 312 -135 390 -149 17 -3 38 -9 48 -15
10 -5 21 -7 24 -5 2 3 19 1 36 -4 165 -51 579 -58 777 -14 14 3 36 8 50 10 60
9 223 57 310 90 111 42 278 122 298 141 7 8 18 14 23 14 5 0 52 29 105 65 93
64 107 74 142 105 9 8 29 25 43 38 l26 22 29 -25 c16 -14 54 -45 84 -68 30
-23 57 -45 58 -49 2 -5 8 -8 13 -8 6 0 15 -5 22 -10 45 -39 236 -145 357 -198
60 -27 250 -92 250 -87 0 3 12 0 28 -6 15 -6 36 -13 47 -15 11 -2 31 -6 45 -9
47 -10 75 -15 110 -20 19 -3 45 -7 58 -9 19 -4 222 -18 257 -18 28 0 223 12
245 15 14 2 50 7 80 11 167 22 410 101 594 193 105 52 298 174 361 228 17 14
44 37 60 51 84 72 204 196 265 274 14 17 34 42 45 56 68 80 265 439 265 482 0
5 7 23 15 40 9 17 18 39 20 49 2 10 11 43 20 73 32 108 54 214 72 350 8 63 9
383 0 445 -8 60 -42 250 -51 280 -1 6 -8 30 -15 55 -19 71 -61 192 -77 223 -9
15 -12 27 -7 27 4 0 3 4 -2 8 -6 4 -19 27 -30 52 -61 141 -205 361 -315 481
-60 66 -155 160 -196 194 -26 22 -58 49 -70 60 -12 11 -32 27 -44 35 -12 8
-31 23 -42 33 -12 9 -27 17 -34 17 -7 0 -14 4 -16 9 -1 5 -33 27 -70 50 -145
88 -328 168 -492 215 -86 25 -108 31 -163 41 -16 3 -39 8 -53 11 -14 4 -36 8
-50 9 -14 2 -56 6 -95 10 -86 10 -341 11 -414 2 -50 -7 -159 -23 -206 -31 -77
-14 -277 -74 -350 -106 -59 -25 -261 -124 -265 -130 -3 -3 -12 -10 -20 -14
-44 -21 -171 -109 -245 -171 -74 -61 -69 -61 -133 -8 -90 74 -111 90 -202 149
-90 57 -274 152 -350 179 -227 80 -356 112 -540 131 -59 6 -328 13 -333 8z
m296 -1388 c225 -62 396 -225 471 -448 34 -102 42 -252 20 -348 -9 -36 -17
-70 -18 -76 -3 -20 -69 -149 -83 -162 -7 -7 -13 -16 -13 -20 0 -13 -95 -109
-143 -145 -214 -162 -528 -177 -757 -36 -76 46 -134 98 -186 164 -84 108 -133
245 -139 381 -2 80 1 117 19 209 19 91 99 228 181 310 54 54 187 140 231 150
11 2 35 9 54 15 19 6 49 14 65 17 17 3 31 6 33 8 10 9 217 -6 265 -19z m2736
-1 c63 -20 160 -64 179 -82 7 -7 18 -13 23 -13 21 0 160 -150 197 -214 37 -61
68 -136 77 -184 2 -9 4 -17 5 -17 14 0 17 -175 5 -250 -25 -149 -82 -260 -190
-369 -128 -130 -280 -196 -460 -200 -247 -6 -458 107 -596 319 -90 139 -124
360 -79 522 9 34 15 65 12 68 -3 3 0 5 6 5 7 0 12 7 12 16 0 19 42 95 87 156
93 127 271 236 418 255 22 3 42 7 44 9 11 10 212 -7 260 -21z"/>
</g>
</svg>
