<?xml version="1.0" encoding="utf-8"?>
<!-- Generator: Adobe Illustrator 24.1.0, SVG Export Plug-In . SVG Version: 6.00 Build 0)  -->
<svg version="1.1" id="ëÎÓÈ_1" xmlns="http://www.w3.org/2000/svg" xmlns:xlink="http://www.w3.org/1999/xlink" x="0px" y="0px"
	 viewBox="0 0 452.8 311.3" style="enable-background:new 0 0 452.8 311.3;" xml:space="preserve">
<style type="text/css">
	.st0{fill:#FFFFFF;}
	.st1{fill:#0F122E;}
</style>
<g>
	<g>
		<path class="st1" d="M72.1,177.2c10.2,0,20.4,0,30.7,0c24.6,0,49.1,0,73.7,0c29.7,0,59.4,0,89.1,0c25.7,0,51.4,0,77.1,0
			c12.5,0,25,0.3,37.5,0c0.2,0,0.4,0,0.5,0c11.3,0,22.1-9.9,21.6-21.6c-0.5-11.7-9.5-21.6-21.6-21.6c-10.2,0-20.4,0-30.7,0
			c-24.6,0-49.1,0-73.7,0c-29.7,0-59.4,0-89.1,0c-25.7,0-51.4,0-77.1,0c-12.5,0-25-0.3-37.5,0c-0.2,0-0.4,0-0.5,0
			c-11.3,0-22.1,9.9-21.6,21.6C51,167.3,60,177.2,72.1,177.2L72.1,177.2z"/>
	</g>
	<g>
		<g>
			<path class="st1" d="M143.1,84.6c26.8,0,53.7,0,80.5,0c42.4,0,84.8,0,127.2,0c9.8,0,19.5,0,29.3,0c11.3,0,22.1-9.9,21.6-21.6
				c-0.5-11.7-9.5-21.6-21.6-21.6c-26.8,0-53.7,0-80.5,0c-42.4,0-84.8,0-127.2,0c-9.8,0-19.5,0-29.3,0c-11.3,0-22.1,9.9-21.6,21.6
				C122,74.7,131,84.6,143.1,84.6L143.1,84.6z"/>
		</g>
		<g>
			<path class="st1" d="M72.7,90c14.1,0,27.7-12.4,27-27c-0.7-14.6-11.9-27-27-27c-14.1,0-27.7,12.4-27,27
				C46.4,77.7,57.6,90,72.7,90L72.7,90z"/>
		</g>
	</g>
	<g>
		<g>
			<path class="st1" d="M309.8,226.6c-26.8,0-53.7,0-80.5,0c-42.4,0-84.8,0-127.2,0c-9.8,0-19.5,0-29.3,0
				c-11.3,0-22.1,9.9-21.6,21.6c0.5,11.7,9.5,21.6,21.6,21.6c26.8,0,53.7,0,80.5,0c42.4,0,84.8,0,127.2,0c9.8,0,19.5,0,29.3,0
				c11.3,0,22.1-9.9,21.6-21.6C330.8,236.5,321.9,226.6,309.8,226.6L309.8,226.6z"/>
		</g>
		<g>
			<path class="st1" d="M380.1,275.2c14.1,0,27.7-12.4,27-27c-0.7-14.6-11.9-27-27-27c-14.1,0-27.7,12.4-27,27
				C353.7,262.8,364.9,275.2,380.1,275.2L380.1,275.2z"/>
		</g>
	</g>
</g>
</svg>
