<?xml version="1.0" encoding="utf-8"?>
<!-- Generator: Adobe Illustrator 24.1.0, SVG Export Plug-In . SVG Version: 6.00 Build 0)  -->
<svg version="1.1" id="Calque_1" xmlns="http://www.w3.org/2000/svg" xmlns:xlink="http://www.w3.org/1999/xlink" x="0px" y="0px"
	 viewBox="0 0 260 260" style="enable-background:new 0 0 260 260;" xml:space="preserve">
<style type="text/css">
	.st0{fill:#8338EC;}
</style>
<g>
	<path class="st0" d="M176.9,42.2c-11.6-8.5-19.8-9.6-31.7-10.5c-13.6-1-27.5-0.4-41,2C91.2,36,78,40.2,67.1,47.9
		c-11.6,8.5-19.9,20.7-26.8,33.3c-11.3,20.8-19.8,44.5-16.8,68c3.6,27.3,22.5,51.1,46.6,64.3c24.1,13.2,52.6,16.8,79.9,14.3
		c14.3-1.3,28.5-4.2,41.5-10.5c12.9-6.3,24.2-16.2,30.6-29.1c5.6-11.5,6.7-24.7,6.3-37.6c-1.3-33.3-13.6-66.1-34.9-91.9
		C188.4,52.5,184.1,47.9,176.9,42.2"/>
	<g>
		<path class="st0" d="M179.1,38.4c-4.4-3.2-9.2-5.9-14.3-7.7c-4.4-1.6-9.2-2.3-13.9-2.9c-11.8-1.3-23.7-1.3-35.6,0
			c-11.5,1.3-23,3.3-33.7,7.6c-10.3,4-19.5,9.9-27.3,18.1C46.8,61.4,41.1,70.6,35.9,80c-5.6,10.2-10.3,20.9-13.5,32.3
			c-3.2,11-4.7,22.8-3.7,34.3c0.9,9.9,3.6,19.5,8,28.5c8.5,17.5,23,32,39.7,41.6c19.4,11,41.9,15.9,64.1,16.4
			c11.5,0.3,23-0.6,34.1-2.6c11.2-2,22.2-5.3,32.1-10.8c9-4.9,16.9-11.6,23.2-19.8c6.7-8.9,10.3-19.5,11.8-30.4
			c1.4-11.2,1-22.4-0.6-33.6c-1.4-10.6-3.9-21.1-7.5-31.3c-7-20.2-18.1-39.2-32.6-54.8c-3.6-3.9-7.3-7.3-11.5-10.5
			c-1.9-1.4-4.3-1.7-6,0c-1.6,1.6-1.9,4.6,0,6c15.6,12.6,27.5,29.5,36,47.6c8.5,17.9,13.3,37.9,14.2,57.7c0.4,10.8-0.3,21.5-4,31.7
			c-3.2,8.7-9,16.2-16.1,22.2c-15.8,13.5-37.2,18.1-57.4,19.5c-20.8,1.4-42-0.6-61.5-8c-17.2-6.6-32.7-17.8-43.5-32.8
			c-5.2-7.3-9.2-15.1-11.8-23.5c-2.9-9.6-3.4-19.4-2.3-29.4c1.1-10.6,4.4-21.1,8.6-30.8s9.2-19.2,15.1-28c5.5-8,11.9-15.6,20.1-21.1
			c8.6-5.7,18.5-9.2,28.7-11.3c11-2.4,22.5-3.4,33.9-3.4c9.6,0,19.5,0.3,28.5,3.4c4.4,1.6,8.6,4.2,12.5,6.9c1.9,1.4,4.7,0.3,5.9-1.6
			C182,42.2,181,39.9,179.1,38.4L179.1,38.4z"/>
	</g>
</g>
</svg>
