<?xml version="1.0" encoding="utf-8"?>
<!-- Generator: Adobe Illustrator 24.1.0, SVG Export Plug-In . SVG Version: 6.00 Build 0)  -->
<svg version="1.1" id="Calque_1" xmlns="http://www.w3.org/2000/svg" xmlns:xlink="http://www.w3.org/1999/xlink" x="0px" y="0px"
	 viewBox="0 0 260 260" style="enable-background:new 0 0 260 260;" xml:space="preserve">
<style type="text/css">
	.st0{fill:#FF006E;}
</style>
<g>
	<path class="st0" d="M148,65c-8.1-5.9-13.8-6.7-22.1-7.3c-9.5-0.7-19.2-0.3-28.6,1.4C88.2,60.7,79,63.6,71.4,69
		c-8.1,5.9-13.9,14.4-18.7,23.2c-7.9,14.5-13.8,31-11.7,47.4c2.5,19,15.7,35.6,32.5,44.8s36.7,11.7,55.7,10
		c10-0.9,19.9-2.9,28.9-7.3c9-4.4,16.9-11.3,21.3-20.3c3.9-8,4.7-17.2,4.4-26.2c-0.9-23.2-9.5-46.1-24.3-64.1
		C156,72.2,153,69,148,65"/>
	<g>
		<path class="st0" d="M149.5,62.4c-3.1-2.2-6.4-4.1-10-5.4c-3.1-1.1-6.4-1.6-9.7-2c-8.2-0.9-16.5-0.9-24.8,0
			c-8,0.9-16,2.3-23.5,5.3c-7.2,2.8-13.6,6.9-19,12.6c-5.2,5.5-9.2,11.9-12.8,18.5c-3.9,7.1-7.2,14.6-9.4,22.5
			c-2.2,7.7-3.3,15.9-2.6,23.9c0.6,6.9,2.5,13.6,5.6,19.9c5.9,12.2,16,22.3,27.7,29c13.5,7.7,29.2,11.1,44.7,11.4
			c8,0.2,16-0.4,23.8-1.8c7.8-1.4,15.5-3.7,22.4-7.5c6.3-3.4,11.8-8.1,16.2-13.8c4.7-6.2,7.2-13.6,8.2-21.2c1-7.8,0.7-15.6-0.4-23.4
			c-1-7.4-2.7-14.7-5.2-21.8c-4.9-14.1-12.6-27.3-22.7-38.2c-2.5-2.7-5.1-5.1-8-7.3c-1.3-1-3-1.2-4.2,0c-1.1,1.1-1.3,3.2,0,4.2
			c10.9,8.8,19.2,20.6,25.1,33.2c5.9,12.5,9.3,26.4,9.9,40.2c0.3,7.5-0.2,15-2.8,22.1c-2.2,6.1-6.3,11.3-11.2,15.5
			c-11,9.4-25.9,12.6-40,13.6c-14.5,1-29.3-0.4-42.9-5.6c-12-4.6-22.8-12.4-30.3-22.9c-3.6-5.1-6.4-10.5-8.2-16.4
			c-2-6.7-2.4-13.5-1.6-20.5c0.8-7.4,3.1-14.7,6-21.5c2.9-6.8,6.4-13.4,10.5-19.5c3.8-5.6,8.3-10.9,14-14.7c6-4,12.9-6.4,20-7.9
			c7.7-1.7,15.7-2.4,23.6-2.4c6.7,0,13.6,0.2,19.9,2.4c3.1,1.1,6,2.9,8.7,4.8c1.3,1,3.3,0.2,4.1-1.1C151.5,65,150.8,63.4,149.5,62.4
			L149.5,62.4z"/>
	</g>
</g>
</svg>
