<?xml version="1.0" encoding="utf-8"?>
<!-- Generator: Adobe Illustrator 24.1.0, SVG Export Plug-In . SVG Version: 6.00 Build 0)  -->
<svg version="1.1" id="Layer_1" xmlns="http://www.w3.org/2000/svg" xmlns:xlink="http://www.w3.org/1999/xlink" x="0px" y="0px"
	 viewBox="0 0 79.2 21" style="enable-background:new 0 0 79.2 21;" xml:space="preserve">
<style type="text/css">
	.st0{fill:#FFFFFF;}
	.st1{fill:#FEF033;}
	.st2{fill:none;stroke:#000000;stroke-width:2;stroke-linecap:round;stroke-linejoin:round;stroke-miterlimit:10;}
	.st3{fill:none;stroke:#FFFFFF;stroke-width:3;stroke-miterlimit:10;}
	.st4{fill:none;stroke:#000000;stroke-width:2;stroke-miterlimit:10;}
	.st5{fill:none;stroke:#000000;stroke-width:2;stroke-linejoin:bevel;stroke-miterlimit:10;}
	.st6{fill:#FF006E;}
</style>
<path class="st6" d="M7.3,17.6c-4,0-7.3-3.3-7.3-7.3C0,6.3,3.3,3,7.3,3s7.3,3.3,7.3,7.3C14.6,14.3,11.3,17.6,7.3,17.6z M7.3,6
	C4.9,6,3,7.9,3,10.3c0,2.4,1.9,4.3,4.3,4.3s4.3-1.9,4.3-4.3C11.6,7.9,9.7,6,7.3,6z"/>
<path class="st6" d="M28.8,17.6c-4,0-7.3-3.3-7.3-7.3c0-4,3.3-7.3,7.3-7.3s7.3,3.3,7.3,7.3C36.1,14.3,32.8,17.6,28.8,17.6z M28.8,6
	c-2.4,0-4.3,1.9-4.3,4.3c0,2.4,1.9,4.3,4.3,4.3s4.3-1.9,4.3-4.3C33.1,7.9,31.2,6,28.8,6z"/>
<path class="st6" d="M50.3,17.8c-4,0-7.3-3.3-7.3-7.3c0-4,3.3-7.3,7.3-7.3c4,0,7.3,3.3,7.3,7.3C57.6,14.5,54.4,17.8,50.3,17.8z
	 M50.3,6.2c-2.4,0-4.3,1.9-4.3,4.3c0,2.4,1.9,4.3,4.3,4.3c2.4,0,4.3-1.9,4.3-4.3C54.6,8.1,52.7,6.2,50.3,6.2z"/>
<path class="st6" d="M71.9,17.8c-4,0-7.3-3.3-7.3-7.3c0-4,3.3-7.3,7.3-7.3s7.3,3.3,7.3,7.3C79.2,14.5,75.9,17.8,71.9,17.8z
	 M71.9,6.2c-2.4,0-4.3,1.9-4.3,4.3c0,2.4,1.9,4.3,4.3,4.3s4.3-1.9,4.3-4.3C76.2,8.1,74.2,6.2,71.9,6.2z"/>
</svg>
