<?xml version="1.0" encoding="utf-8"?>
<!-- Generator: Adobe Illustrator 24.1.0, SVG Export Plug-In . SVG Version: 6.00 Build 0)  -->
<svg version="1.1" id="Calque_1" xmlns="http://www.w3.org/2000/svg" xmlns:xlink="http://www.w3.org/1999/xlink" x="0px" y="0px"
	 viewBox="0 0 266.9 243.7" style="enable-background:new 0 0 266.9 243.7;" xml:space="preserve">
<style type="text/css">
	.st0{fill:#0F122E;}
	.st1{fill:#FFFFFF;}
	.st2{fill:#1D1D1B;stroke:#FFFFFF;stroke-width:0.25;stroke-miterlimit:10;}
	.st3{fill:#8100FF;}
	.st4{fill:#F8A922;}
	.st5{fill:url(#SVGID_1_);}
	.st6{fill:url(#SVGID_2_);}
	.st7{fill:url(#SVGID_3_);}
	.st8{fill:url(#SVGID_4_);}
	.st9{stroke:#FFFFFF;stroke-width:0.25;stroke-miterlimit:10;}
	.st10{fill:#FFFFFF;stroke:#FFFFFF;stroke-width:0.25;stroke-miterlimit:10;}
	.st11{fill:url(#SVGID_5_);}
	.st12{fill:url(#SVGID_6_);}
</style>
<g>
	<g>
		<path class="st10" d="M17.3,195.1h20.8v5.6h-14v6.6h9.6v5.6h-9.6v7.3h14.9v5.8H17.3V195.1z"/>
		<path class="st10" d="M42.2,195.1h6.5l8,14.5c0.3,0.6,0.8,1.5,1.1,2.1c0.1,0.3,0.5,1.4,0.7,1.6h0.2l-0.2-3.1
			c-0.1-2.1-0.1-2.4-0.1-3.5v-11.5h6.2v30.9H59l-8.2-15c-0.7-1.2-0.7-1.3-2.3-5.1h-0.2c0,0.9,0.2,4.8,0.2,5.6v14.5h-6.2V195.1z"/>
		<path class="st10" d="M89.3,195.1v5.6h-7.7v25.3h-7.1v-25.3h-7.9v-5.6H89.3z"/>
		<path class="st10" d="M97.6,226.1h-6.7v-30.9h10c5,0,11.4,0.7,11.4,9c0,3.9-1.6,6.9-5.9,8.2l6.7,13.7h-7.4l-5.9-12.6h-2.3V226.1z
			 M97.6,208.5c3.8,0,4.4,0,5.4-0.3c2.1-0.8,2.3-2.4,2.3-4.1c0-2.1-0.7-3.2-2-3.7c-1.1-0.4-1.9-0.4-5.7-0.4V208.5z"/>
		<path class="st10" d="M115.5,195.1h20.8v5.6h-14v6.6h9.6v5.6h-9.6v7.3h14.9v5.8h-21.7V195.1z"/>
		<path class="st10" d="M148.4,195.1h6.9v11.7h8.7v-11.7h7v30.9h-6.8v-13.4h-8.8v13.4h-6.9V195.1z"/>
		<path class="st10" d="M175,195.1h20.8v5.6h-14v6.6h9.6v5.6h-9.6v7.3h14.9v5.8H175V195.1z"/>
		<path class="st10" d="M214,195.1l8.9,30.9h-6.6l-1.6-6.2h-9.5l-1.6,6.2H197l8.7-30.9H214z M210,200.7h-0.2l-3.4,14h7L210,200.7z"
			/>
		<path class="st10" d="M223.9,195.1h7.5c7.5,0,10.2,1.4,12,4c1.3,2,1.9,4.1,1.9,11.1l0,5.3c0,3.5-0.8,7.2-4.3,8.9
			c-2.2,1.1-4.1,1.3-6.6,1.6c-0.9,0.1-5.3,0.1-10.4,0.1V195.1z M230.8,220.5h1.9c2.7,0,5.5-0.5,5.5-6.4c0-1.1,0.1-2.7,0.1-3.8
			c0-3.7-0.1-6.3-1.1-7.8c-1.3-1.9-2.8-1.9-6.4-1.9V220.5z"/>
	</g>
	<path class="st1" d="M85.5,47.8c-37.9,0-68.7,30.8-68.7,68.7c0,37.9,30.8,68.7,68.7,68.7s68.7-30.8,68.7-68.7
		C154.2,78.6,123.3,47.8,85.5,47.8z M85.5,139.4c-12.6,0-22.9-10.3-22.9-22.9c0-12.6,10.3-22.9,22.9-22.9s22.9,10.3,22.9,22.9
		S98.1,139.4,85.5,139.4z"/>
	<path class="st1" d="M177.1,47.8c-37.9,0-68.7,30.8-68.7,68.7c0,37.9,30.8,68.7,68.7,68.7s68.7-30.8,68.7-68.7
		C245.8,78.6,214.9,47.8,177.1,47.8z M177.1,139.4c-12.6,0-22.9-10.3-22.9-22.9s10.3-22.9,22.9-22.9c12.6,0,22.9,10.3,22.9,22.9
		C200,129.1,189.7,139.4,177.1,139.4z"/>
	<path class="st1" d="M200,116.5c0,12.6-10.3,22.9-22.9,22.9c-12.6,0-22.9-10.3-22.9-22.9c0-37.9-30.8-68.7-68.7-68.7
		s-68.7,30.8-68.7,68.7h45.8c0-12.6,10.3-22.9,22.9-22.9s22.9,10.3,22.9,22.9c0,37.9,30.8,68.7,68.7,68.7s68.7-30.8,68.7-68.7H200z"
		/>
	<ellipse class="st1" cx="85.1" cy="24.2" rx="15.5" ry="15.8"/>
	<ellipse class="st1" cx="176.8" cy="23.4" rx="15.5" ry="15.8"/>
</g>
</svg>
