<?xml version="1.0" encoding="utf-8"?>
<!-- Generator: Adobe Illustrator 24.1.0, SVG Export Plug-In . SVG Version: 6.00 Build 0)  -->
<svg version="1.1" id="Calque_1" xmlns="http://www.w3.org/2000/svg" xmlns:xlink="http://www.w3.org/1999/xlink" x="0px" y="0px"
	 viewBox="0 0 260 132.6" style="enable-background:new 0 0 260 132.6;" xml:space="preserve">
<style type="text/css">
	.st0{fill:none;stroke:#FF006E;stroke-width:2;stroke-miterlimit:10;}
</style>
<g>
	<path class="st0" d="M11.2,126.7C11.2,61.1,64.4,7.9,130,7.9l0,0c65.6,0,118.8,53.2,118.8,118.8"/>
	<path class="st0" d="M19.9,126.7C19.9,65.9,69.2,16.6,130,16.6l0,0c60.8,0,110.1,49.3,110.1,110.1"/>
	<path class="st0" d="M28.5,126.7C28.5,70.6,73.9,25.2,130,25.2l0,0c56.1,0,101.5,45.4,101.5,101.5"/>
	<path class="st0" d="M37.1,126.7c0-51.3,41.6-92.9,92.9-92.9l0,0c51.3,0,92.9,41.6,92.9,92.9"/>
	<path class="st0" d="M45.8,126.7c0-46.5,37.7-84.2,84.2-84.2l0,0c46.5,0,84.2,37.7,84.2,84.2"/>
	<path class="st0" d="M54.4,126.7c0-41.8,33.8-75.6,75.6-75.6l0,0c41.8,0,75.6,33.8,75.6,75.6"/>
	<path class="st0" d="M63,126.7c0-37,30-67,67-67l0,0c37,0,67,30,67,67"/>
	<path class="st0" d="M71.7,126.7c0-32.2,26.1-58.3,58.3-58.3l0,0c32.2,0,58.3,26.1,58.3,58.3"/>
	<path class="st0" d="M80.3,126.7C80.3,99.3,102.6,77,130,77l0,0c27.4,0,49.7,22.2,49.7,49.7"/>
	<path class="st0" d="M89,126.7c0-22.7,18.4-41,41-41l0,0c22.7,0,41,18.4,41,41"/>
	<path class="st0" d="M97.6,126.7c0-17.9,14.5-32.4,32.4-32.4l0,0c17.9,0,32.4,14.5,32.4,32.4"/>
	<path class="st0" d="M106.2,126.7c0-13.1,10.6-23.8,23.8-23.8l0,0c13.1,0,23.8,10.6,23.8,23.8"/>
</g>
</svg>
