<?xml version="1.0" encoding="utf-8"?>
<!-- Generator: Adobe Illustrator 24.1.0, SVG Export Plug-In . SVG Version: 6.00 Build 0)  -->
<svg version="1.1" id="Layer_1" xmlns="http://www.w3.org/2000/svg" xmlns:xlink="http://www.w3.org/1999/xlink" x="0px" y="0px"
	 viewBox="0 0 79.2 21" style="enable-background:new 0 0 79.2 21;" xml:space="preserve">
<style type="text/css">
	.st0{fill:#FFFFFF;}
	.st1{fill:#FEF033;}
	.st2{fill:none;stroke:#000000;stroke-width:2;stroke-linecap:round;stroke-linejoin:round;stroke-miterlimit:10;}
	.st3{fill:none;stroke:#FFFFFF;stroke-width:3;stroke-miterlimit:10;}
	.st4{fill:none;stroke:#000000;stroke-width:2;stroke-miterlimit:10;}
	.st5{fill:none;stroke:#000000;stroke-width:2;stroke-linejoin:bevel;stroke-miterlimit:10;}
	.st6{fill:#FF006E;}
	.st7{fill:#0F122E;}
</style>
<rect x="4" y="2.6" transform="matrix(0.8404 -0.5419 0.5419 0.8404 -4.724 4.9063)" class="st7" width="4" height="15.8"/>
<rect x="71.2" y="2.6" transform="matrix(0.8404 -0.5419 0.5419 0.8404 6.0034 41.3381)" class="st7" width="4" height="15.8"/>
<rect x="57.8" y="2.6" transform="matrix(0.8404 -0.5419 0.5419 0.8404 3.8579 34.0518)" class="st7" width="4" height="15.8"/>
<rect x="44.3" y="2.6" transform="matrix(0.8404 -0.5419 0.5419 0.8404 1.7124 26.7654)" class="st7" width="4" height="15.8"/>
<rect x="17.4" y="2.6" transform="matrix(0.8404 -0.5419 0.5419 0.8404 -2.5786 12.1927)" class="st7" width="4" height="15.8"/>
<rect x="30.9" y="2.6" transform="matrix(0.8404 -0.5419 0.5419 0.8404 -0.4331 19.479)" class="st7" width="4" height="15.8"/>
</svg>
