<?xml version="1.0" encoding="utf-8"?>
<!-- Generator: Adobe Illustrator 24.1.0, SVG Export Plug-In . SVG Version: 6.00 Build 0)  -->
<svg version="1.1" id="Calque_1" xmlns="http://www.w3.org/2000/svg" xmlns:xlink="http://www.w3.org/1999/xlink" x="0px" y="0px"
	 viewBox="0 0 2390 2658" style="enable-background:new 0 0 2390 2658;" xml:space="preserve">
<style type="text/css">
	.st0{fill:#8339EC;}
	.st1{fill:none;stroke:#E6E4E2;stroke-width:5;stroke-miterlimit:10;}
	.st2{fill:none;stroke:#FF006E;stroke-width:2.25;stroke-miterlimit:10;}
	.st3{fill:none;stroke:#FF006E;stroke-width:4.0909;stroke-miterlimit:10;}
	.st4{fill:none;stroke:#FF006E;stroke-width:5.9318;stroke-miterlimit:10;}
	.st5{fill:none;stroke:#FF006E;stroke-width:7.7727;stroke-miterlimit:10;}
	.st6{fill:none;stroke:#FF006E;stroke-width:9.6136;stroke-miterlimit:10;}
	.st7{fill:none;stroke:#FF006E;stroke-width:11.4545;stroke-miterlimit:10;}
	.st8{fill:none;stroke:#FF006E;stroke-width:13.2955;stroke-miterlimit:10;}
	.st9{fill:none;stroke:#FF006E;stroke-width:15.1364;stroke-miterlimit:10;}
	.st10{fill:none;stroke:#FF006E;stroke-width:16.9773;stroke-miterlimit:10;}
	.st11{fill:none;stroke:#FF006E;stroke-width:18.8182;stroke-miterlimit:10;}
	.st12{fill:none;stroke:#FF006E;stroke-width:20.6591;stroke-miterlimit:10;}
	.st13{fill:none;stroke:#FF006E;stroke-width:22.5;stroke-miterlimit:10;}
	.st14{fill:#0F122E;}
	.st15{fill:#E6E4E2;}
	.st16{fill:#FCCC2E;}
	.st17{fill:#FF006E;}
	.st18{fill:none;stroke:#0F122E;stroke-width:5;stroke-miterlimit:10;}
	.st19{fill:none;stroke:#FCCC2E;stroke-width:5;stroke-miterlimit:10;}
	.st20{fill:none;stroke:#FF006E;stroke-width:5;stroke-miterlimit:10;}
	.st21{fill:none;stroke:#8339EC;stroke-width:5;stroke-miterlimit:10;}
</style>
<g>
	<ellipse class="st0" cx="2049.5" cy="1237.3" rx="192.7" ry="203.6"/>
</g>
<g>
	<circle class="st0" cx="342.3" cy="395.3" r="158.7"/>
</g>
<g>
	<circle class="st0" cx="1768.7" cy="2083.7" r="343.5"/>
</g>
<g>
	<path class="st1" d="M1117,118.7c271,252,286.3,676,34.3,947l0,0c-252,271-676,286.3-947,34.3"/>
	<path class="st1" d="M1083.8,154.4c251.3,233.7,265.5,626.9,31.8,878.1l0,0c-233.7,251.3-626.9,265.5-878.1,31.8"/>
	<path class="st1" d="M1050.6,190.1c231.6,215.4,244.7,577.7,29.3,809.2l0,0c-215.4,231.6-577.7,244.7-809.2,29.3"/>
	<path class="st1" d="M1017.4,225.8c211.8,197,223.8,528.5,26.8,740.4l0,0C847.2,1178,515.7,1190,303.8,993"/>
	<path class="st1" d="M984.2,261.4c192.1,178.7,203,479.4,24.3,671.5l0,0c-178.7,192.1-479.4,203-671.5,24.3"/>
	<path class="st1" d="M951,297.1c172.4,160.4,182.2,430.2,21.8,602.6l0,0c-160.4,172.4-430.2,182.2-602.6,21.8"/>
	<path class="st1" d="M917.8,332.8c152.7,142.1,161.4,381,19.3,533.8l0,0c-142.1,152.7-381,161.4-533.8,19.3"/>
	<path class="st1" d="M884.6,368.5c133,123.7,140.6,331.9,16.8,464.9l0,0c-123.7,133-331.9,140.6-464.9,16.8"/>
	<path class="st1" d="M851.5,404.2c113.3,105.4,119.7,282.7,14.3,396l0,0c-105.4,113.3-282.7,119.7-396,14.3"/>
	<path class="st1" d="M818.3,439.9c93.6,87.1,98.9,233.5,11.8,327.1l0,0C743,860.6,596.6,865.9,503,778.8"/>
	<path class="st1" d="M785.1,475.5c73.9,68.7,78.1,184.4,9.4,258.3l0,0c-68.7,73.9-184.4,78.1-258.3,9.4"/>
	<path class="st1" d="M751.9,511.2c54.2,50.4,57.3,135.2,6.9,189.4l0,0c-50.4,54.2-135.2,57.3-189.4,6.9"/>
</g>
<g>
	<line class="st2" x1="1688" y1="1139.6" x2="1615.2" y2="1139.9"/>
	<line class="st3" x1="1687.6" y1="1060.6" x2="1614.7" y2="1061"/>
	<line class="st4" x1="1687.2" y1="981.7" x2="1614.3" y2="982.1"/>
	<line class="st5" x1="1686.8" y1="902.8" x2="1613.9" y2="903.2"/>
	<line class="st6" x1="1686.4" y1="823.9" x2="1613.5" y2="824.2"/>
	<line class="st7" x1="1686" y1="744.9" x2="1613.1" y2="745.3"/>
	<line class="st8" x1="1685.6" y1="666" x2="1612.7" y2="666.4"/>
	<line class="st9" x1="1685.2" y1="587.1" x2="1612.3" y2="587.5"/>
	<line class="st10" x1="1684.8" y1="508.2" x2="1611.9" y2="508.5"/>
	<line class="st11" x1="1684.4" y1="429.2" x2="1611.5" y2="429.6"/>
	<line class="st12" x1="1684" y1="350.3" x2="1611.1" y2="350.7"/>
	<line class="st13" x1="1610.7" y1="271.8" x2="1683.6" y2="271.4"/>
</g>
<g id="Ellipse_8">
	<circle class="st14" cx="3079.2" cy="395.6" r="159.3"/>
	<circle class="st14" cx="3079.2" cy="395.6" r="157.9"/>
</g>
<g id="Ellipse_7" transform="translate(58)">
	<ellipse class="st15" cx="3183.2" cy="395.6" rx="160.7" ry="159.3"/>
	<ellipse class="st15" cx="3183.2" cy="395.6" rx="159.3" ry="157.9"/>
</g>
<g id="Ellipse_6" transform="translate(116)">
	<ellipse class="st16" cx="3285.9" cy="395.6" rx="160.7" ry="159.3"/>
	<ellipse class="st16" cx="3285.9" cy="395.6" rx="159.3" ry="157.9"/>
</g>
<g id="Ellipse_5" transform="translate(174)">
	<ellipse class="st17" cx="3388.6" cy="395.6" rx="160.7" ry="159.3"/>
	<ellipse class="st17" cx="3388.6" cy="395.6" rx="159.3" ry="157.9"/>
</g>
<g id="Ellipse_9" transform="translate(233)">
	<circle class="st0" cx="3491.7" cy="395.6" r="159.3"/>
	<circle class="st0" cx="3491.7" cy="395.6" r="157.9"/>
</g>
<g id="Ellipse_8_1_">
	<circle class="st18" cx="3080.2" cy="1132.6" r="159.3"/>
	<circle class="st18" cx="3080.2" cy="1132.6" r="157.9"/>
</g>
<g id="Ellipse_7_1_" transform="translate(58)">
	<ellipse class="st1" cx="3184.2" cy="1132.6" rx="160.7" ry="159.3"/>
	<ellipse class="st1" cx="3184.2" cy="1132.6" rx="159.3" ry="157.9"/>
</g>
<g id="Ellipse_6_1_" transform="translate(116)">
	<ellipse class="st19" cx="3286.9" cy="1132.6" rx="160.7" ry="159.3"/>
	<ellipse class="st19" cx="3286.9" cy="1132.6" rx="159.3" ry="157.9"/>
</g>
<g id="Ellipse_5_1_" transform="translate(174)">
	<ellipse class="st20" cx="3389.6" cy="1132.6" rx="160.7" ry="159.3"/>
	<ellipse class="st20" cx="3389.6" cy="1132.6" rx="159.3" ry="157.9"/>
</g>
<g id="Ellipse_9_1_" transform="translate(233)">
	<circle class="st21" cx="3492.7" cy="1132.6" r="159.3"/>
	<circle class="st21" cx="3492.7" cy="1132.6" r="157.9"/>
</g>
<g>
	<circle class="st16" cx="1060.8" cy="1759.3" r="12.7"/>
	<path class="st16" d="M1006.7,1779.6c7,0,12.7,5.7,12.7,12.7s-5.7,12.7-12.7,12.7s-12.7-5.7-12.7-12.7
		C994,1785.3,999.7,1779.6,1006.7,1779.6z"/>
	<path class="st16" d="M985.6,1840.2c7,0,12.7,5.7,12.7,12.7s-5.7,12.7-12.7,12.7s-12.7-5.7-12.7-12.7
		C972.8,1845.9,978.5,1840.2,985.6,1840.2z"/>
	<path class="st16" d="M941.5,1776.7c7,0,12.7,5.7,12.7,12.7s-5.7,12.7-12.7,12.7s-12.7-5.7-12.7-12.7
		C928.8,1782.4,934.4,1776.7,941.5,1776.7z"/>
	<path class="st16" d="M913.3,1714.6c7,0,12.7,5.7,12.7,12.7s-5.7,12.7-12.7,12.7s-12.7-5.7-12.7-12.7
		C900.5,1720.3,906.2,1714.6,913.3,1714.6z"/>
	<path class="st16" d="M885.9,1651.6c7,0,12.7,5.7,12.7,12.7s-5.7,12.7-12.7,12.7s-12.7-5.7-12.7-12.7
		C873.2,1657.3,878.9,1651.6,885.9,1651.6z"/>
	<path class="st16" d="M838.3,1704.7c7,0,12.7,5.7,12.7,12.7s-5.7,12.7-12.7,12.7s-12.7-5.7-12.7-12.7
		C825.6,1710.4,831.3,1704.7,838.3,1704.7z"/>
	<circle class="st16" cx="807.9" cy="1649.2" r="12.7"/>
	<path class="st16" d="M763.5,1693.5c7,0,12.7,5.7,12.7,12.7s-5.7,12.7-12.7,12.7s-12.7-5.7-12.7-12.7
		C750.7,1699.2,756.4,1693.5,763.5,1693.5z"/>
	<path class="st16" d="M723.6,1750.6c7,0,12.7,5.7,12.7,12.7s-5.7,12.7-12.7,12.7s-12.7-5.7-12.7-12.7
		C710.9,1756.3,716.5,1750.6,723.6,1750.6z"/>
	<path class="st16" d="M686.7,1819.9c7,0,12.7,5.7,12.7,12.7s-5.7,12.7-12.7,12.7s-12.7-5.7-12.7-12.7S679.7,1819.9,686.7,1819.9z"
		/>
	<path class="st16" d="M654.6,1760.4c7,0,12.7,5.7,12.7,12.7s-5.7,12.7-12.7,12.7s-12.7-5.7-12.7-12.7
		C641.9,1766.1,647.6,1760.4,654.6,1760.4z"/>
	<path class="st16" d="M576,1766.1c7,0,12.7,5.7,12.7,12.7s-5.7,12.7-12.7,12.7s-12.7-5.7-12.7-12.7S569,1766.1,576,1766.1z"/>
	<circle class="st16" cx="612.9" cy="1836" r="12.7"/>
	<path class="st16" d="M576.7,1886.3c7,0,12.7,5.7,12.7,12.7s-5.7,12.7-12.7,12.7S564,1906,564,1899
		C563.9,1892,569.6,1886.3,576.7,1886.3z"/>
	<path class="st16" d="M647.3,1885.4c7,0,12.7,5.7,12.7,12.7s-5.7,12.7-12.7,12.7s-12.7-5.7-12.7-12.7S640.3,1885.4,647.3,1885.4z"
		/>
	<path class="st16" d="M715.1,1882.4c7,0,12.7,5.7,12.7,12.7s-5.7,12.7-12.7,12.7s-12.7-5.7-12.7-12.7
		C702.4,1888.1,708.1,1882.4,715.1,1882.4z"/>
	<path class="st16" d="M781.2,1876.5c7,0,12.7,5.7,12.7,12.7s-5.7,12.7-12.7,12.7s-12.7-5.7-12.7-12.7S774.2,1876.5,781.2,1876.5z"
		/>
	<path class="st16" d="M757.8,1815.7c7,0,12.7,5.7,12.7,12.7s-5.7,12.7-12.7,12.7s-12.7-5.7-12.7-12.7S750.8,1815.7,757.8,1815.7z"
		/>
	<path class="st16" d="M799.7,1764c7,0,12.7,5.7,12.7,12.7s-5.7,12.7-12.7,12.7s-12.7-5.7-12.7-12.7S792.6,1764,799.7,1764z"/>
	<circle class="st16" cx="869.9" cy="1787.4" r="12.7"/>
	<path class="st16" d="M837,1838.8c7,0,12.7,5.7,12.7,12.7s-5.7,12.7-12.7,12.7s-12.7-5.7-12.7-12.7S830,1838.8,837,1838.8z"/>
	<path class="st16" d="M824.3,1922.9c7,0,12.7,5.7,12.7,12.7s-5.7,12.7-12.7,12.7s-12.7-5.7-12.7-12.7S817.3,1922.9,824.3,1922.9z"
		/>
	<path class="st16" d="M867.4,1976.7c7,0,12.7,5.7,12.7,12.7s-5.7,12.7-12.7,12.7s-12.7-5.7-12.7-12.7
		C854.6,1982.4,860.3,1976.7,867.4,1976.7z"/>
	<path class="st16" d="M935.2,1963.9c7,0,12.7,5.7,12.7,12.7s-5.7,12.7-12.7,12.7s-12.7-5.7-12.7-12.7S928.2,1963.9,935.2,1963.9z"
		/>
	<circle class="st16" cx="887.7" cy="1915.7" r="12.7"/>
	<path class="st16" d="M912.5,1839.2c7,0,12.7,5.7,12.7,12.7s-5.7,12.7-12.7,12.7s-12.7-5.7-12.7-12.7
		C899.8,1844.9,905.4,1839.2,912.5,1839.2z"/>
	<path class="st16" d="M961.1,1900.8c7,0,12.7,5.7,12.7,12.7s-5.7,12.7-12.7,12.7s-12.7-5.7-12.7-12.7S954.1,1900.8,961.1,1900.8z"
		/>
	<path class="st16" d="M1011.2,1952.8c7,0,12.7,5.7,12.7,12.7s-5.7,12.7-12.7,12.7s-12.7-5.7-12.7-12.7S1004.2,1952.8,1011.2,1952.8
		z"/>
	<circle class="st16" cx="1049.9" cy="2019.2" r="12.7"/>
	<path class="st16" d="M978.6,2018.6c7,0,12.7,5.7,12.7,12.7s-5.7,12.7-12.7,12.7s-12.7-5.7-12.7-12.7
		C965.8,2024.3,971.5,2018.6,978.6,2018.6z"/>
	<path class="st16" d="M908.7,2035.7c7,0,12.7,5.7,12.7,12.7s-5.7,12.7-12.7,12.7s-12.7-5.7-12.7-12.7S901.7,2035.7,908.7,2035.7z"
		/>
	<path class="st16" d="M842.8,2046.3c7,0,12.7,5.7,12.7,12.7s-5.7,12.7-12.7,12.7S830,2066,830,2059S835.7,2046.3,842.8,2046.3z"/>
	<path class="st16" d="M950.6,2087.9c7,0,12.7,5.7,12.7,12.7s-5.7,12.7-12.7,12.7s-12.7-5.7-12.7-12.7
		C937.9,2093.6,943.6,2087.9,950.6,2087.9z"/>
	<path class="st16" d="M883.1,2113.8c7,0,12.7,5.7,12.7,12.7s-5.7,12.7-12.7,12.7s-12.7-5.7-12.7-12.7
		C870.3,2119.5,876,2113.8,883.1,2113.8z"/>
	<path class="st16" d="M883.2,2192.5c7,0,12.7,5.7,12.7,12.7s-5.7,12.7-12.7,12.7s-12.7-5.7-12.7-12.7S876.2,2192.5,883.2,2192.5z"
		/>
	<path class="st16" d="M950.4,2237c7,0,12.7,5.7,12.7,12.7s-5.7,12.7-12.7,12.7s-12.7-5.7-12.7-12.7
		C937.6,2242.7,943.3,2237,950.4,2237z"/>
	<path class="st16" d="M889.5,2261.9c7,0,12.7,5.7,12.7,12.7s-5.7,12.7-12.7,12.7s-12.7-5.7-12.7-12.7
		C876.8,2267.6,882.5,2261.9,889.5,2261.9z"/>
	<path class="st16" d="M822.2,2234.4c7,0,12.7,5.7,12.7,12.7s-5.7,12.7-12.7,12.7s-12.7-5.7-12.7-12.7S815.2,2234.4,822.2,2234.4z"
		/>
	<path class="st16" d="M819.8,2165.7c7,0,12.7,5.7,12.7,12.7s-5.7,12.7-12.7,12.7s-12.7-5.7-12.7-12.7S812.8,2165.7,819.8,2165.7z"
		/>
	<path class="st16" d="M757.9,2202.4c7,0,12.7,5.7,12.7,12.7s-5.7,12.7-12.7,12.7s-12.7-5.7-12.7-12.7S750.9,2202.4,757.9,2202.4z"
		/>
	<path class="st16" d="M760.4,2274.2c7,0,12.7,5.7,12.7,12.7s-5.7,12.7-12.7,12.7s-12.7-5.7-12.7-12.7S753.3,2274.2,760.4,2274.2z"
		/>
	<path class="st16" d="M694.7,2242.7c7,0,12.7,5.7,12.7,12.7s-5.7,12.7-12.7,12.7s-12.7-5.7-12.7-12.7S687.7,2242.7,694.7,2242.7z"
		/>
	<path class="st16" d="M643.6,2285.8c7,0,12.7,5.7,12.7,12.7s-5.7,12.7-12.7,12.7s-12.7-5.7-12.7-12.7
		C630.9,2291.5,636.5,2285.8,643.6,2285.8z"/>
	<path class="st16" d="M599.1,2338c7,0,12.7,5.7,12.7,12.7s-5.7,12.7-12.7,12.7s-12.7-5.7-12.7-12.7S592,2338,599.1,2338z"/>
	<circle class="st16" cx="579.4" cy="2272.2" r="12.7"/>
	<path class="st16" d="M625.3,2205.6c7,0,12.7,5.7,12.7,12.7s-5.7,12.7-12.7,12.7s-12.7-5.7-12.7-12.7
		C612.5,2211.3,618.2,2205.6,625.3,2205.6z"/>
	<path class="st16" d="M694.4,2172.8c7,0,12.7,5.7,12.7,12.7s-5.7,12.7-12.7,12.7s-12.7-5.7-12.7-12.7S687.3,2172.8,694.4,2172.8z"
		/>
	<path class="st16" d="M747.9,2129.7c7,0,12.7,5.7,12.7,12.7s-5.7,12.7-12.7,12.7s-12.7-5.7-12.7-12.7S740.9,2129.7,747.9,2129.7z"
		/>
	<circle class="st16" cx="813.5" cy="2116.8" r="12.7"/>
	<path class="st16" d="M796.6,1993.8c7,0,12.7,5.7,12.7,12.7s-5.7,12.7-12.7,12.7s-12.7-5.7-12.7-12.7
		C783.9,1999.5,789.6,1993.8,796.6,1993.8z"/>
	<path class="st16" d="M752.8,1942.3c7,0,12.7,5.7,12.7,12.7s-5.7,12.7-12.7,12.7s-12.7-5.7-12.7-12.7S745.8,1942.3,752.8,1942.3z"
		/>
	<path class="st16" d="M682.6,1948.5c7,0,12.7,5.7,12.7,12.7s-5.7,12.7-12.7,12.7s-12.7-5.7-12.7-12.7S675.6,1948.5,682.6,1948.5z"
		/>
	<path class="st16" d="M612.8,1951.2c7,0,12.7,5.7,12.7,12.7s-5.7,12.7-12.7,12.7s-12.7-5.7-12.7-12.7
		C600.1,1956.9,605.8,1951.2,612.8,1951.2z"/>
	<path class="st16" d="M539.9,1951c7,0,12.7,5.7,12.7,12.7s-5.7,12.7-12.7,12.7s-12.7-5.7-12.7-12.7S532.9,1951,539.9,1951z"/>
	<path class="st16" d="M503.9,1885.9c7,0,12.7,5.7,12.7,12.7s-5.7,12.7-12.7,12.7s-12.7-5.7-12.7-12.7
		C491.2,1891.6,496.9,1885.9,503.9,1885.9z"/>
	<path class="st16" d="M533.7,1824.2c7,0,12.7,5.7,12.7,12.7s-5.7,12.7-12.7,12.7s-12.7-5.7-12.7-12.7
		C521,1829.9,526.7,1824.2,533.7,1824.2z"/>
	<path class="st16" d="M499.9,1760.9c7,0,12.7,5.7,12.7,12.7s-5.7,12.7-12.7,12.7s-12.7-5.7-12.7-12.7
		C487.2,1766.6,492.8,1760.9,499.9,1760.9z"/>
	<circle class="st16" cx="478" cy="1703.5" r="12.7"/>
	<path class="st16" d="M460,1621.7c7,0,12.7,5.7,12.7,12.7s-5.7,12.7-12.7,12.7s-12.7-5.7-12.7-12.7
		C447.3,1627.4,453,1621.7,460,1621.7z"/>
	<path class="st16" d="M405.5,1672.1c7,0,12.7,5.7,12.7,12.7s-5.7,12.7-12.7,12.7s-12.7-5.7-12.7-12.7
		C392.8,1677.8,398.5,1672.1,405.5,1672.1z"/>
	<path class="st16" d="M427,1744.7c7,0,12.7,5.7,12.7,12.7s-5.7,12.7-12.7,12.7s-12.7-5.7-12.7-12.7S420,1744.7,427,1744.7z"/>
	<path class="st16" d="M379,1794c7,0,12.7,5.7,12.7,12.7s-5.7,12.7-12.7,12.7s-12.7-5.7-12.7-12.7C366.2,1799.7,371.9,1794,379,1794
		z"/>
	<path class="st16" d="M453.2,1819.9c7,0,12.7,5.7,12.7,12.7s-5.7,12.7-12.7,12.7s-12.7-5.7-12.7-12.7
		C440.4,1825.6,446.1,1819.9,453.2,1819.9z"/>
	<path class="st16" d="M439.8,1891.9c7,0,12.7,5.7,12.7,12.7s-5.7,12.7-12.7,12.7s-12.7-5.7-12.7-12.7
		C427.1,1897.6,432.7,1891.9,439.8,1891.9z"/>
	<path class="st16" d="M393.4,1946.6c7,0,12.7,5.7,12.7,12.7s-5.7,12.7-12.7,12.7s-12.7-5.7-12.7-12.7S386.4,1946.6,393.4,1946.6z"
		/>
	<path class="st16" d="M348.1,2004.2c7,0,12.7,5.7,12.7,12.7s-5.7,12.7-12.7,12.7s-12.7-5.7-12.7-12.7
		C335.4,2009.9,341.1,2004.2,348.1,2004.2z"/>
	<path class="st16" d="M329.8,1920c7,0,12.7,5.7,12.7,12.7s-5.7,12.7-12.7,12.7s-12.7-5.7-12.7-12.7
		C317.1,1925.6,322.8,1920,329.8,1920z"/>
	<path class="st16" d="M383,1865.2c7,0,12.7,5.7,12.7,12.7s-5.7,12.7-12.7,12.7s-12.7-5.7-12.7-12.7S376,1865.2,383,1865.2z"/>
	<path class="st16" d="M317.5,1846.5c7,0,12.7,5.7,12.7,12.7s-5.7,12.7-12.7,12.7s-12.7-5.7-12.7-12.7S310.5,1846.5,317.5,1846.5z"
		/>
	<path class="st16" d="M254,1823.4c6.9,0,12.5,5.6,12.5,12.5s-5.6,12.5-12.5,12.5s-12.5-5.6-12.5-12.5
		C241.6,1828.9,247.1,1823.4,254,1823.4z"/>
	
		<ellipse transform="matrix(3.327786e-02 -0.9994 0.9994 3.327786e-02 -1661.7317 2100.8179)" class="st16" cx="255.1" cy="1909.4" rx="12.7" ry="12.7"/>
	<path class="st16" d="M277.7,1962.6c7,0,12.7,5.7,12.7,12.7s-5.7,12.7-12.7,12.7s-12.7-5.7-12.7-12.7
		C265,1968.3,270.7,1962.6,277.7,1962.6z"/>
	<path class="st16" d="M282.9,2027.8c7,0,12.6,5.7,12.6,12.6s-5.7,12.6-12.6,12.6s-12.6-5.7-12.6-12.6S275.9,2027.8,282.9,2027.8z"
		/>
	<path class="st16" d="M316.9,2084.7c7,0,12.7,5.7,12.7,12.7s-5.7,12.7-12.7,12.7s-12.7-5.7-12.7-12.7
		C304.2,2090.4,309.9,2084.7,316.9,2084.7z"/>
	<path class="st16" d="M385.1,2075.9c7,0,12.7,5.7,12.7,12.7s-5.7,12.7-12.7,12.7s-12.7-5.7-12.7-12.7
		C372.4,2081.6,378.1,2075.9,385.1,2075.9z"/>
	<path class="st16" d="M423.7,2014.6c7,0,12.7,5.7,12.7,12.7s-5.7,12.7-12.7,12.7s-12.7-5.7-12.7-12.7
		C410.9,2020.3,416.6,2014.6,423.7,2014.6z"/>
	<path class="st16" d="M467.7,1955.4c7,0,12.7,5.7,12.7,12.7s-5.7,12.7-12.7,12.7s-12.7-5.7-12.7-12.7S460.7,1955.4,467.7,1955.4z"
		/>
	<path class="st16" d="M501.5,2017.2c7,0,12.7,5.7,12.7,12.7s-5.7,12.7-12.7,12.7s-12.7-5.7-12.7-12.7
		C488.8,2022.9,494.5,2017.2,501.5,2017.2z"/>
	<path class="st16" d="M575.9,2013.9c7,0,12.7,5.7,12.7,12.7s-5.7,12.7-12.7,12.7s-12.7-5.7-12.7-12.7S568.9,2013.9,575.9,2013.9z"
		/>
	<circle class="st16" cx="613.8" cy="2086.9" r="12.7"/>
	<path class="st16" d="M651.4,2015.3c7,0,12.7,5.7,12.7,12.7s-5.7,12.7-12.7,12.7s-12.7-5.7-12.7-12.7S644.4,2015.3,651.4,2015.3z"
		/>
	<circle class="st16" cx="721.3" cy="2021.2" r="12.7"/>
	<path class="st16" d="M764.9,2058.7c7,0,12.7,5.7,12.7,12.7s-5.7,12.7-12.7,12.7s-12.7-5.7-12.7-12.7S757.9,2058.7,764.9,2058.7z"
		/>
	<path class="st16" d="M692.9,2080.4c7,0,12.7,5.7,12.7,12.7s-5.7,12.7-12.7,12.7s-12.7-5.7-12.7-12.7S685.9,2080.4,692.9,2080.4z"
		/>
	<path class="st16" d="M646.3,2133.4c7,0,12.7,5.7,12.7,12.7s-5.7,12.7-12.7,12.7s-12.7-5.7-12.7-12.7
		C633.6,2139.1,639.3,2133.4,646.3,2133.4z"/>
	<path class="st16" d="M578.3,2140.9c7,0,12.7,5.7,12.7,12.7s-5.7,12.7-12.7,12.7s-12.7-5.7-12.7-12.7S571.3,2140.9,578.3,2140.9z"
		/>
	<path class="st16" d="M543.7,2198.7c7,0,12.7,5.7,12.7,12.7s-5.7,12.7-12.7,12.7s-12.7-5.7-12.7-12.7
		C531,2204.3,536.7,2198.7,543.7,2198.7z"/>
	<path class="st16" d="M502.6,2255c7,0,12.7,5.7,12.7,12.7s-5.7,12.7-12.7,12.7s-12.7-5.7-12.7-12.7
		C489.8,2260.7,495.5,2255,502.6,2255z"/>
	<path class="st16" d="M460.6,2199.7c7,0,12.7,5.7,12.7,12.7s-5.7,12.7-12.7,12.7s-12.7-5.7-12.7-12.7S453.6,2199.7,460.6,2199.7z"
		/>
	<path class="st16" d="M499.9,2140.2c7,0,12.7,5.7,12.7,12.7s-5.7,12.7-12.7,12.7s-12.7-5.7-12.7-12.7S492.8,2140.2,499.9,2140.2z"
		/>
	<path class="st16" d="M539.5,2079c7,0,12.7,5.7,12.7,12.7s-5.7,12.7-12.7,12.7s-12.7-5.7-12.7-12.7S532.5,2079,539.5,2079z"/>
	<circle class="st16" cx="461.8" cy="2091.6" r="12.7"/>
	<path class="st16" d="M419.5,2141.4c7,0,12.7,5.7,12.7,12.7s-5.7,12.7-12.7,12.7s-12.7-5.7-12.7-12.7
		C406.8,2147.1,412.5,2141.4,419.5,2141.4z"/>
	<path class="st16" d="M345.9,2148.1c7,0,12.7,5.7,12.7,12.7s-5.7,12.7-12.7,12.7s-12.7-5.7-12.7-12.7S338.8,2148.1,345.9,2148.1z"
		/>
	<path class="st16" d="M381.9,2210.6c7,0,12.7,5.7,12.7,12.7s-5.7,12.7-12.7,12.7s-12.7-5.7-12.7-12.7
		C369.2,2216.3,374.9,2210.6,381.9,2210.6z"/>
	<circle class="st16" cx="428.1" cy="2279.5" r="12.7"/>
	<path class="st16" d="M477,2322.3c7,0,12.7,5.7,12.7,12.7s-5.7,12.7-12.7,12.7s-12.7-5.7-12.7-12.7S470,2322.3,477,2322.3z"/>
	<path class="st16" d="M539.7,2314.5c7,0,12.7,5.7,12.7,12.7s-5.7,12.7-12.7,12.7s-12.7-5.7-12.7-12.7S532.7,2314.5,539.7,2314.5z"
		/>
	<circle class="st16" cx="536.7" cy="2396.6" r="12"/>
	<circle class="st16" cx="605.9" cy="2421.6" r="12.7"/>
	<path class="st16" d="M667.2,2446.4c7,0,12.7,5.7,12.7,12.7s-5.7,12.7-12.7,12.7s-12.7-5.7-12.7-12.7
		C654.5,2452,660.2,2446.4,667.2,2446.4z"/>
	<path class="st16" d="M737.9,2472.6c7,0,12.7,5.7,12.7,12.7s-5.7,12.7-12.7,12.7s-12.7-5.7-12.7-12.7S730.9,2472.6,737.9,2472.6z"
		/>
	<path class="st16" d="M789.2,2421.8c7,0,12.7,5.7,12.7,12.7s-5.7,12.7-12.7,12.7s-12.7-5.7-12.7-12.7S782.2,2421.8,789.2,2421.8z"
		/>
	<path class="st16" d="M721.6,2399c7,0,12.7,5.7,12.7,12.7s-5.7,12.7-12.7,12.7s-12.7-5.7-12.7-12.7S714.6,2399,721.6,2399z"/>
	<path class="st16" d="M660.8,2367c7,0,12.7,5.7,12.7,12.7s-5.7,12.7-12.7,12.7s-12.7-5.7-12.7-12.7S653.8,2367,660.8,2367z"/>
	<path class="st16" d="M707.3,2318.9c7,0,12.7,5.7,12.7,12.7s-5.7,12.7-12.7,12.7s-12.7-5.7-12.7-12.7S700.2,2318.9,707.3,2318.9z"
		/>
	<path class="st16" d="M771.5,2348.7c7,0,12.7,5.7,12.7,12.7s-5.7,12.7-12.7,12.7s-12.7-5.7-12.7-12.7S764.5,2348.7,771.5,2348.7z"
		/>
	<path class="st16" d="M825,2302.2c7,0,12.7,5.7,12.7,12.7s-5.7,12.7-12.7,12.7s-12.7-5.7-12.7-12.7S818,2302.2,825,2302.2z"/>
	<path class="st16" d="M839.6,2371.6c7,0,12.7,5.7,12.7,12.7s-5.7,12.7-12.7,12.7s-12.7-5.7-12.7-12.7
		C826.8,2377.3,832.5,2371.6,839.6,2371.6z"/>
	<path class="st16" d="M890.5,2324.6c7,0,12.7,5.7,12.7,12.7s-5.7,12.7-12.7,12.7s-12.7-5.7-12.7-12.7
		C877.7,2330.3,883.4,2324.6,890.5,2324.6z"/>
	<path class="st16" d="M914.3,2382c7,0,12.7,5.7,12.7,12.7s-5.7,12.7-12.7,12.7s-12.7-5.7-12.7-12.7S907.3,2382,914.3,2382z"/>
	<path class="st16" d="M861.7,2435.6c7,0,12.7,5.7,12.7,12.7s-5.7,12.7-12.7,12.7s-12.7-5.7-12.7-12.7
		C848.9,2441.3,854.6,2435.6,861.7,2435.6z"/>
	<path class="st16" d="M813.3,2489.8c7,0,12.7,5.7,12.7,12.7s-5.7,12.7-12.7,12.7s-12.7-5.7-12.7-12.7S806.3,2489.8,813.3,2489.8z"
		/>
	<path class="st16" d="M889.4,2498c7,0,12.7,5.7,12.7,12.7s-5.7,12.7-12.7,12.7s-12.7-5.7-12.7-12.7
		C876.6,2503.7,882.3,2498,889.4,2498z"/>
	<circle class="st16" cx="934.4" cy="2456.9" r="12.7"/>
	<path class="st16" d="M967.6,2506.7c7,0,12.7,5.7,12.7,12.7s-5.7,12.7-12.7,12.7s-12.7-5.7-12.7-12.7
		C954.9,2512.4,960.6,2506.7,967.6,2506.7z"/>
	<circle class="st16" cx="1046.5" cy="2507.1" r="12.7"/>
	<path class="st16" d="M1002.1,2446.1c7,0,12.7,5.7,12.7,12.7s-5.7,12.7-12.7,12.7s-12.7-5.7-12.7-12.7
		C989.4,2451.8,995.1,2446.1,1002.1,2446.1z"/>
	<circle class="st16" cx="1062" cy="2427.8" r="12.7"/>
	<path class="st16" d="M1036.4,2341.5c7,0,12.7,5.7,12.7,12.7s-5.7,12.7-12.7,12.7s-12.7-5.7-12.7-12.7S1029.4,2341.5,1036.4,2341.5
		z"/>
	<circle class="st16" cx="985" cy="2395.3" r="12.7"/>
	<path class="st16" d="M959,2313.6c7,0,12.7,5.7,12.7,12.7S966,2339,959,2339s-12.7-5.7-12.7-12.7
		C946.2,2319.3,951.9,2313.6,959,2313.6z"/>
	<path class="st16" d="M1015.7,2271.4c7,0,12.7,5.7,12.7,12.7s-5.7,12.7-12.7,12.7s-12.7-5.7-12.7-12.7
		C1003,2277.1,1008.7,2271.4,1015.7,2271.4z"/>
	<path class="st16" d="M1087.3,2289.2c7,0,12.7,5.7,12.7,12.7s-5.7,12.7-12.7,12.7s-12.7-5.7-12.7-12.7
		C1074.6,2294.9,1080.3,2289.2,1087.3,2289.2z"/>
	<circle class="st16" cx="1108.9" cy="2367.9" r="12.7"/>
	<path class="st16" d="M1133.7,2415.8c7,0,12.7,5.7,12.7,12.7s-5.7,12.7-12.7,12.7s-12.7-5.7-12.7-12.7S1126.7,2415.8,1133.7,2415.8
		z"/>
	<path class="st16" d="M1114.7,2480.2c7,0,12.7,5.7,12.7,12.7s-5.7,12.7-12.7,12.7s-12.7-5.7-12.7-12.7S1107.7,2480.2,1114.7,2480.2
		z"/>
	<path class="st16" d="M1187.5,2455.2c7,0,12.7,5.7,12.7,12.7s-5.7,12.7-12.7,12.7s-12.7-5.7-12.7-12.7
		C1174.7,2460.9,1180.4,2455.2,1187.5,2455.2z"/>
	<path class="st16" d="M1249.9,2423.5c7,0,12.7,5.7,12.7,12.7s-5.7,12.7-12.7,12.7s-12.7-5.7-12.7-12.7
		C1237.2,2429.2,1242.9,2423.5,1249.9,2423.5z"/>
	<path class="st16" d="M1254.6,2357.1c7,0,12.7,5.7,12.7,12.7s-5.7,12.7-12.7,12.7s-12.7-5.7-12.7-12.7S1247.6,2357.1,1254.6,2357.1
		z"/>
	<path class="st16" d="M1313.4,2385.3c7,0,12.7,5.7,12.7,12.7s-5.7,12.7-12.7,12.7s-12.7-5.7-12.7-12.7S1306.4,2385.3,1313.4,2385.3
		z"/>
	<path class="st16" d="M1370.7,2347.2c7,0,12.7,5.7,12.7,12.7s-5.7,12.7-12.7,12.7s-12.7-5.7-12.7-12.7S1363.7,2347.2,1370.7,2347.2
		z"/>
	<path class="st16" d="M1306,2307.3c7,0,12.7,5.7,12.7,12.7s-5.7,12.7-12.7,12.7s-12.7-5.7-12.7-12.7S1299,2307.3,1306,2307.3z"/>
	<path class="st16" d="M1278.6,2241.3c7,0,12.7,5.7,12.7,12.7s-5.7,12.7-12.7,12.7s-12.7-5.7-12.7-12.7
		C1265.8,2247,1271.5,2241.3,1278.6,2241.3z"/>
	<path class="st16" d="M1207,2238c7,0,12.7,5.7,12.7,12.7s-5.7,12.7-12.7,12.7s-12.7-5.7-12.7-12.7S1200,2238,1207,2238z"/>
	<path class="st16" d="M1231.1,2299.6c7,0,12.7,5.7,12.7,12.7s-5.7,12.7-12.7,12.7s-12.7-5.7-12.7-12.7S1224.1,2299.6,1231.1,2299.6
		z"/>
	<circle class="st16" cx="1188.5" cy="2386.3" r="12.7"/>
	<path class="st16" d="M1161.9,2306.4c7,0,12.7,5.7,12.7,12.7s-5.7,12.7-12.7,12.7s-12.7-5.7-12.7-12.7S1154.8,2306.4,1161.9,2306.4
		z"/>
	<path class="st16" d="M1140.4,2240.6c7,0,12.7,5.7,12.7,12.7s-5.7,12.7-12.7,12.7s-12.7-5.7-12.7-12.7S1133.3,2240.6,1140.4,2240.6
		z"/>
	<path class="st16" d="M1119.9,2178c7,0,12.7,5.7,12.7,12.7s-5.7,12.7-12.7,12.7s-12.7-5.7-12.7-12.7S1112.9,2178,1119.9,2178z"/>
	<path class="st16" d="M1066.5,2140.4c7,0,12.7,5.7,12.7,12.7s-5.7,12.7-12.7,12.7s-12.7-5.7-12.7-12.7
		C1053.8,2146.1,1059.5,2140.4,1066.5,2140.4z"/>
	<path class="st16" d="M1069,2220.8c7,0,12.7,5.7,12.7,12.7s-5.7,12.7-12.7,12.7s-12.7-5.7-12.7-12.7
		C1056.2,2226.5,1061.9,2220.8,1069,2220.8z"/>
	<circle class="st16" cx="1007.8" cy="2210" r="12.7"/>
	<path class="st16" d="M941,2162.2c7,0,12.7,5.7,12.7,12.7s-5.7,12.7-12.7,12.7s-12.7-5.7-12.7-12.7
		C928.2,2167.9,933.9,2162.2,941,2162.2z"/>
	<path class="st16" d="M1001.1,2132.4c7,0,12.7,5.7,12.7,12.7s-5.7,12.7-12.7,12.7s-12.7-5.7-12.7-12.7S994.1,2132.4,1001.1,2132.4z
		"/>
	<path class="st16" d="M1024.4,2071.9c7,0,12.7,5.7,12.7,12.7s-5.7,12.7-12.7,12.7s-12.7-5.7-12.7-12.7S1017.4,2071.9,1024.4,2071.9
		z"/>
	<path class="st16" d="M1093.1,2072.1c7,0,12.7,5.7,12.7,12.7s-5.7,12.7-12.7,12.7s-12.7-5.7-12.7-12.7S1086.1,2072.1,1093.1,2072.1
		z"/>
	<path class="st16" d="M1144.1,2115.6c7,0,12.7,5.7,12.7,12.7s-5.7,12.7-12.7,12.7s-12.7-5.7-12.7-12.7S1137.1,2115.6,1144.1,2115.6
		z"/>
	<path class="st16" d="M1185.4,2170.5c7,0,12.7,5.7,12.7,12.7s-5.7,12.7-12.7,12.7s-12.7-5.7-12.7-12.7
		C1172.7,2176.2,1178.4,2170.5,1185.4,2170.5z"/>
	<path class="st16" d="M1248.9,2176.4c7,0,12.7,5.7,12.7,12.7s-5.7,12.7-12.7,12.7s-12.7-5.7-12.7-12.7S1241.9,2176.4,1248.9,2176.4
		z"/>
	<path class="st16" d="M1282,2117c7,0,12.7,5.7,12.7,12.7s-5.7,12.7-12.7,12.7s-12.7-5.7-12.7-12.7S1275,2117,1282,2117z"/>
	<path class="st16" d="M1350.4,2099.5c7,0,12.7,5.7,12.7,12.7s-5.7,12.7-12.7,12.7s-12.7-5.7-12.7-12.7S1343.4,2099.5,1350.4,2099.5
		z"/>
	<path class="st16" d="M1385.2,2164.6c7,0,12.7,5.7,12.7,12.7s-5.7,12.7-12.7,12.7s-12.7-5.7-12.7-12.7S1378.2,2164.6,1385.2,2164.6
		z"/>
	<path class="st16" d="M1317.3,2170.1c7,0,12.7,5.7,12.7,12.7s-5.7,12.7-12.7,12.7s-12.7-5.7-12.7-12.7
		C1304.6,2175.8,1310.2,2170.1,1317.3,2170.1z"/>
	<path class="st16" d="M1344.4,2227.9c7,0,12.7,5.7,12.7,12.7s-5.7,12.7-12.7,12.7s-12.7-5.7-12.7-12.7
		C1331.7,2233.6,1337.4,2227.9,1344.4,2227.9z"/>
	<path class="st16" d="M1369.9,2284c7,0,12.7,5.7,12.7,12.7s-5.7,12.7-12.7,12.7s-12.7-5.7-12.7-12.7
		C1357.2,2289.6,1362.9,2284,1369.9,2284z"/>
	<path class="st16" d="M1435.7,2299.3c7,0,12.7,5.7,12.7,12.7s-5.7,12.7-12.7,12.7s-12.7-5.7-12.7-12.7S1428.7,2299.3,1435.7,2299.3
		z"/>
	<path class="st16" d="M1415.8,2229.7c7,0,12.7,5.7,12.7,12.7s-5.7,12.7-12.7,12.7s-12.7-5.7-12.7-12.7
		C1403.1,2235.4,1408.8,2229.7,1415.8,2229.7z"/>
	<path class="st16" d="M1485.3,2238.6c7,0,12.7,5.7,12.7,12.7s-5.7,12.7-12.7,12.7s-12.7-5.7-12.7-12.7S1478.3,2238.6,1485.3,2238.6
		z"/>
	<path class="st16" d="M1456.1,2173.2c7,0,12.7,5.7,12.7,12.7s-5.7,12.7-12.7,12.7s-12.7-5.7-12.7-12.7S1449.1,2173.2,1456.1,2173.2
		z"/>
	<path class="st16" d="M1527.1,2175.8c7,0,12.7,5.7,12.7,12.7s-5.7,12.7-12.7,12.7s-12.7-5.7-12.7-12.7S1520.1,2175.8,1527.1,2175.8
		z"/>
	<path class="st16" d="M1565.8,2114.1c7,0,12.6,5.7,12.6,12.6c0,7-5.7,12.6-12.6,12.6s-12.6-5.7-12.6-12.6
		C1553.2,2119.7,1558.8,2114.1,1565.8,2114.1z"/>
	<path class="st16" d="M1492.2,2112.1c7,0,12.7,5.7,12.7,12.7s-5.7,12.7-12.7,12.7s-12.7-5.7-12.7-12.7S1485.1,2112.1,1492.2,2112.1
		z"/>
	<circle class="st16" cx="1426.8" cy="2121" r="12.7"/>
	<path class="st16" d="M1403.3,2051.1c7,0,12.7,5.7,12.7,12.7s-5.7,12.7-12.7,12.7s-12.7-5.7-12.7-12.7
		C1390.6,2056.8,1396.3,2051.1,1403.3,2051.1z"/>
	<path class="st16" d="M1346.9,2022.2c7,0,12.7,5.7,12.7,12.7s-5.7,12.7-12.7,12.7s-12.7-5.7-12.7-12.7
		C1334.2,2027.9,1339.9,2022.2,1346.9,2022.2z"/>
	<path class="st16" d="M1286.2,2054.6c7,0,12.7,5.7,12.7,12.7s-5.7,12.7-12.7,12.7s-12.7-5.7-12.7-12.7S1279.2,2054.6,1286.2,2054.6
		z"/>
	<path class="st16" d="M1227.4,2021.4c7,0,12.7,5.7,12.7,12.7s-5.7,12.7-12.7,12.7s-12.7-5.7-12.7-12.7
		C1214.6,2027.1,1220.3,2021.4,1227.4,2021.4z"/>
	<path class="st16" d="M1217.8,2100.3c7,0,12.7,5.7,12.7,12.7s-5.7,12.7-12.7,12.7s-12.7-5.7-12.7-12.7S1210.7,2100.3,1217.8,2100.3
		z"/>
	<path class="st16" d="M1166.5,2051.3c7,0,12.7,5.7,12.7,12.7s-5.7,12.7-12.7,12.7s-12.7-5.7-12.7-12.7
		C1153.7,2057,1159.4,2051.3,1166.5,2051.3z"/>
	<path class="st16" d="M1114.2,2007c7,0,12.7,5.7,12.7,12.7s-5.7,12.7-12.7,12.7s-12.7-5.7-12.7-12.7S1107.2,2007,1114.2,2007z"/>
	<path class="st16" d="M1168.8,1976.5c7,0,12.7,5.7,12.7,12.7s-5.7,12.7-12.7,12.7s-12.7-5.7-12.7-12.7
		C1156.1,1982.2,1161.8,1976.5,1168.8,1976.5z"/>
	<path class="st16" d="M1165.9,1909.5c7,0,12.7,5.7,12.7,12.7s-5.7,12.7-12.7,12.7s-12.7-5.7-12.7-12.7
		C1153.1,1915.2,1158.8,1909.5,1165.9,1909.5z"/>
	<path class="st16" d="M1109.2,1869.3c7,0,12.7,5.7,12.7,12.7s-5.7,12.7-12.7,12.7s-12.7-5.7-12.7-12.7S1102.2,1869.3,1109.2,1869.3
		z"/>
	<path class="st16" d="M1093.3,1940.8c7,0,12.7,5.7,12.7,12.7s-5.7,12.7-12.7,12.7s-12.7-5.7-12.7-12.7
		C1080.6,1946.5,1086.3,1940.8,1093.3,1940.8z"/>
	<path class="st16" d="M1038.6,1891c7,0,12.7,5.7,12.7,12.7s-5.7,12.7-12.7,12.7s-12.7-5.7-12.7-12.7S1031.6,1891,1038.6,1891z"/>
	<path class="st16" d="M1057,1823.3c7,0,12.7,5.7,12.7,12.7s-5.7,12.7-12.7,12.7s-12.7-5.7-12.7-12.7
		C1044.3,1828.9,1050,1823.3,1057,1823.3z"/>
	<path class="st16" d="M1118.5,1794.9c7,0,12.7,5.7,12.7,12.7s-5.7,12.7-12.7,12.7s-12.7-5.7-12.7-12.7
		C1105.7,1800.6,1111.4,1794.9,1118.5,1794.9z"/>
	<path class="st16" d="M1182.2,1766.7c7,0,12.7,5.7,12.7,12.7s-5.7,12.7-12.7,12.7s-12.7-5.7-12.7-12.7
		C1169.5,1772.4,1175.2,1766.7,1182.2,1766.7z"/>
	<path class="st16" d="M1182.5,1697.3c7,0,12.7,5.7,12.7,12.7s-5.7,12.7-12.7,12.7s-12.7-5.7-12.7-12.7S1175.5,1697.3,1182.5,1697.3
		z"/>
	<path class="st16" d="M1248.4,1734.8c7,0,12.7,5.7,12.7,12.7s-5.7,12.7-12.7,12.7s-12.7-5.7-12.7-12.7S1241.3,1734.8,1248.4,1734.8
		z"/>
	<path class="st16" d="M1241.3,1667.5c7,0,12.7,5.7,12.7,12.7s-5.7,12.7-12.7,12.7s-12.7-5.7-12.7-12.7
		C1228.6,1673.2,1234.3,1667.5,1241.3,1667.5z"/>
	<path class="st16" d="M1297.1,1640.7c7,0,12.7,5.7,12.7,12.7s-5.7,12.7-12.7,12.7s-12.7-5.7-12.7-12.7S1290.1,1640.7,1297.1,1640.7
		z"/>
	<circle class="st16" cx="1316.6" cy="1716.4" r="12.7"/>
	<circle class="st16" cx="1305.8" cy="1788.5" r="12.7"/>
	<path class="st16" d="M1241.2,1806.6c7,0,12.7,5.7,12.7,12.7s-5.7,12.7-12.7,12.7s-12.7-5.7-12.7-12.7S1234.2,1806.6,1241.2,1806.6
		z"/>
	<path class="st16" d="M1175.4,1838.3c7,0,12.7,5.7,12.7,12.7s-5.7,12.7-12.7,12.7s-12.7-5.7-12.7-12.7
		C1162.7,1844,1168.3,1838.3,1175.4,1838.3z"/>
	<path class="st16" d="M1234.8,1877c7,0,12.7,5.7,12.7,12.7s-5.7,12.7-12.7,12.7s-12.7-5.7-12.7-12.7
		C1222.1,1882.7,1227.8,1877,1234.8,1877z"/>
	<path class="st16" d="M1230.9,1946.7c7,0,12.7,5.7,12.7,12.7s-5.7,12.7-12.7,12.7s-12.7-5.7-12.7-12.7
		C1218.2,1952.3,1223.9,1946.7,1230.9,1946.7z"/>
	<circle class="st16" cx="1289.8" cy="1995.8" r="12.7"/>
	<path class="st16" d="M1297,1913.4c7,0,12.7,5.7,12.7,12.7s-5.7,12.7-12.7,12.7s-12.7-5.7-12.7-12.7S1290,1913.4,1297,1913.4z"/>
	<path class="st16" d="M1356.8,1951.5c7,0,12.7,5.7,12.7,12.7s-5.7,12.7-12.7,12.7s-12.7-5.7-12.7-12.7S1349.7,1951.5,1356.8,1951.5
		z"/>
	<circle class="st16" cx="1416" cy="1998.2" r="12.7"/>
	<path class="st16" d="M1469.3,2036.1c7,0,12.7,5.7,12.7,12.7c0,7-5.7,12.7-12.7,12.7s-12.7-5.7-12.7-12.7
		C1456.6,2041.8,1462.3,2036.1,1469.3,2036.1z"/>
	<path class="st16" d="M1529.4,2059.8c7,0,12.7,5.7,12.7,12.7s-5.7,12.7-12.7,12.7s-12.7-5.7-12.7-12.7S1522.3,2059.8,1529.4,2059.8
		z"/>
	<circle class="st16" cx="1592.3" cy="2054.6" r="12.7"/>
	<path class="st16" d="M1608.9,1974.1c7,0,12.7,5.7,12.7,12.7s-5.7,12.7-12.7,12.7s-12.7-5.7-12.7-12.7
		C1596.1,1979.8,1601.8,1974.1,1608.9,1974.1z"/>
	<path class="st16" d="M1623.3,1907.1c7,0,12.7,5.7,12.7,12.7s-5.7,12.7-12.7,12.7s-12.7-5.7-12.7-12.7S1616.2,1907.1,1623.3,1907.1
		z"/>
	<circle class="st16" cx="1551.6" cy="1942.7" r="12.7"/>
	<path class="st16" d="M1538,1995.8c7,0,12.7,5.7,12.7,12.7s-5.7,12.7-12.7,12.7s-12.7-5.7-12.7-12.7S1531,1995.8,1538,1995.8z"/>
	<circle class="st16" cx="1481.6" cy="1973.1" r="12.7"/>
	<path class="st16" d="M1559.7,1864.2c7,0,12.7,5.7,12.7,12.7s-5.7,12.7-12.7,12.7s-12.7-5.7-12.7-12.7
		C1547,1869.9,1552.7,1864.2,1559.7,1864.2z"/>
	<path class="st16" d="M1626.3,1836.4c7,0,12.7,5.7,12.7,12.7s-5.7,12.7-12.7,12.7s-12.7-5.7-12.7-12.7
		C1613.6,1842.1,1619.3,1836.4,1626.3,1836.4z"/>
	<path class="st16" d="M1635.1,1765.5c6.8,0,12.4,5.5,12.4,12.4s-5.5,12.4-12.4,12.4c-6.8,0-12.4-5.5-12.4-12.4
		S1628.2,1765.5,1635.1,1765.5z"/>
	<path class="st16" d="M1616.6,1691.7c7,0,12.7,5.7,12.7,12.7s-5.7,12.7-12.7,12.7s-12.7-5.7-12.7-12.7
		C1603.9,1697.4,1609.6,1691.7,1616.6,1691.7z"/>
	<path class="st16" d="M1601.8,1628.4c7,0,12.7,5.7,12.7,12.7s-5.7,12.7-12.7,12.7s-12.7-5.7-12.7-12.7
		C1589.1,1634.1,1594.8,1628.4,1601.8,1628.4z"/>
	<circle class="st16" cx="1544.5" cy="1620.3" r="12.7"/>
	<path class="st16" d="M1538.5,1675.9c7,0,12.7,5.7,12.7,12.7s-5.7,12.7-12.7,12.7s-12.7-5.7-12.7-12.7S1531.4,1675.9,1538.5,1675.9
		z"/>
	<path class="st16" d="M1505.5,1748.2c7,0,12.7,5.7,12.7,12.7s-5.7,12.7-12.7,12.7s-12.7-5.7-12.7-12.7S1498.5,1748.2,1505.5,1748.2
		z"/>
	<path class="st16" d="M1570.6,1734.5c7,0,12.7,5.7,12.7,12.7s-5.7,12.7-12.7,12.7s-12.7-5.7-12.7-12.7
		C1557.8,1740.2,1563.5,1734.5,1570.6,1734.5z"/>
	<path class="st16" d="M1565.5,1797.8c7,0,12.7,5.7,12.7,12.7s-5.7,12.7-12.7,12.7s-12.7-5.7-12.7-12.7S1558.5,1797.8,1565.5,1797.8
		z"/>
	<circle class="st16" cx="1497" cy="1830.5" r="12.7"/>
	<circle class="st16" cx="1436.7" cy="1780.3" r="12.7"/>
	<path class="st16" d="M1432,1843.7c7,0,12.7,5.7,12.7,12.7s-5.7,12.7-12.7,12.7s-12.7-5.7-12.7-12.7
		C1419.3,1849.4,1425,1843.7,1432,1843.7z"/>
	<path class="st16" d="M1491.4,1888.9c7,0,12.7,5.7,12.7,12.7s-5.7,12.7-12.7,12.7s-12.7-5.7-12.7-12.7
		C1478.7,1894.6,1484.4,1888.9,1491.4,1888.9z"/>
	<path class="st16" d="M1424.7,1915.7c7,0,12.7,5.7,12.7,12.7s-5.7,12.7-12.7,12.7s-12.7-5.7-12.7-12.7
		C1411.9,1921.4,1417.6,1915.7,1424.7,1915.7z"/>
	<circle class="st16" cx="1364.6" cy="1894.7" r="12.7"/>
	<path class="st16" d="M1302.5,1844.7c7,0,12.7,5.7,12.7,12.7s-5.7,12.7-12.7,12.7s-12.7-5.7-12.7-12.7
		C1289.8,1850.4,1295.5,1844.7,1302.5,1844.7z"/>
	<path class="st16" d="M1370.3,1814.4c7,0,12.7,5.7,12.7,12.7s-5.7,12.7-12.7,12.7s-12.7-5.7-12.7-12.7S1363.3,1814.4,1370.3,1814.4
		z"/>
	<path class="st16" d="M1368.8,1749.8c7,0,12.7,5.7,12.7,12.7s-5.7,12.7-12.7,12.7s-12.7-5.7-12.7-12.7
		C1356,1755.5,1361.7,1749.8,1368.8,1749.8z"/>
	<path class="st16" d="M1398.8,1695.7c7,0,12.7,5.7,12.7,12.7s-5.7,12.7-12.7,12.7s-12.7-5.7-12.7-12.7
		C1386.1,1701.4,1391.8,1695.7,1398.8,1695.7z"/>
	<path class="st16" d="M1466.2,1692.5c7,0,12.7,5.7,12.7,12.7s-5.7,12.7-12.7,12.7s-12.7-5.7-12.7-12.7S1459.2,1692.5,1466.2,1692.5
		z"/>
	<path class="st16" d="M1485.1,1621.6c7,0,12.7,5.7,12.7,12.7s-5.7,12.7-12.7,12.7s-12.7-5.7-12.7-12.7S1478.1,1621.6,1485.1,1621.6
		z"/>
	<path class="st16" d="M1423.2,1628c7,0,12.7,5.7,12.7,12.7s-5.7,12.7-12.7,12.7s-12.7-5.7-12.7-12.7S1416.2,1628,1423.2,1628z"/>
	<path class="st16" d="M1359.3,1639.1c7,0,12.7,5.7,12.7,12.7s-5.7,12.7-12.7,12.7s-12.7-5.7-12.7-12.7
		C1346.6,1644.8,1352.3,1639.1,1359.3,1639.1z"/>
	<circle class="st16" cx="1248.2" cy="1608.3" r="12.7"/>
	<path class="st16" d="M1316,1575.7c7,0,12.7,5.7,12.7,12.7s-5.7,12.7-12.7,12.7s-12.7-5.7-12.7-12.7
		C1303.3,1581.4,1308.9,1575.7,1316,1575.7z"/>
	<path class="st16" d="M1336.5,1508.1c7,0,12.7,5.7,12.7,12.7s-5.7,12.7-12.7,12.7s-12.7-5.7-12.7-12.7
		C1323.7,1513.8,1329.4,1508.1,1336.5,1508.1z"/>
	<path class="st16" d="M1381.8,1567.5c7,0,12.7,5.7,12.7,12.7s-5.7,12.7-12.7,12.7s-12.7-5.7-12.7-12.7
		C1369.1,1573.2,1374.8,1567.5,1381.8,1567.5z"/>
	<path class="st16" d="M1447.7,1557.5c7,0,12.7,5.7,12.7,12.7s-5.7,12.7-12.7,12.7s-12.7-5.7-12.7-12.7S1440.7,1557.5,1447.7,1557.5
		z"/>
	<path class="st16" d="M1512.9,1547.7c7,0,12.7,5.7,12.7,12.7s-5.7,12.7-12.7,12.7s-12.7-5.7-12.7-12.7
		C1500.2,1553.3,1505.9,1547.7,1512.9,1547.7z"/>
	<path class="st16" d="M1584,1555.3c6.9,0,12.5,5.6,12.5,12.5s-5.6,12.5-12.5,12.5s-12.5-5.6-12.5-12.5S1577.1,1555.3,1584,1555.3z"
		/>
	<path class="st16" d="M1551.4,1488.5c7,0,12.7,5.7,12.7,12.7s-5.7,12.7-12.7,12.7s-12.7-5.7-12.7-12.7
		C1538.7,1494.2,1544.4,1488.5,1551.4,1488.5z"/>
	<path class="st16" d="M1474.5,1488.1c7,0,12.7,5.7,12.7,12.7s-5.7,12.7-12.7,12.7s-12.7-5.7-12.7-12.7
		C1461.7,1493.8,1467.4,1488.1,1474.5,1488.1z"/>
	<path class="st16" d="M1404.9,1497.3c7,0,12.7,5.7,12.7,12.7s-5.7,12.7-12.7,12.7s-12.7-5.7-12.7-12.7S1397.8,1497.3,1404.9,1497.3
		z"/>
	<path class="st16" d="M1356.8,1439.2c7,0,12.7,5.7,12.7,12.7s-5.7,12.7-12.7,12.7s-12.7-5.7-12.7-12.7S1349.8,1439.2,1356.8,1439.2
		z"/>
	<path class="st16" d="M1376.1,1370.6c7,0,12.7,5.7,12.7,12.7s-5.7,12.7-12.7,12.7s-12.7-5.7-12.7-12.7
		C1363.4,1376.3,1369.1,1370.6,1376.1,1370.6z"/>
	<path class="st16" d="M1427.5,1428.9c7,0,12.7,5.7,12.7,12.7s-5.7,12.7-12.7,12.7s-12.7-5.7-12.7-12.7S1420.5,1428.9,1427.5,1428.9
		z"/>
	<path class="st16" d="M1468.3,1378.7c7,0,12.7,5.7,12.7,12.7s-5.7,12.7-12.7,12.7s-12.7-5.7-12.7-12.7
		C1455.6,1384.4,1461.3,1378.7,1468.3,1378.7z"/>
	<path class="st16" d="M1509.7,1431.2c7,0,12.7,5.7,12.7,12.7s-5.7,12.7-12.7,12.7s-12.7-5.7-12.7-12.7
		C1497,1436.9,1502.7,1431.2,1509.7,1431.2z"/>
	<path class="st16" d="M1428,1330.5c7,0,12.7,5.7,12.7,12.7s-5.7,12.7-12.7,12.7s-12.7-5.7-12.7-12.7S1421,1330.5,1428,1330.5z"/>
	<path class="st16" d="M1379.5,1286.2c7,0,12.7,5.7,12.7,12.7s-5.7,12.7-12.7,12.7s-12.7-5.7-12.7-12.7
		C1366.8,1291.9,1372.5,1286.2,1379.5,1286.2z"/>
	<path class="st16" d="M1324.6,1244.7c7,0,12.7,5.7,12.7,12.7s-5.7,12.7-12.7,12.7s-12.7-5.7-12.7-12.7S1317.6,1244.7,1324.6,1244.7
		z"/>
	<circle class="st16" cx="1268.2" cy="1209.4" r="12.3"/>
	<path class="st16" d="M1260.7,1272.9c7,0,12.7,5.7,12.7,12.7s-5.7,12.7-12.7,12.7s-12.7-5.7-12.7-12.7S1253.7,1272.9,1260.7,1272.9
		z"/>
	<path class="st16" d="M1246.8,1339.5c7,0,12.7,5.7,12.7,12.7s-5.7,12.7-12.7,12.7s-12.7-5.7-12.7-12.7
		C1234.1,1345.2,1239.8,1339.5,1246.8,1339.5z"/>
	<path class="st16" d="M1318.6,1319.7c7,0,12.7,5.7,12.7,12.7s-5.7,12.7-12.7,12.7s-12.7-5.7-12.7-12.7
		C1305.9,1325.4,1311.6,1319.7,1318.6,1319.7z"/>
	<path class="st16" d="M1302.8,1387.9c7,0,12.7,5.7,12.7,12.7s-5.7,12.7-12.7,12.7s-12.7-5.7-12.7-12.7
		C1290.1,1393.6,1295.8,1387.9,1302.8,1387.9z"/>
	<path class="st16" d="M1286.1,1456c7,0,12.7,5.7,12.7,12.7s-5.7,12.7-12.7,12.7s-12.7-5.7-12.7-12.7S1279.1,1456,1286.1,1456z"/>
	<path class="st16" d="M1266.5,1525.1c7,0,12.7,5.7,12.7,12.7s-5.7,12.7-12.7,12.7s-12.7-5.7-12.7-12.7S1259.5,1525.1,1266.5,1525.1
		z"/>
	<circle class="st16" cx="1216.7" cy="1489.4" r="12.7"/>
	<path class="st16" d="M1229.7,1409.1c7,0,12.7,5.7,12.7,12.7s-5.7,12.7-12.7,12.7s-12.7-5.7-12.7-12.7S1222.7,1409.1,1229.7,1409.1
		z"/>
	<path class="st16" d="M1155.2,1436.2c7,0,12.7,5.7,12.7,12.7s-5.7,12.7-12.7,12.7s-12.7-5.7-12.7-12.7
		C1142.5,1441.9,1148.2,1436.2,1155.2,1436.2z"/>
	<path class="st16" d="M1116.9,1380.5c7,0,12.7,5.7,12.7,12.7s-5.7,12.7-12.7,12.7s-12.7-5.7-12.7-12.7
		C1104.1,1386.2,1109.8,1380.5,1116.9,1380.5z"/>
	<path class="st16" d="M1179,1361.2c7,0,12.7,5.7,12.7,12.7s-5.7,12.7-12.7,12.7s-12.7-5.7-12.7-12.7
		C1166.2,1366.9,1171.9,1361.2,1179,1361.2z"/>
	<path class="st16" d="M1184.5,1291.6c7,0,12.7,5.7,12.7,12.7s-5.7,12.7-12.7,12.7s-12.7-5.7-12.7-12.7
		C1171.8,1297.3,1177.5,1291.6,1184.5,1291.6z"/>
	<path class="st16" d="M1208.1,1228.5c7,0,12.7,5.7,12.7,12.7s-5.7,12.7-12.7,12.7s-12.7-5.7-12.7-12.7S1201.1,1228.5,1208.1,1228.5
		z"/>
	<circle class="st16" cx="1191.5" cy="1176.8" r="12"/>
	<path class="st16" d="M1121.5,1152.1c7,0,12.7,5.7,12.7,12.7s-5.7,12.7-12.7,12.7s-12.7-5.7-12.7-12.7S1114.5,1152.1,1121.5,1152.1
		z"/>
	<path class="st16" d="M1138.8,1227.5c7,0,12.7,5.7,12.7,12.7s-5.7,12.7-12.7,12.7s-12.7-5.7-12.7-12.7
		C1126.1,1233.2,1131.7,1227.5,1138.8,1227.5z"/>
	<path class="st16" d="M1115.6,1312.1c7,0,12.7,5.7,12.7,12.7s-5.7,12.7-12.7,12.7s-12.7-5.7-12.7-12.7
		C1102.9,1317.8,1108.6,1312.1,1115.6,1312.1z"/>
	<path class="st16" d="M1077.7,1261.5c7,0,12.7,5.7,12.7,12.7s-5.7,12.7-12.7,12.7s-12.7-5.7-12.7-12.7S1070.7,1261.5,1077.7,1261.5
		z"/>
	<path class="st16" d="M1028.9,1307.9c7,0,12.7,5.7,12.7,12.7s-5.7,12.7-12.7,12.7s-12.7-5.7-12.7-12.7S1021.8,1307.9,1028.9,1307.9
		z"/>
	<path class="st16" d="M1052.6,1365.6c7,0,12.7,5.7,12.7,12.7s-5.7,12.7-12.7,12.7s-12.7-5.7-12.7-12.7
		C1039.9,1371.3,1045.6,1365.6,1052.6,1365.6z"/>
	<path class="st16" d="M1075.8,1433.6c7,0,12.7,5.7,12.7,12.7s-5.7,12.7-12.7,12.7s-12.7-5.7-12.7-12.7
		C1063,1439.3,1068.7,1433.6,1075.8,1433.6z"/>
	<path class="st16" d="M1095.8,1496.7c7,0,12.7,5.7,12.7,12.7s-5.7,12.7-12.7,12.7s-12.7-5.7-12.7-12.7
		C1083.1,1502.4,1088.8,1496.7,1095.8,1496.7z"/>
	<path class="st16" d="M1156,1505.6c7,0,12.7,5.7,12.7,12.7s-5.7,12.7-12.7,12.7s-12.7-5.7-12.7-12.7S1149,1505.6,1156,1505.6z"/>
	<path class="st16" d="M1199.5,1551.8c7,0,12.7,5.7,12.7,12.7s-5.7,12.7-12.7,12.7s-12.7-5.7-12.7-12.7S1192.5,1551.8,1199.5,1551.8
		z"/>
	<path class="st16" d="M1182.1,1622.5c7,0,12.7,5.7,12.7,12.7s-5.7,12.7-12.7,12.7s-12.7-5.7-12.7-12.7S1175.1,1622.5,1182.1,1622.5
		z"/>
	<path class="st16" d="M1127.8,1571.4c7,0,12.7,5.7,12.7,12.7s-5.7,12.7-12.7,12.7s-12.7-5.7-12.7-12.7
		C1115.1,1577.1,1120.8,1571.4,1127.8,1571.4z"/>
	<path class="st16" d="M1053.5,1549.5c7,0,12.7,5.7,12.7,12.7s-5.7,12.7-12.7,12.7s-12.7-5.7-12.7-12.7S1046.5,1549.5,1053.5,1549.5
		z"/>
	<circle class="st16" cx="1073.3" cy="1624.9" r="12.7"/>
	<path class="st16" d="M1121.9,1654c7,0,12.7,5.7,12.7,12.7s-5.7,12.7-12.7,12.7s-12.7-5.7-12.7-12.7
		C1109.2,1659.7,1114.9,1654,1121.9,1654z"/>
	<path class="st16" d="M1119.4,1721.7c7,0,12.7,5.7,12.7,12.7s-5.7,12.7-12.7,12.7s-12.7-5.7-12.7-12.7
		C1106.7,1727.4,1112.3,1721.7,1119.4,1721.7z"/>
	<path class="st16" d="M1047,1675.8c7,0,12.7,5.7,12.7,12.7s-5.7,12.7-12.7,12.7s-12.7-5.7-12.7-12.7
		C1034.2,1681.5,1039.9,1675.8,1047,1675.8z"/>
	<path class="st16" d="M989.4,1717.2c7,0,12.7,5.7,12.7,12.7s-5.7,12.7-12.7,12.7s-12.7-5.7-12.7-12.7
		C976.7,1722.9,982.3,1717.2,989.4,1717.2z"/>
	<path class="st16" d="M961.9,1658.9c7,0,12.7,5.7,12.7,12.7s-5.7,12.7-12.7,12.7s-12.7-5.7-12.7-12.7S954.8,1658.9,961.9,1658.9z"
		/>
	<path class="st16" d="M1006.3,1608.7c7,0,12.7,5.7,12.7,12.7s-5.7,12.7-12.7,12.7s-12.7-5.7-12.7-12.7
		C993.5,1614.4,999.2,1608.7,1006.3,1608.7z"/>
	<path class="st16" d="M932.7,1594.9c7,0,12.7,5.7,12.7,12.7s-5.7,12.7-12.7,12.7s-12.7-5.7-12.7-12.7S925.7,1594.9,932.7,1594.9z"
		/>
	<path class="st16" d="M859.5,1590.4c7,0,12.7,5.7,12.7,12.7s-5.7,12.7-12.7,12.7s-12.7-5.7-12.7-12.7S852.5,1590.4,859.5,1590.4z"
		/>
	<path class="st16" d="M849.5,1530.8c7,0,12.7,5.7,12.7,12.7s-5.7,12.7-12.7,12.7s-12.7-5.7-12.7-12.7S842.5,1530.8,849.5,1530.8z"
		/>
	<path class="st16" d="M808.2,1491.9c7,0,12.7,5.7,12.7,12.7s-5.7,12.7-12.7,12.7s-12.7-5.7-12.7-12.7S801.2,1491.9,808.2,1491.9z"
		/>
	<path class="st16" d="M874.4,1460.6c7,0,12.7,5.7,12.7,12.7s-5.7,12.7-12.7,12.7s-12.7-5.7-12.7-12.7
		C861.6,1466.3,867.3,1460.6,874.4,1460.6z"/>
	<path class="st16" d="M851,1391.4c7,0,12.7,5.7,12.7,12.7s-5.7,12.7-12.7,12.7s-12.7-5.7-12.7-12.7S844,1391.4,851,1391.4z"/>
	<path class="st16" d="M828.1,1323.5c7,0,12.7,5.7,12.7,12.7s-5.7,12.7-12.7,12.7s-12.7-5.7-12.7-12.7
		C815.4,1329.2,821.1,1323.5,828.1,1323.5z"/>
	<path class="st16" d="M773.5,1365.3c7,0,12.7,5.7,12.7,12.7s-5.7,12.7-12.7,12.7s-12.7-5.7-12.7-12.7S766.5,1365.3,773.5,1365.3z"
		/>
	<path class="st16" d="M795.2,1430.8c7,0,12.7,5.7,12.7,12.7s-5.7,12.7-12.7,12.7s-12.7-5.7-12.7-12.7S788.2,1430.8,795.2,1430.8z"
		/>
	<path class="st16" d="M723.6,1421.1c7,0,12.7,5.7,12.7,12.7s-5.7,12.7-12.7,12.7s-12.7-5.7-12.7-12.7
		C710.9,1426.8,716.6,1421.1,723.6,1421.1z"/>
	<path class="st16" d="M701.3,1350.5c7,0,12.7,5.7,12.7,12.7s-5.7,12.7-12.7,12.7s-12.7-5.7-12.7-12.7S694.3,1350.5,701.3,1350.5z"
		/>
	<path class="st16" d="M629,1341.1c7,0,12.7,5.7,12.7,12.7s-5.7,12.7-12.7,12.7s-12.7-5.7-12.7-12.7
		C616.3,1346.8,622,1341.1,629,1341.1z"/>
	<path class="st16" d="M652.6,1408.3c7,0,12.7,5.7,12.7,12.7s-5.7,12.7-12.7,12.7s-12.7-5.7-12.7-12.7
		C639.9,1414,645.6,1408.3,652.6,1408.3z"/>
	<path class="st16" d="M605,1462.8c7,0,12.7,5.7,12.7,12.7s-5.7,12.7-12.7,12.7s-12.7-5.7-12.7-12.7S598,1462.8,605,1462.8z"/>
	<path class="st16" d="M559,1514.3c7,0,12.7,5.7,12.7,12.7s-5.7,12.7-12.7,12.7s-12.7-5.7-12.7-12.7
		C546.2,1520,551.9,1514.3,559,1514.3z"/>
	<circle class="st16" cx="585.3" cy="1595" r="12.7"/>
	<path class="st16" d="M661.8,1607.2c7,0,12.7,5.7,12.7,12.7s-5.7,12.7-12.7,12.7s-12.7-5.7-12.7-12.7
		C649.1,1612.9,654.8,1607.2,661.8,1607.2z"/>
	<path class="st16" d="M634.8,1534.3c7,0,12.7,5.7,12.7,12.7s-5.7,12.7-12.7,12.7s-12.7-5.7-12.7-12.7S627.8,1534.3,634.8,1534.3z"
		/>
	<path class="st16" d="M676.4,1478.6c7,0,12.7,5.7,12.7,12.7s-5.7,12.7-12.7,12.7s-12.7-5.7-12.7-12.7
		C663.7,1484.3,669.4,1478.6,676.4,1478.6z"/>
	<circle class="st16" cx="744.3" cy="1505" r="12.7"/>
	<path class="st16" d="M707.8,1552c7,0,12.7,5.7,12.7,12.7s-5.7,12.7-12.7,12.7s-12.7-5.7-12.7-12.7
		C695,1557.7,700.7,1552,707.8,1552z"/>
	<path class="st16" d="M782.3,1564.2c7,0,12.7,5.7,12.7,12.7s-5.7,12.7-12.7,12.7s-12.7-5.7-12.7-12.7S775.3,1564.2,782.3,1564.2z"
		/>
	<path class="st16" d="M734.6,1623.4c7,0,12.7,5.7,12.7,12.7s-5.7,12.7-12.7,12.7s-12.7-5.7-12.7-12.7
		C721.9,1629.1,727.6,1623.4,734.6,1623.4z"/>
	<path class="st16" d="M686,1681.5c7,0,12.7,5.7,12.7,12.7s-5.7,12.7-12.7,12.7s-12.7-5.7-12.7-12.7S679,1681.5,686,1681.5z"/>
	<circle class="st16" cx="619.6" cy="1721.6" r="12.7"/>
	<path class="st16" d="M606.6,1648c7,0,12.7,5.7,12.7,12.7s-5.7,12.7-12.7,12.7s-12.7-5.7-12.7-12.7
		C593.9,1653.7,599.6,1648,606.6,1648z"/>
	<path class="st16" d="M548.4,1702.2c7,0,12.7,5.7,12.7,12.7s-5.7,12.7-12.7,12.7s-12.7-5.7-12.7-12.7S541.3,1702.2,548.4,1702.2z"
		/>
	<path class="st16" d="M533,1635.1c7,0,12.7,5.7,12.7,12.7s-5.7,12.7-12.7,12.7s-12.7-5.7-12.7-12.7
		C520.3,1640.8,526,1635.1,533,1635.1z"/>
	<path class="st16" d="M511.5,1567.6c7,0,12.7,5.7,12.7,12.7s-5.7,12.7-12.7,12.7s-12.7-5.7-12.7-12.7
		C498.7,1573.2,504.4,1567.6,511.5,1567.6z"/>
	<path class="st16" d="M440.2,1552.9c7,0,12.7,5.7,12.7,12.7s-5.7,12.7-12.7,12.7s-12.7-5.7-12.7-12.7S433.2,1552.9,440.2,1552.9z"
		/>
	<path class="st16" d="M484.6,1498.1c7,0,12.7,5.7,12.7,12.7s-5.7,12.7-12.7,12.7s-12.7-5.7-12.7-12.7
		C471.9,1503.8,477.6,1498.1,484.6,1498.1z"/>
	<path class="st16" d="M530.1,1444.9c7,0,12.7,5.7,12.7,12.7s-5.7,12.7-12.7,12.7s-12.7-5.7-12.7-12.7S523.1,1444.9,530.1,1444.9z"
		/>
	<path class="st16" d="M578.6,1394c7,0,12.7,5.7,12.7,12.7s-5.7,12.7-12.7,12.7s-12.7-5.7-12.7-12.7S571.6,1394,578.6,1394z"/>
	<circle class="st16" cx="551.4" cy="1341.6" r="12.7"/>
	<path class="st16" d="M500.1,1377.3c7,0,12.7,5.7,12.7,12.7s-5.7,12.7-12.7,12.7s-12.7-5.7-12.7-12.7S493.1,1377.3,500.1,1377.3z"
		/>
	<path class="st16" d="M453.7,1430.6c7,0,12.7,5.7,12.7,12.7s-5.7,12.7-12.7,12.7s-12.7-5.7-12.7-12.7
		C441,1436.3,446.7,1430.6,453.7,1430.6z"/>
	<path class="st16" d="M409.5,1484.8c7,0,12.7,5.7,12.7,12.7s-5.7,12.7-12.7,12.7s-12.7-5.7-12.7-12.7
		C396.7,1490.5,402.4,1484.8,409.5,1484.8z"/>
	<path class="st16" d="M386.6,1603.9c7,0,12.7,5.7,12.7,12.7s-5.7,12.7-12.7,12.7s-12.7-5.7-12.7-12.7S379.6,1603.9,386.6,1603.9z"
		/>
	<path class="st16" d="M328.9,1640.4c7,0,12.7,5.7,12.7,12.7s-5.7,12.7-12.7,12.7s-12.7-5.7-12.7-12.7
		C316.1,1646.1,321.8,1640.4,328.9,1640.4z"/>
	<path class="st16" d="M352.4,1715.9c7,0,12.7,5.7,12.7,12.7s-5.7,12.7-12.7,12.7s-12.7-5.7-12.7-12.7S345.4,1715.9,352.4,1715.9z"
		/>
	<circle class="st16" cx="311.6" cy="1784" r="12.7"/>
	<path class="st16" d="M249.7,1749.4c6.8,0,12.2,5.5,12.2,12.2c0,6.8-5.5,12.2-12.2,12.2s-12.2-5.5-12.2-12.2
		S243,1749.4,249.7,1749.4z"/>
	<circle class="st16" cx="278.9" cy="1702.3" r="12.7"/>
	
		<ellipse transform="matrix(0.9951 -9.853777e-02 9.853777e-02 0.9951 -159.4158 32.8445)" class="st16" cx="252.8" cy="1630.3" rx="5.4" ry="5.4"/>
	<path class="st16" d="M308.8,1566c7,0,12.7,5.7,12.7,12.7s-5.7,12.7-12.7,12.7s-12.7-5.7-12.7-12.7S301.8,1566,308.8,1566z"/>
	<circle class="st16" cx="369.6" cy="1552.1" r="12.7"/>
	<circle class="st16" cx="327.7" cy="1497.9" r="11.8"/>
	<path class="st16" d="M375.1,1422.9c6.9,0,12.5,5.6,12.5,12.5s-5.6,12.5-12.5,12.5s-12.5-5.6-12.5-12.5S368.2,1422.9,375.1,1422.9z
		"/>
	<path class="st16" d="M421.9,1364.7c7,0,12.7,5.7,12.7,12.7s-5.7,12.7-12.7,12.7s-12.7-5.7-12.7-12.7
		C409.2,1370.3,414.9,1364.7,421.9,1364.7z"/>
	<circle class="st16" cx="471.5" cy="1322.8" r="12.7"/>
	<path class="st16" d="M527.8,1265.6c7,0,12.7,5.7,12.7,12.7s-5.7,12.7-12.7,12.7s-12.7-5.7-12.7-12.7
		C515.1,1271.3,520.8,1265.6,527.8,1265.6z"/>
	<circle class="st16" cx="604.3" cy="1290.7" r="12.7"/>
	<path class="st16" d="M580.6,1218.1c6.1,0,11.1,5,11.1,11.1s-5,11.1-11.1,11.1s-11.1-5-11.1-11.1
		C569.5,1223,574.5,1218.1,580.6,1218.1z"/>
	<circle class="st16" cx="646" cy="1224.5" r="12.7"/>
	<path class="st16" d="M686.1,1164c6.1,0,11.1,5,11.1,11.1s-5,11.1-11.1,11.1s-11.1-5-11.1-11.1C674.9,1169,679.9,1164,686.1,1164z"
		/>
	<path class="st16" d="M753.2,1149c7,0,12.7,5.7,12.7,12.7s-5.7,12.7-12.7,12.7s-12.7-5.7-12.7-12.7S746.2,1149,753.2,1149z"/>
	<path class="st16" d="M726.2,1225.4c7,0,12.7,5.7,12.7,12.7s-5.7,12.7-12.7,12.7s-12.7-5.7-12.7-12.7S719.2,1225.4,726.2,1225.4z"
		/>
	<path class="st16" d="M677.4,1280.4c7,0,12.7,5.7,12.7,12.7s-5.7,12.7-12.7,12.7s-12.7-5.7-12.7-12.7
		C664.6,1286.1,670.3,1280.4,677.4,1280.4z"/>
	<path class="st16" d="M751.2,1295.4c7,0,12.7,5.7,12.7,12.7s-5.7,12.7-12.7,12.7s-12.7-5.7-12.7-12.7S744.2,1295.4,751.2,1295.4z"
		/>
	<circle class="st16" cx="810.1" cy="1270.5" r="12.7"/>
	<path class="st16" d="M792.2,1199.6c7,0,12.7,5.7,12.7,12.7s-5.7,12.7-12.7,12.7s-12.7-5.7-12.7-12.7S785.2,1199.6,792.2,1199.6z"
		/>
	<path class="st16" d="M824.1,1137.3c7,0,12.7,5.7,12.7,12.7s-5.7,12.7-12.7,12.7s-12.7-5.7-12.7-12.7
		C811.5,1143,817.1,1137.3,824.1,1137.3z"/>
	<circle class="st16" cx="865.1" cy="1211.1" r="12.7"/>
	<path class="st16" d="M880.5,1271.3c7,0,12.7,5.7,12.7,12.7s-5.7,12.7-12.7,12.7s-12.7-5.7-12.7-12.7S873.5,1271.3,880.5,1271.3z"
		/>
	<path class="st16" d="M900.8,1340.3c7,0,12.7,5.7,12.7,12.7s-5.7,12.7-12.7,12.7s-12.7-5.7-12.7-12.7S893.8,1340.3,900.8,1340.3z"
		/>
	<path class="st16" d="M924.9,1407.1c7,0,12.7,5.7,12.7,12.7s-5.7,12.7-12.7,12.7s-12.7-5.7-12.7-12.7
		C912.2,1412.8,917.9,1407.1,924.9,1407.1z"/>
	<path class="st16" d="M951.7,1471.5c7,0,12.7,5.7,12.7,12.7s-5.7,12.7-12.7,12.7s-12.7-5.7-12.7-12.7S944.6,1471.5,951.7,1471.5z"
		/>
	<path class="st16" d="M912.8,1527.9c7,0,12.7,5.7,12.7,12.7s-5.7,12.7-12.7,12.7s-12.7-5.7-12.7-12.7S905.8,1527.9,912.8,1527.9z"
		/>
	<circle class="st16" cx="982.2" cy="1553.6" r="12.7"/>
	<path class="st16" d="M1024.1,1484.1c7,0,12.7,5.7,12.7,12.7s-5.7,12.7-12.7,12.7s-12.7-5.7-12.7-12.7S1017.1,1484.1,1024.1,1484.1
		z"/>
	<path class="st16" d="M1002.1,1418.7c7,0,12.7,5.7,12.7,12.7s-5.7,12.7-12.7,12.7s-12.7-5.7-12.7-12.7
		C989.4,1424.4,995.1,1418.7,1002.1,1418.7z"/>
	<path class="st16" d="M975.9,1357c7,0,12.7,5.7,12.7,12.7s-5.7,12.7-12.7,12.7s-12.7-5.7-12.7-12.7S968.8,1357,975.9,1357z"/>
	<path class="st16" d="M954.4,1293.6c7,0,12.7,5.7,12.7,12.7s-5.7,12.7-12.7,12.7s-12.7-5.7-12.7-12.7
		C941.6,1299.3,947.3,1293.6,954.4,1293.6z"/>
	<path class="st16" d="M937,1229.2c7,0,12.7,5.7,12.7,12.7s-5.7,12.7-12.7,12.7s-12.7-5.7-12.7-12.7S929.9,1229.2,937,1229.2z"/>
	<circle class="st16" cx="1008" cy="1256.8" r="12.7"/>
	<path class="st16" d="M997.7,1179.8c7,0,12.7,5.7,12.7,12.7s-5.7,12.7-12.7,12.7s-12.7-5.7-12.7-12.7S990.7,1179.8,997.7,1179.8z"
		/>
	<circle class="st16" cx="1068.4" cy="1209.6" r="12.7"/>
	<path class="st16" d="M1050.4,1130c6.8,0,12.3,5.5,12.3,12.3s-5.5,12.3-12.3,12.3s-12.3-5.5-12.3-12.3
		C1038,1135.5,1043.6,1130,1050.4,1130z"/>
	<circle class="st16" cx="974.2" cy="1130.4" r="12.4"/>
	<path class="st16" d="M927.9,1167.1c7,0,12.7,5.7,12.7,12.7s-5.7,12.7-12.7,12.7s-12.7-5.7-12.7-12.7
		C915.2,1172.8,920.9,1167.1,927.9,1167.1z"/>
	<path class="st16" d="M890.5,1118.5c6.8,0,12.2,5.5,12.2,12.2s-5.5,12.2-12.2,12.2c-6.8,0-12.2-5.5-12.2-12.2
		C878.2,1123.9,883.7,1118.5,890.5,1118.5z"/>
</g>
<g>
	<path class="st14" d="M1359.3,819.4c-40.8,0-74.1-33.2-74.1-74.1c0-40.8,33.2-74.1,74.1-74.1c40.8,0,74.1,33.2,74.1,74.1
		C1433.4,786.1,1400.1,819.4,1359.3,819.4z M1359.3,705.2c-22.1,0-40.1,18-40.1,40.1c0,22.1,18,40.1,40.1,40.1
		c22.1,0,40.1-18,40.1-40.1C1399.4,723.2,1381.4,705.2,1359.3,705.2z"/>
</g>
<g>
	<path class="st14" d="M2049.5,2397.7c-72.2,0-130.9-58.7-130.9-130.9c0-72.2,58.7-130.9,130.9-130.9c72.2,0,130.9,58.7,130.9,130.9
		C2180.4,2339,2121.7,2397.7,2049.5,2397.7z M2049.5,2196c-39,0-70.8,31.8-70.8,70.8c0,39,31.8,70.8,70.8,70.8
		c39,0,70.8-31.8,70.8-70.8C2120.3,2227.8,2088.5,2196,2049.5,2196z"/>
</g>
</svg>
