<?xml version="1.0" encoding="utf-8"?>
<!-- Generator: Adobe Illustrator 24.1.0, SVG Export Plug-In . SVG Version: 6.00 Build 0)  -->
<svg version="1.1" id="Calque_1" xmlns="http://www.w3.org/2000/svg" xmlns:xlink="http://www.w3.org/1999/xlink" x="0px" y="0px"
	 viewBox="0 0 2390 2658" style="enable-background:new 0 0 2390 2658;" xml:space="preserve">
<style type="text/css">
	.st0{fill:#FCCC2E;}
	.st1{fill:none;stroke:#FF006E;stroke-width:5;stroke-miterlimit:10;}
	.st2{fill:none;stroke:#0F122E;stroke-width:2.25;stroke-miterlimit:10;}
	.st3{fill:none;stroke:#0F122E;stroke-width:4.0909;stroke-miterlimit:10;}
	.st4{fill:none;stroke:#0F122E;stroke-width:5.9318;stroke-miterlimit:10;}
	.st5{fill:none;stroke:#0F122E;stroke-width:7.7727;stroke-miterlimit:10;}
	.st6{fill:none;stroke:#0F122E;stroke-width:9.6136;stroke-miterlimit:10;}
	.st7{fill:none;stroke:#0F122E;stroke-width:11.4545;stroke-miterlimit:10;}
	.st8{fill:none;stroke:#0F122E;stroke-width:13.2955;stroke-miterlimit:10;}
	.st9{fill:none;stroke:#0F122E;stroke-width:15.1364;stroke-miterlimit:10;}
	.st10{fill:none;stroke:#0F122E;stroke-width:16.9773;stroke-miterlimit:10;}
	.st11{fill:none;stroke:#0F122E;stroke-width:18.8182;stroke-miterlimit:10;}
	.st12{fill:none;stroke:#0F122E;stroke-width:20.6591;stroke-miterlimit:10;}
	.st13{fill:none;stroke:#0F122E;stroke-width:22.5;stroke-miterlimit:10;}
	.st14{fill:#8339EC;}
	.st15{fill:#0F122E;}
	.st16{fill:#E6E4E2;}
	.st17{fill:#FF006E;}
	.st18{fill:none;stroke:#0F122E;stroke-width:5;stroke-miterlimit:10;}
	.st19{fill:none;stroke:#E6E4E2;stroke-width:5;stroke-miterlimit:10;}
	.st20{fill:none;stroke:#FCCC2E;stroke-width:5;stroke-miterlimit:10;}
	.st21{fill:none;stroke:#8339EC;stroke-width:5;stroke-miterlimit:10;}
</style>
<g>
	<circle class="st0" cx="2050.1" cy="1893" r="227.9"/>
</g>
<g>
	
		<ellipse transform="matrix(0.7071 -0.7071 0.7071 0.7071 -12.5242 1551.364)" class="st0" cx="1866.4" cy="790.8" rx="124.1" ry="124.1"/>
</g>
<g>
	<circle class="st0" cx="821.6" cy="2041.7" r="291.6"/>
</g>
<g>
	<path class="st1" d="M1418.6,1043.3c348.8,0,631.5,282.7,631.5,631.5l0,0c0,348.8-282.7,631.5-631.5,631.5"/>
	<path class="st1" d="M1418.6,1089.2c323.4,0,585.6,262.2,585.6,585.6l0,0c0,323.4-262.2,585.6-585.6,585.6"/>
	<path class="st1" d="M1418.6,1135.1c298.1,0,539.7,241.6,539.7,539.7l0,0c0,298.1-241.6,539.7-539.7,539.7"/>
	<path class="st1" d="M1418.6,1181c272.7,0,493.7,221.1,493.7,493.7l0,0c0,272.7-221.1,493.7-493.7,493.7"/>
	<path class="st1" d="M1418.6,1227c247.3,0,447.8,200.5,447.8,447.8l0,0c0,247.3-200.5,447.8-447.8,447.8"/>
	<path class="st1" d="M1418.6,1272.9c222,0,401.9,179.9,401.9,401.9l0,0c0,222-179.9,401.9-401.9,401.9"/>
	<path class="st1" d="M1418.6,1318.8c196.6,0,356,159.4,356,356l0,0c0,196.6-159.4,356-356,356"/>
	<path class="st1" d="M1418.6,1364.8c171.2,0,310,138.8,310,310l0,0c0,171.2-138.8,310-310,310"/>
	<path class="st1" d="M1418.6,1410.7c145.9,0,264.1,118.2,264.1,264.1l0,0c0,145.9-118.2,264.1-264.1,264.1"/>
	<path class="st1" d="M1418.6,1456.6c120.5,0,218.2,97.7,218.2,218.2l0,0c0,120.5-97.7,218.2-218.2,218.2"/>
	<path class="st1" d="M1418.6,1502.6c95.1,0,172.2,77.1,172.2,172.2l0,0c0,95.1-77.1,172.2-172.2,172.2"/>
	<path class="st1" d="M1418.6,1548.5c69.8,0,126.3,56.5,126.3,126.3l0,0c0,69.8-56.5,126.3-126.3,126.3"/>
</g>
<g>
	<line class="st2" x1="924.8" y1="1934.5" x2="963.3" y2="1996.4"/>
	<line class="st3" x1="857.8" y1="1976.2" x2="896.2" y2="2038.1"/>
	<line class="st4" x1="790.7" y1="2017.9" x2="829.2" y2="2079.8"/>
	<line class="st5" x1="723.7" y1="2059.5" x2="762.2" y2="2121.4"/>
	<line class="st6" x1="656.7" y1="2101.2" x2="695.2" y2="2163.1"/>
	<line class="st7" x1="589.7" y1="2142.9" x2="628.1" y2="2204.8"/>
	<line class="st8" x1="522.6" y1="2184.6" x2="561.1" y2="2246.5"/>
	<line class="st9" x1="455.6" y1="2226.2" x2="494.1" y2="2288.1"/>
	<line class="st10" x1="388.6" y1="2267.9" x2="427.1" y2="2329.8"/>
	<line class="st11" x1="321.5" y1="2309.6" x2="360" y2="2371.5"/>
	<line class="st12" x1="254.5" y1="2351.2" x2="293" y2="2413.1"/>
	<line class="st13" x1="226" y1="2454.8" x2="187.5" y2="2392.9"/>
</g>
<g>
	<circle class="st14" cx="1138.2" cy="751.5" r="10.9"/>
	<path class="st14" d="M1091.6,769c6,0,10.9,4.9,10.9,10.9s-4.9,10.9-10.9,10.9s-10.9-4.9-10.9-10.9S1085.6,769,1091.6,769z"/>
	<path class="st14" d="M1073.4,821c6,0,10.9,4.9,10.9,10.9s-4.9,10.9-10.9,10.9s-10.9-4.9-10.9-10.9S1067.4,821,1073.4,821z"/>
	<path class="st14" d="M1035.5,766.5c6,0,10.9,4.9,10.9,10.9s-4.9,10.9-10.9,10.9s-10.9-4.9-10.9-10.9S1029.5,766.5,1035.5,766.5z"
		/>
	<path class="st14" d="M1011.3,713c6,0,10.9,4.9,10.9,10.9s-4.9,10.9-10.9,10.9s-10.9-4.9-10.9-10.9
		C1000.3,717.9,1005.2,713,1011.3,713z"/>
	<path class="st14" d="M987.7,658.9c6,0,10.9,4.9,10.9,10.9s-4.9,10.9-10.9,10.9s-10.9-4.9-10.9-10.9
		C976.8,663.8,981.7,658.9,987.7,658.9z"/>
	<path class="st14" d="M946.8,704.6c6,0,10.9,4.9,10.9,10.9s-4.9,10.9-10.9,10.9s-10.9-4.9-10.9-10.9S940.8,704.6,946.8,704.6z"/>
	<circle class="st14" cx="920.7" cy="656.9" r="10.9"/>
	<path class="st14" d="M882.5,695c6,0,10.9,4.9,10.9,10.9s-4.9,10.9-10.9,10.9s-10.9-4.9-10.9-10.9C871.5,699.9,876.4,695,882.5,695
		z"/>
	<path class="st14" d="M848.2,744c6,0,10.9,4.9,10.9,10.9s-4.9,10.9-10.9,10.9s-10.9-4.9-10.9-10.9C837.2,748.9,842.1,744,848.2,744
		z"/>
	<path class="st14" d="M816.5,803.6c6,0,10.9,4.9,10.9,10.9s-4.9,10.9-10.9,10.9s-10.9-4.9-10.9-10.9
		C805.5,808.5,810.4,803.6,816.5,803.6z"/>
	<path class="st14" d="M788.9,752.4c6,0,10.9,4.9,10.9,10.9s-4.9,10.9-10.9,10.9s-10.9-4.9-10.9-10.9
		C778,757.3,782.9,752.4,788.9,752.4z"/>
	<path class="st14" d="M721.3,757.3c6,0,10.9,4.9,10.9,10.9s-4.9,10.9-10.9,10.9s-10.9-4.9-10.9-10.9S715.3,757.3,721.3,757.3z"/>
	<circle class="st14" cx="753" cy="817.4" r="10.9"/>
	<path class="st14" d="M721.8,860.7c6,0,10.9,4.9,10.9,10.9s-4.9,10.9-10.9,10.9s-10.9-4.9-10.9-10.9
		C710.9,865.6,715.8,860.7,721.8,860.7z"/>
	<path class="st14" d="M782.6,859.9c6,0,10.9,4.9,10.9,10.9s-4.9,10.9-10.9,10.9s-10.9-4.9-10.9-10.9S776.6,859.9,782.6,859.9z"/>
	<path class="st14" d="M840.9,857.4c6,0,10.9,4.9,10.9,10.9s-4.9,10.9-10.9,10.9s-10.9-4.9-10.9-10.9
		C830,862.3,834.9,857.4,840.9,857.4z"/>
	<path class="st14" d="M897.8,852.3c6,0,10.9,4.9,10.9,10.9s-4.9,10.9-10.9,10.9s-10.9-4.9-10.9-10.9S891.7,852.3,897.8,852.3z"/>
	<path class="st14" d="M877.6,800c6,0,10.9,4.9,10.9,10.9s-4.9,10.9-10.9,10.9s-10.9-4.9-10.9-10.9S871.5,800,877.6,800z"/>
	<path class="st14" d="M913.6,755.6c6,0,10.9,4.9,10.9,10.9s-4.9,10.9-10.9,10.9s-10.9-4.9-10.9-10.9
		C902.7,760.5,907.6,755.6,913.6,755.6z"/>
	<circle class="st14" cx="974" cy="775.7" r="10.9"/>
	<path class="st14" d="M945.7,819.9c6,0,10.9,4.9,10.9,10.9s-4.9,10.9-10.9,10.9s-10.9-4.9-10.9-10.9
		C934.8,824.8,939.7,819.9,945.7,819.9z"/>
	<path class="st14" d="M934.8,892.2c6,0,10.9,4.9,10.9,10.9s-4.9,10.9-10.9,10.9s-10.9-4.9-10.9-10.9S928.7,892.2,934.8,892.2z"/>
	<path class="st14" d="M971.8,938.4c6,0,10.9,4.9,10.9,10.9s-4.9,10.9-10.9,10.9s-10.9-4.9-10.9-10.9S965.8,938.4,971.8,938.4z"/>
	<path class="st14" d="M1030.1,927.4c6,0,10.9,4.9,10.9,10.9s-4.9,10.9-10.9,10.9s-10.9-4.9-10.9-10.9
		C1019.2,932.3,1024.1,927.4,1030.1,927.4z"/>
	<circle class="st14" cx="989.3" cy="886" r="10.9"/>
	<path class="st14" d="M1010.6,820.2c6,0,10.9,4.9,10.9,10.9s-4.9,10.9-10.9,10.9s-10.9-4.9-10.9-10.9
		C999.7,825.1,1004.5,820.2,1010.6,820.2z"/>
	<path class="st14" d="M1052.4,873.2c6,0,10.9,4.9,10.9,10.9s-4.9,10.9-10.9,10.9s-10.9-4.9-10.9-10.9S1046.4,873.2,1052.4,873.2z"
		/>
	<path class="st14" d="M1095.5,917.9c6,0,10.9,4.9,10.9,10.9s-4.9,10.9-10.9,10.9s-10.9-4.9-10.9-10.9
		C1084.5,922.8,1089.4,917.9,1095.5,917.9z"/>
	<circle class="st14" cx="1128.7" cy="975" r="10.9"/>
	<path class="st14" d="M1067.4,974.5c6,0,10.9,4.9,10.9,10.9s-4.9,10.9-10.9,10.9s-10.9-4.9-10.9-10.9S1061.4,974.5,1067.4,974.5z"
		/>
	<path class="st14" d="M1007.4,989.2c6,0,10.9,4.9,10.9,10.9s-4.9,10.9-10.9,10.9s-10.9-4.9-10.9-10.9S1001.3,989.2,1007.4,989.2z"
		/>
	<path class="st14" d="M950.6,998.2c6,0,10.9,4.9,10.9,10.9s-4.9,10.9-10.9,10.9s-10.9-4.9-10.9-10.9
		C939.7,1003.1,944.6,998.2,950.6,998.2z"/>
	<path class="st14" d="M1043.4,1034c6,0,10.9,4.9,10.9,10.9s-4.9,10.9-10.9,10.9s-10.9-4.9-10.9-10.9
		C1032.4,1038.9,1037.3,1034,1043.4,1034z"/>
	<path class="st14" d="M985.3,1056.3c6,0,10.9,4.9,10.9,10.9s-4.9,10.9-10.9,10.9s-10.9-4.9-10.9-10.9
		C974.4,1061.2,979.3,1056.3,985.3,1056.3z"/>
	<path class="st14" d="M985.4,1124c6,0,10.9,4.9,10.9,10.9s-4.9,10.9-10.9,10.9s-10.9-4.9-10.9-10.9S979.4,1124,985.4,1124z"/>
	<path class="st14" d="M1043.2,1162.2c6,0,10.9,4.9,10.9,10.9s-4.9,10.9-10.9,10.9s-10.9-4.9-10.9-10.9
		C1032.2,1167.1,1037.1,1162.2,1043.2,1162.2z"/>
	<path class="st14" d="M990.8,1183.7c6,0,10.9,4.9,10.9,10.9s-4.9,10.9-10.9,10.9s-10.9-4.9-10.9-10.9
		C979.9,1188.6,984.8,1183.7,990.8,1183.7z"/>
	<path class="st14" d="M933,1160c6,0,10.9,4.9,10.9,10.9s-4.9,10.9-10.9,10.9s-10.9-4.9-10.9-10.9S927,1160,933,1160z"/>
	<path class="st14" d="M930.9,1101c6,0,10.9,4.9,10.9,10.9s-4.9,10.9-10.9,10.9s-10.9-4.9-10.9-10.9S924.9,1101,930.9,1101z"/>
	<path class="st14" d="M877.7,1132.5c6,0,10.9,4.9,10.9,10.9s-4.9,10.9-10.9,10.9s-10.9-4.9-10.9-10.9
		C866.7,1137.4,871.6,1132.5,877.7,1132.5z"/>
	<path class="st14" d="M879.8,1194.3c6,0,10.9,4.9,10.9,10.9s-4.9,10.9-10.9,10.9s-10.9-4.9-10.9-10.9
		C868.9,1199.2,873.8,1194.3,879.8,1194.3z"/>
	<path class="st14" d="M823.4,1167.1c6,0,10.9,4.9,10.9,10.9s-4.9,10.9-10.9,10.9s-10.9-4.9-10.9-10.9
		C812.4,1172,817.3,1167.1,823.4,1167.1z"/>
	<path class="st14" d="M779.4,1204.2c6,0,10.9,4.9,10.9,10.9s-4.9,10.9-10.9,10.9s-10.9-4.9-10.9-10.9
		C768.4,1209.1,773.3,1204.2,779.4,1204.2z"/>
	<path class="st14" d="M741.1,1249.1c6,0,10.9,4.9,10.9,10.9s-4.9,10.9-10.9,10.9s-10.9-4.9-10.9-10.9
		C730.2,1254,735.1,1249.1,741.1,1249.1z"/>
	<circle class="st14" cx="724.2" cy="1192.5" r="10.9"/>
	<path class="st14" d="M763.6,1135.2c6,0,10.9,4.9,10.9,10.9s-4.9,10.9-10.9,10.9s-10.9-4.9-10.9-10.9
		C752.7,1140.1,757.6,1135.2,763.6,1135.2z"/>
	<path class="st14" d="M823.1,1107c6,0,10.9,4.9,10.9,10.9s-4.9,10.9-10.9,10.9s-10.9-4.9-10.9-10.9
		C812.1,1111.9,817,1107,823.1,1107z"/>
	<path class="st14" d="M869.1,1070c6,0,10.9,4.9,10.9,10.9s-4.9,10.9-10.9,10.9s-10.9-4.9-10.9-10.9
		C858.2,1074.9,863.1,1070,869.1,1070z"/>
	<circle class="st14" cx="925.5" cy="1058.9" r="10.9"/>
	<path class="st14" d="M910.9,953.1c6,0,10.9,4.9,10.9,10.9s-4.9,10.9-10.9,10.9S900,970.1,900,964C900,958,904.9,953.1,910.9,953.1
		z"/>
	<path class="st14" d="M873.3,908.8c6,0,10.9,4.9,10.9,10.9s-4.9,10.9-10.9,10.9s-10.9-4.9-10.9-10.9
		C862.4,913.7,867.3,908.8,873.3,908.8z"/>
	<path class="st14" d="M812.9,914.2c6,0,10.9,4.9,10.9,10.9s-4.9,10.9-10.9,10.9s-10.9-4.9-10.9-10.9
		C802,919.1,806.9,914.2,812.9,914.2z"/>
	<path class="st14" d="M752.9,916.5c6,0,10.9,4.9,10.9,10.9s-4.9,10.9-10.9,10.9s-10.9-4.9-10.9-10.9S746.9,916.5,752.9,916.5z"/>
	<path class="st14" d="M690.3,916.3c6,0,10.9,4.9,10.9,10.9s-4.9,10.9-10.9,10.9s-10.9-4.9-10.9-10.9S684.2,916.3,690.3,916.3z"/>
	<path class="st14" d="M659.3,860.4c6,0,10.9,4.9,10.9,10.9s-4.9,10.9-10.9,10.9s-10.9-4.9-10.9-10.9
		C648.4,865.3,653.3,860.4,659.3,860.4z"/>
	<path class="st14" d="M684.9,807.3c6,0,10.9,4.9,10.9,10.9s-4.9,10.9-10.9,10.9s-10.9-4.9-10.9-10.9S678.9,807.3,684.9,807.3z"/>
	<path class="st14" d="M655.8,752.9c6,0,10.9,4.9,10.9,10.9s-4.9,10.9-10.9,10.9s-10.9-4.9-10.9-10.9
		C644.9,757.8,649.8,752.9,655.8,752.9z"/>
	<circle class="st14" cx="637" cy="703.5" r="10.9"/>
	<path class="st14" d="M621.6,633.2c6,0,10.9,4.9,10.9,10.9s-4.9,10.9-10.9,10.9s-10.9-4.9-10.9-10.9
		C610.6,638.1,615.5,633.2,621.6,633.2z"/>
	<path class="st14" d="M574.7,676.5c6,0,10.9,4.9,10.9,10.9s-4.9,10.9-10.9,10.9s-10.9-4.9-10.9-10.9
		C563.7,681.4,568.6,676.5,574.7,676.5z"/>
	<path class="st14" d="M593.2,738.9c6,0,10.9,4.9,10.9,10.9s-4.9,10.9-10.9,10.9s-10.9-4.9-10.9-10.9S587.1,738.9,593.2,738.9z"/>
	<path class="st14" d="M551.9,781.4c6,0,10.9,4.9,10.9,10.9s-4.9,10.9-10.9,10.9s-10.9-4.9-10.9-10.9
		C540.9,786.3,545.8,781.4,551.9,781.4z"/>
	<path class="st14" d="M615.7,803.6c6,0,10.9,4.9,10.9,10.9s-4.9,10.9-10.9,10.9s-10.9-4.9-10.9-10.9
		C604.7,808.5,609.6,803.6,615.7,803.6z"/>
	<path class="st14" d="M604.2,865.5c6,0,10.9,4.9,10.9,10.9s-4.9,10.9-10.9,10.9s-10.9-4.9-10.9-10.9
		C593.2,870.4,598.1,865.5,604.2,865.5z"/>
	<path class="st14" d="M564.3,912.5c6,0,10.9,4.9,10.9,10.9s-4.9,10.9-10.9,10.9s-10.9-4.9-10.9-10.9S558.2,912.5,564.3,912.5z"/>
	<path class="st14" d="M525.3,962.1c6,0,10.9,4.9,10.9,10.9s-4.9,10.9-10.9,10.9s-10.9-4.9-10.9-10.9
		C514.4,967,519.3,962.1,525.3,962.1z"/>
	<path class="st14" d="M509.6,889.6c6,0,10.9,4.9,10.9,10.9s-4.9,10.9-10.9,10.9c-6,0-10.9-4.9-10.9-10.9S503.6,889.6,509.6,889.6z"
		/>
	<path class="st14" d="M555.4,842.6c6,0,10.9,4.9,10.9,10.9s-4.9,10.9-10.9,10.9s-10.9-4.9-10.9-10.9S549.3,842.6,555.4,842.6z"/>
	<path class="st14" d="M499,826.5c6,0,10.9,4.9,10.9,10.9s-4.9,10.9-10.9,10.9s-10.9-4.9-10.9-10.9S493,826.5,499,826.5z"/>
	<path class="st14" d="M444.4,806.6c5.9,0,10.7,4.8,10.7,10.7s-4.8,10.7-10.7,10.7c-5.9,0-10.7-4.8-10.7-10.7
		C433.7,811.4,438.5,806.6,444.4,806.6z"/>
	<circle class="st14" cx="445.4" cy="880.5" r="10.9"/>
	<path class="st14" d="M464.8,926.3c6,0,10.9,4.9,10.9,10.9s-4.9,10.9-10.9,10.9s-10.9-4.9-10.9-10.9S458.8,926.3,464.8,926.3z"/>
	<path class="st14" d="M469.3,982.3c6,0,10.9,4.9,10.9,10.9s-4.9,10.9-10.9,10.9s-10.9-4.9-10.9-10.9S463.3,982.3,469.3,982.3z"/>
	<path class="st14" d="M498.5,1031.2c6,0,10.9,4.9,10.9,10.9s-4.9,10.9-10.9,10.9s-10.9-4.9-10.9-10.9S492.5,1031.2,498.5,1031.2z"
		/>
	<path class="st14" d="M557.1,1023.7c6,0,10.9,4.9,10.9,10.9s-4.9,10.9-10.9,10.9s-10.9-4.9-10.9-10.9
		C546.2,1028.6,551.1,1023.7,557.1,1023.7z"/>
	<path class="st14" d="M590.3,971c6,0,10.9,4.9,10.9,10.9s-4.9,10.9-10.9,10.9s-10.9-4.9-10.9-10.9S584.3,971,590.3,971z"/>
	<path class="st14" d="M628.2,920.1c6,0,10.9,4.9,10.9,10.9s-4.9,10.9-10.9,10.9s-10.9-4.9-10.9-10.9
		C617.2,925,622.1,920.1,628.2,920.1z"/>
	<path class="st14" d="M657.2,973.3c6,0,10.9,4.9,10.9,10.9s-4.9,10.9-10.9,10.9s-10.9-4.9-10.9-10.9S651.2,973.3,657.2,973.3z"/>
	<path class="st14" d="M721.2,970.4c6,0,10.9,4.9,10.9,10.9s-4.9,10.9-10.9,10.9s-10.9-4.9-10.9-10.9
		C710.3,975.3,715.2,970.4,721.2,970.4z"/>
	<circle class="st14" cx="753.8" cy="1033.1" r="10.9"/>
	<path class="st14" d="M786.1,971.6c6,0,10.9,4.9,10.9,10.9s-4.9,10.9-10.9,10.9s-10.9-4.9-10.9-10.9
		C775.2,976.5,780.1,971.6,786.1,971.6z"/>
	<circle class="st14" cx="846.2" cy="976.7" r="10.9"/>
	<path class="st14" d="M883.7,1008.9c6,0,10.9,4.9,10.9,10.9s-4.9,10.9-10.9,10.9s-10.9-4.9-10.9-10.9S877.7,1008.9,883.7,1008.9z"
		/>
	<path class="st14" d="M821.8,1027.6c6,0,10.9,4.9,10.9,10.9s-4.9,10.9-10.9,10.9s-10.9-4.9-10.9-10.9
		C810.8,1032.5,815.7,1027.6,821.8,1027.6z"/>
	<path class="st14" d="M781.8,1073.2c6,0,10.9,4.9,10.9,10.9s-4.9,10.9-10.9,10.9s-10.9-4.9-10.9-10.9
		C770.8,1078.1,775.7,1073.2,781.8,1073.2z"/>
	<path class="st14" d="M723.3,1079.6c6,0,10.9,4.9,10.9,10.9s-4.9,10.9-10.9,10.9s-10.9-4.9-10.9-10.9
		C712.4,1084.5,717.2,1079.6,723.3,1079.6z"/>
	<path class="st14" d="M693.5,1129.3c6,0,10.9,4.9,10.9,10.9s-4.9,10.9-10.9,10.9s-10.9-4.9-10.9-10.9
		C682.6,1134.2,687.5,1129.3,693.5,1129.3z"/>
	<path class="st14" d="M658.1,1177.7c6,0,10.9,4.9,10.9,10.9s-4.9,10.9-10.9,10.9s-10.9-4.9-10.9-10.9
		C647.2,1182.6,652.1,1177.7,658.1,1177.7z"/>
	<path class="st14" d="M622,1130.1c6,0,10.9,4.9,10.9,10.9s-4.9,10.9-10.9,10.9s-10.9-4.9-10.9-10.9S616,1130.1,622,1130.1z"/>
	<path class="st14" d="M655.8,1079c6,0,10.9,4.9,10.9,10.9s-4.9,10.9-10.9,10.9s-10.9-4.9-10.9-10.9
		C644.9,1083.9,649.8,1079,655.8,1079z"/>
	<path class="st14" d="M689.9,1026.4c6,0,10.9,4.9,10.9,10.9s-4.9,10.9-10.9,10.9s-10.9-4.9-10.9-10.9S683.9,1026.4,689.9,1026.4z"
		/>
	<circle class="st14" cx="623.1" cy="1037.2" r="10.9"/>
	<path class="st14" d="M586.7,1080.1c6,0,10.9,4.9,10.9,10.9s-4.9,10.9-10.9,10.9s-10.9-4.9-10.9-10.9S580.7,1080.1,586.7,1080.1z"
		/>
	<path class="st14" d="M523.4,1085.8c6,0,10.9,4.9,10.9,10.9s-4.9,10.9-10.9,10.9s-10.9-4.9-10.9-10.9
		C512.5,1090.7,517.4,1085.8,523.4,1085.8z"/>
	<path class="st14" d="M554.4,1139.5c6,0,10.9,4.9,10.9,10.9s-4.9,10.9-10.9,10.9s-10.9-4.9-10.9-10.9S548.4,1139.5,554.4,1139.5z"
		/>
	<circle class="st14" cx="594.1" cy="1198.8" r="10.9"/>
	<path class="st14" d="M636.2,1235.6c6,0,10.9,4.9,10.9,10.9s-4.9,10.9-10.9,10.9s-10.9-4.9-10.9-10.9S630.1,1235.6,636.2,1235.6z"
		/>
	<path class="st14" d="M690.1,1228.8c6,0,10.9,4.9,10.9,10.9s-4.9,10.9-10.9,10.9s-10.9-4.9-10.9-10.9
		C679.2,1233.7,684.1,1228.8,690.1,1228.8z"/>
	<circle class="st14" cx="687.5" cy="1299.5" r="10.3"/>
	<circle class="st14" cx="747" cy="1320.9" r="10.9"/>
	<path class="st14" d="M799.7,1342.2c6,0,10.9,4.9,10.9,10.9s-4.9,10.9-10.9,10.9s-10.9-4.9-10.9-10.9S793.7,1342.2,799.7,1342.2z"
		/>
	<path class="st14" d="M860.5,1364.8c6,0,10.9,4.9,10.9,10.9s-4.9,10.9-10.9,10.9s-10.9-4.9-10.9-10.9
		C849.5,1369.7,854.4,1364.8,860.5,1364.8z"/>
	<path class="st14" d="M904.6,1321.1c6,0,10.9,4.9,10.9,10.9s-4.9,10.9-10.9,10.9s-10.9-4.9-10.9-10.9
		C893.7,1326,898.6,1321.1,904.6,1321.1z"/>
	<path class="st14" d="M846.5,1301.5c6,0,10.9,4.9,10.9,10.9s-4.9,10.9-10.9,10.9s-10.9-4.9-10.9-10.9
		C835.5,1306.4,840.4,1301.5,846.5,1301.5z"/>
	<path class="st14" d="M794.2,1274c6,0,10.9,4.9,10.9,10.9s-4.9,10.9-10.9,10.9s-10.9-4.9-10.9-10.9S788.2,1274,794.2,1274z"/>
	<path class="st14" d="M834.1,1232.6c6,0,10.9,4.9,10.9,10.9s-4.9,10.9-10.9,10.9s-10.9-4.9-10.9-10.9
		C823.2,1237.5,828.1,1232.6,834.1,1232.6z"/>
	<path class="st14" d="M889.4,1258.2c6,0,10.9,4.9,10.9,10.9s-4.9,10.9-10.9,10.9s-10.9-4.9-10.9-10.9
		C878.4,1263.1,883.3,1258.2,889.4,1258.2z"/>
	<path class="st14" d="M935.4,1218.3c6,0,10.9,4.9,10.9,10.9s-4.9,10.9-10.9,10.9s-10.9-4.9-10.9-10.9
		C924.4,1223.2,929.3,1218.3,935.4,1218.3z"/>
	<path class="st14" d="M947.9,1278c6,0,10.9,4.9,10.9,10.9s-4.9,10.9-10.9,10.9s-10.9-4.9-10.9-10.9S941.8,1278,947.9,1278z"/>
	<path class="st14" d="M991.7,1237.5c6,0,10.9,4.9,10.9,10.9s-4.9,10.9-10.9,10.9s-10.9-4.9-10.9-10.9
		C980.7,1242.4,985.6,1237.5,991.7,1237.5z"/>
	<path class="st14" d="M1012.1,1286.9c6,0,10.9,4.9,10.9,10.9s-4.9,10.9-10.9,10.9s-10.9-4.9-10.9-10.9
		C1001.2,1291.8,1006.1,1286.9,1012.1,1286.9z"/>
	<path class="st14" d="M966.9,1333c6,0,10.9,4.9,10.9,10.9s-4.9,10.9-10.9,10.9s-10.9-4.9-10.9-10.9S960.9,1333,966.9,1333z"/>
	<path class="st14" d="M925.3,1379.6c6,0,10.9,4.9,10.9,10.9s-4.9,10.9-10.9,10.9s-10.9-4.9-10.9-10.9
		C914.4,1384.5,919.3,1379.6,925.3,1379.6z"/>
	<path class="st14" d="M990.7,1386.7c6,0,10.9,4.9,10.9,10.9s-4.9,10.9-10.9,10.9s-10.9-4.9-10.9-10.9S984.7,1386.7,990.7,1386.7z"
		/>
	<circle class="st14" cx="1029.4" cy="1351.3" r="10.9"/>
	<path class="st14" d="M1058,1394.1c6,0,10.9,4.9,10.9,10.9s-4.9,10.9-10.9,10.9s-10.9-4.9-10.9-10.9S1052,1394.1,1058,1394.1z"/>
	<circle class="st14" cx="1125.8" cy="1394.5" r="10.9"/>
	<path class="st14" d="M1087.6,1342c6,0,10.9,4.9,10.9,10.9s-4.9,10.9-10.9,10.9s-10.9-4.9-10.9-10.9S1081.6,1342,1087.6,1342z"/>
	<circle class="st14" cx="1139.2" cy="1326.2" r="10.9"/>
	<path class="st14" d="M1117.1,1252.1c6,0,10.9,4.9,10.9,10.9s-4.9,10.9-10.9,10.9s-10.9-4.9-10.9-10.9S1111.1,1252.1,1117.1,1252.1
		z"/>
	<circle class="st14" cx="1073" cy="1298.3" r="10.9"/>
	<path class="st14" d="M1050.6,1228.1c6,0,10.9,4.9,10.9,10.9s-4.9,10.9-10.9,10.9s-10.9-4.9-10.9-10.9
		C1039.6,1233,1044.5,1228.1,1050.6,1228.1z"/>
	<path class="st14" d="M1099.3,1191.8c6,0,10.9,4.9,10.9,10.9s-4.9,10.9-10.9,10.9s-10.9-4.9-10.9-10.9
		C1088.4,1196.7,1093.3,1191.8,1099.3,1191.8z"/>
	<path class="st14" d="M1160.9,1207.1c6,0,10.9,4.9,10.9,10.9s-4.9,10.9-10.9,10.9s-10.9-4.9-10.9-10.9S1154.9,1207.1,1160.9,1207.1
		z"/>
	<circle class="st14" cx="1179.5" cy="1274.8" r="10.9"/>
	<path class="st14" d="M1200.8,1315.9c6,0,10.9,4.9,10.9,10.9s-4.9,10.9-10.9,10.9s-10.9-4.9-10.9-10.9S1194.8,1315.9,1200.8,1315.9
		z"/>
	<path class="st14" d="M1184.5,1371.4c6,0,10.9,4.9,10.9,10.9s-4.9,10.9-10.9,10.9s-10.9-4.9-10.9-10.9
		C1173.5,1376.3,1178.4,1371.4,1184.5,1371.4z"/>
	<path class="st14" d="M1247,1349.8c6,0,10.9,4.9,10.9,10.9s-4.9,10.9-10.9,10.9s-10.9-4.9-10.9-10.9
		C1236.1,1354.7,1241,1349.8,1247,1349.8z"/>
	<path class="st14" d="M1300.7,1322.6c6,0,10.9,4.9,10.9,10.9s-4.9,10.9-10.9,10.9s-10.9-4.9-10.9-10.9
		C1289.8,1327.5,1294.7,1322.6,1300.7,1322.6z"/>
	<path class="st14" d="M1304.7,1265.5c6,0,10.9,4.9,10.9,10.9s-4.9,10.9-10.9,10.9s-10.9-4.9-10.9-10.9
		C1293.8,1270.4,1298.7,1265.5,1304.7,1265.5z"/>
	<path class="st14" d="M1355.3,1289.8c6,0,10.9,4.9,10.9,10.9s-4.9,10.9-10.9,10.9s-10.9-4.9-10.9-10.9
		C1344.4,1294.7,1349.3,1289.8,1355.3,1289.8z"/>
	<path class="st14" d="M1404.6,1257c6,0,10.9,4.9,10.9,10.9s-4.9,10.9-10.9,10.9s-10.9-4.9-10.9-10.9S1398.6,1257,1404.6,1257z"/>
	<path class="st14" d="M1348.9,1222.7c6,0,10.9,4.9,10.9,10.9s-4.9,10.9-10.9,10.9s-10.9-4.9-10.9-10.9S1342.9,1222.7,1348.9,1222.7
		z"/>
	<path class="st14" d="M1325.3,1165.9c6,0,10.9,4.9,10.9,10.9s-4.9,10.9-10.9,10.9s-10.9-4.9-10.9-10.9S1319.3,1165.9,1325.3,1165.9
		z"/>
	<path class="st14" d="M1263.8,1163.1c6,0,10.9,4.9,10.9,10.9s-4.9,10.9-10.9,10.9s-10.9-4.9-10.9-10.9S1257.8,1163.1,1263.8,1163.1
		z"/>
	<path class="st14" d="M1284.5,1216c6,0,10.9,4.9,10.9,10.9s-4.9,10.9-10.9,10.9s-10.9-4.9-10.9-10.9S1278.5,1216,1284.5,1216z"/>
	<circle class="st14" cx="1247.9" cy="1290.6" r="10.9"/>
	<path class="st14" d="M1225,1221.9c6,0,10.9,4.9,10.9,10.9s-4.9,10.9-10.9,10.9s-10.9-4.9-10.9-10.9S1219,1221.9,1225,1221.9z"/>
	<path class="st14" d="M1206.5,1165.3c6,0,10.9,4.9,10.9,10.9s-4.9,10.9-10.9,10.9s-10.9-4.9-10.9-10.9
		C1195.6,1170.2,1200.5,1165.3,1206.5,1165.3z"/>
	<path class="st14" d="M1189,1111.5c6,0,10.9,4.9,10.9,10.9s-4.9,10.9-10.9,10.9s-10.9-4.9-10.9-10.9
		C1178,1116.4,1182.9,1111.5,1189,1111.5z"/>
	<path class="st14" d="M1143,1079.2c6,0,10.9,4.9,10.9,10.9s-4.9,10.9-10.9,10.9s-10.9-4.9-10.9-10.9S1137,1079.2,1143,1079.2z"/>
	<path class="st14" d="M1145.1,1148.3c6,0,10.9,4.9,10.9,10.9s-4.9,10.9-10.9,10.9s-10.9-4.9-10.9-10.9
		C1134.2,1153.2,1139.1,1148.3,1145.1,1148.3z"/>
	<circle class="st14" cx="1092.5" cy="1139" r="10.9"/>
	<path class="st14" d="M1035.1,1097.9c6,0,10.9,4.9,10.9,10.9s-4.9,10.9-10.9,10.9s-10.9-4.9-10.9-10.9
		C1024.1,1102.8,1029,1097.9,1035.1,1097.9z"/>
	<path class="st14" d="M1086.8,1072.3c6,0,10.9,4.9,10.9,10.9s-4.9,10.9-10.9,10.9s-10.9-4.9-10.9-10.9
		C1075.9,1077.2,1080.7,1072.3,1086.8,1072.3z"/>
	<path class="st14" d="M1106.8,1020.3c6,0,10.9,4.9,10.9,10.9s-4.9,10.9-10.9,10.9s-10.9-4.9-10.9-10.9S1100.8,1020.3,1106.8,1020.3
		z"/>
	<path class="st14" d="M1165.9,1020.4c6,0,10.9,4.9,10.9,10.9s-4.9,10.9-10.9,10.9s-10.9-4.9-10.9-10.9
		C1154.9,1025.3,1159.8,1020.4,1165.9,1020.4z"/>
	<path class="st14" d="M1209.7,1057.9c6,0,10.9,4.9,10.9,10.9s-4.9,10.9-10.9,10.9s-10.9-4.9-10.9-10.9
		C1198.8,1062.7,1203.7,1057.9,1209.7,1057.9z"/>
	<path class="st14" d="M1245.3,1105.1c6,0,10.9,4.9,10.9,10.9s-4.9,10.9-10.9,10.9s-10.9-4.9-10.9-10.9
		C1234.3,1110,1239.2,1105.1,1245.3,1105.1z"/>
	<path class="st14" d="M1299.8,1110.1c6,0,10.9,4.9,10.9,10.9s-4.9,10.9-10.9,10.9s-10.9-4.9-10.9-10.9S1293.8,1110.1,1299.8,1110.1
		z"/>
	<path class="st14" d="M1328.3,1059.1c6,0,10.9,4.9,10.9,10.9s-4.9,10.9-10.9,10.9s-10.9-4.9-10.9-10.9S1322.3,1059.1,1328.3,1059.1
		z"/>
	<path class="st14" d="M1387.1,1044c6,0,10.9,4.9,10.9,10.9s-4.9,10.9-10.9,10.9s-10.9-4.9-10.9-10.9S1381.1,1044,1387.1,1044z"/>
	<path class="st14" d="M1417.1,1100c6,0,10.9,4.9,10.9,10.9s-4.9,10.9-10.9,10.9s-10.9-4.9-10.9-10.9
		C1406.1,1104.9,1411,1100,1417.1,1100z"/>
	<path class="st14" d="M1358.6,1104.7c6,0,10.9,4.9,10.9,10.9s-4.9,10.9-10.9,10.9s-10.9-4.9-10.9-10.9S1352.6,1104.7,1358.6,1104.7
		z"/>
	<path class="st14" d="M1382,1154.4c6,0,10.9,4.9,10.9,10.9s-4.9,10.9-10.9,10.9s-10.9-4.9-10.9-10.9S1376,1154.4,1382,1154.4z"/>
	<path class="st14" d="M1403.9,1202.6c6,0,10.9,4.9,10.9,10.9s-4.9,10.9-10.9,10.9s-10.9-4.9-10.9-10.9S1397.9,1202.6,1403.9,1202.6
		z"/>
	<path class="st14" d="M1460.5,1215.8c6,0,10.9,4.9,10.9,10.9s-4.9,10.9-10.9,10.9s-10.9-4.9-10.9-10.9S1454.4,1215.8,1460.5,1215.8
		z"/>
	<path class="st14" d="M1443.4,1156c6,0,10.9,4.9,10.9,10.9s-4.9,10.9-10.9,10.9s-10.9-4.9-10.9-10.9
		C1432.4,1160.9,1437.3,1156,1443.4,1156z"/>
	<path class="st14" d="M1503.1,1163.6c6,0,10.9,4.9,10.9,10.9s-4.9,10.9-10.9,10.9s-10.9-4.9-10.9-10.9S1497.1,1163.6,1503.1,1163.6
		z"/>
	<path class="st14" d="M1478,1107.4c6,0,10.9,4.9,10.9,10.9s-4.9,10.9-10.9,10.9s-10.9-4.9-10.9-10.9S1472,1107.4,1478,1107.4z"/>
	<path class="st14" d="M1539,1109.6c6,0,10.9,4.9,10.9,10.9s-4.9,10.9-10.9,10.9s-10.9-4.9-10.9-10.9S1533,1109.6,1539,1109.6z"/>
	<path class="st14" d="M1572.3,1056.5c6,0,10.9,4.9,10.9,10.9s-4.9,10.9-10.9,10.9s-10.9-4.9-10.9-10.9
		C1561.5,1061.4,1566.3,1056.5,1572.3,1056.5z"/>
	<path class="st14" d="M1509,1054.8c6,0,10.9,4.9,10.9,10.9s-4.9,10.9-10.9,10.9s-10.9-4.9-10.9-10.9
		C1498.1,1059.7,1503,1054.8,1509,1054.8z"/>
	<circle class="st14" cx="1452.8" cy="1062.5" r="10.9"/>
	<path class="st14" d="M1432.6,1002.4c6,0,10.9,4.9,10.9,10.9s-4.9,10.9-10.9,10.9s-10.9-4.9-10.9-10.9
		C1421.7,1007.3,1426.6,1002.4,1432.6,1002.4z"/>
	<path class="st14" d="M1384.1,977.5c6,0,10.9,4.9,10.9,10.9s-4.9,10.9-10.9,10.9s-10.9-4.9-10.9-10.9S1378.1,977.5,1384.1,977.5z"
		/>
	<path class="st14" d="M1332,1005.4c6,0,10.9,4.9,10.9,10.9s-4.9,10.9-10.9,10.9s-10.9-4.9-10.9-10.9
		C1321,1010.3,1325.9,1005.4,1332,1005.4z"/>
	<path class="st14" d="M1281.3,976.9c6,0,10.9,4.9,10.9,10.9s-4.9,10.9-10.9,10.9s-10.9-4.9-10.9-10.9S1275.3,976.9,1281.3,976.9z"
		/>
	<path class="st14" d="M1273.1,1044.7c6,0,10.9,4.9,10.9,10.9s-4.9,10.9-10.9,10.9s-10.9-4.9-10.9-10.9
		C1262.1,1049.6,1267,1044.7,1273.1,1044.7z"/>
	<path class="st14" d="M1229,1002.6c6,0,10.9,4.9,10.9,10.9s-4.9,10.9-10.9,10.9s-10.9-4.9-10.9-10.9
		C1218,1007.5,1222.9,1002.6,1229,1002.6z"/>
	<path class="st14" d="M1184.1,964.5c6,0,10.9,4.9,10.9,10.9s-4.9,10.9-10.9,10.9s-10.9-4.9-10.9-10.9
		C1173.1,969.4,1178,964.5,1184.1,964.5z"/>
	<path class="st14" d="M1231,938.3c6,0,10.9,4.9,10.9,10.9s-4.9,10.9-10.9,10.9s-10.9-4.9-10.9-10.9
		C1220,943.2,1224.9,938.3,1231,938.3z"/>
	<path class="st14" d="M1228.5,880.6c6,0,10.9,4.9,10.9,10.9s-4.9,10.9-10.9,10.9s-10.9-4.9-10.9-10.9
		C1217.5,885.5,1222.4,880.6,1228.5,880.6z"/>
	<path class="st14" d="M1179.7,846.1c6,0,10.9,4.9,10.9,10.9s-4.9,10.9-10.9,10.9s-10.9-4.9-10.9-10.9S1173.7,846.1,1179.7,846.1z"
		/>
	<path class="st14" d="M1166.1,907.5c6,0,10.9,4.9,10.9,10.9s-4.9,10.9-10.9,10.9s-10.9-4.9-10.9-10.9
		C1155.1,912.4,1160,907.5,1166.1,907.5z"/>
	<path class="st14" d="M1119,864.7c6,0,10.9,4.9,10.9,10.9s-4.9,10.9-10.9,10.9s-10.9-4.9-10.9-10.9
		C1108.1,869.6,1113,864.7,1119,864.7z"/>
	<path class="st14" d="M1134.9,806.5c6,0,10.9,4.9,10.9,10.9s-4.9,10.9-10.9,10.9s-10.9-4.9-10.9-10.9
		C1123.9,811.4,1128.8,806.5,1134.9,806.5z"/>
	<path class="st14" d="M1187.7,782.1c6,0,10.9,4.9,10.9,10.9s-4.9,10.9-10.9,10.9s-10.9-4.9-10.9-10.9S1181.6,782.1,1187.7,782.1z"
		/>
	<path class="st14" d="M1242.5,757.9c6,0,10.9,4.9,10.9,10.9s-4.9,10.9-10.9,10.9s-10.9-4.9-10.9-10.9
		C1231.6,762.8,1236.5,757.9,1242.5,757.9z"/>
	<path class="st14" d="M1242.8,698.2c6,0,10.9,4.9,10.9,10.9s-4.9,10.9-10.9,10.9s-10.9-4.9-10.9-10.9
		C1231.8,703.1,1236.7,698.2,1242.8,698.2z"/>
	<path class="st14" d="M1299.4,730.5c6,0,10.9,4.9,10.9,10.9s-4.9,10.9-10.9,10.9s-10.9-4.9-10.9-10.9S1293.3,730.5,1299.4,730.5z"
		/>
	<path class="st14" d="M1293.3,672.5c6,0,10.9,4.9,10.9,10.9s-4.9,10.9-10.9,10.9s-10.9-4.9-10.9-10.9S1287.3,672.5,1293.3,672.5z"
		/>
	<path class="st14" d="M1341.3,649.5c6,0,10.9,4.9,10.9,10.9s-4.9,10.9-10.9,10.9s-10.9-4.9-10.9-10.9S1335.3,649.5,1341.3,649.5z"
		/>
	<circle class="st14" cx="1358.1" cy="714.6" r="10.9"/>
	<circle class="st14" cx="1348.8" cy="776.6" r="10.9"/>
	<path class="st14" d="M1293.2,792.1c6,0,10.9,4.9,10.9,10.9s-4.9,10.9-10.9,10.9s-10.9-4.9-10.9-10.9S1287.2,792.1,1293.2,792.1z"
		/>
	<path class="st14" d="M1236.6,819.4c6,0,10.9,4.9,10.9,10.9s-4.9,10.9-10.9,10.9s-10.9-4.9-10.9-10.9
		C1225.7,824.3,1230.6,819.4,1236.6,819.4z"/>
	<path class="st14" d="M1287.7,852.7c6,0,10.9,4.9,10.9,10.9s-4.9,10.9-10.9,10.9s-10.9-4.9-10.9-10.9
		C1276.8,857.6,1281.7,852.7,1287.7,852.7z"/>
	<path class="st14" d="M1284.4,912.6c6,0,10.9,4.9,10.9,10.9s-4.9,10.9-10.9,10.9s-10.9-4.9-10.9-10.9S1278.3,912.6,1284.4,912.6z"
		/>
	<circle class="st14" cx="1335" cy="954.8" r="10.9"/>
	<path class="st14" d="M1341.2,884c6,0,10.9,4.9,10.9,10.9s-4.9,10.9-10.9,10.9s-10.9-4.9-10.9-10.9
		C1330.3,888.9,1335.2,884,1341.2,884z"/>
	<path class="st14" d="M1392.6,916.7c6,0,10.9,4.9,10.9,10.9s-4.9,10.9-10.9,10.9s-10.9-4.9-10.9-10.9S1386.5,916.7,1392.6,916.7z"
		/>
	<circle class="st14" cx="1443.5" cy="956.9" r="10.9"/>
	<path class="st14" d="M1489.4,989.5c6,0,10.9,4.9,10.9,10.9s-4.9,10.9-10.9,10.9s-10.9-4.9-10.9-10.9
		C1478.4,994.4,1483.3,989.5,1489.4,989.5z"/>
	<path class="st14" d="M1541,1009.8c6,0,10.9,4.9,10.9,10.9c0,6-4.9,10.9-10.9,10.9s-10.9-4.9-10.9-10.9S1535,1009.8,1541,1009.8z"
		/>
	<circle class="st14" cx="1595.1" cy="1005.4" r="10.9"/>
	<path class="st14" d="M1609.4,936.2c6,0,10.9,4.9,10.9,10.9s-4.9,10.9-10.9,10.9s-10.9-4.9-10.9-10.9
		C1598.4,941.1,1603.3,936.2,1609.4,936.2z"/>
	<path class="st14" d="M1621.7,878.6c6,0,10.9,4.9,10.9,10.9s-4.9,10.9-10.9,10.9s-10.9-4.9-10.9-10.9
		C1610.8,883.5,1615.7,878.6,1621.7,878.6z"/>
	<circle class="st14" cx="1560.1" cy="909.2" r="10.9"/>
	<path class="st14" d="M1548.5,954.8c6,0,10.9,4.9,10.9,10.9s-4.9,10.9-10.9,10.9s-10.9-4.9-10.9-10.9S1542.4,954.8,1548.5,954.8z"
		/>
	<circle class="st14" cx="1499.9" cy="935.3" r="10.9"/>
	<path class="st14" d="M1567.1,841.7c6,0,10.9,4.9,10.9,10.9s-4.9,10.9-10.9,10.9s-10.9-4.9-10.9-10.9
		C1556.2,846.6,1561.1,841.7,1567.1,841.7z"/>
	<path class="st14" d="M1624.4,817.8c6,0,10.9,4.9,10.9,10.9s-4.9,10.9-10.9,10.9s-10.9-4.9-10.9-10.9
		C1613.4,822.7,1618.3,817.8,1624.4,817.8z"/>
	<path class="st14" d="M1631.9,756.8c5.9,0,10.6,4.8,10.6,10.6s-4.8,10.6-10.6,10.6c-5.9,0-10.6-4.8-10.6-10.6
		S1626,756.8,1631.9,756.8z"/>
	<path class="st14" d="M1616,693.4c6,0,10.9,4.9,10.9,10.9s-4.9,10.9-10.9,10.9s-10.9-4.9-10.9-10.9
		C1605.1,698.3,1610,693.4,1616,693.4z"/>
	<path class="st14" d="M1603.3,638.9c6,0,10.9,4.9,10.9,10.9s-4.9,10.9-10.9,10.9s-10.9-4.9-10.9-10.9
		C1592.3,643.8,1597.2,638.9,1603.3,638.9z"/>
	<circle class="st14" cx="1554" cy="632" r="10.9"/>
	<path class="st14" d="M1548.8,679.8c6,0,10.9,4.9,10.9,10.9s-4.9,10.9-10.9,10.9s-10.9-4.9-10.9-10.9S1542.8,679.8,1548.8,679.8z"
		/>
	<path class="st14" d="M1520.5,742c6,0,10.9,4.9,10.9,10.9s-4.9,10.9-10.9,10.9s-10.9-4.9-10.9-10.9S1514.5,742,1520.5,742z"/>
	<path class="st14" d="M1576.4,730.2c6,0,10.9,4.9,10.9,10.9s-4.9,10.9-10.9,10.9s-10.9-4.9-10.9-10.9
		C1565.5,735.1,1570.4,730.2,1576.4,730.2z"/>
	<path class="st14" d="M1572.1,784.6c6,0,10.9,4.9,10.9,10.9s-4.9,10.9-10.9,10.9s-10.9-4.9-10.9-10.9S1566.1,784.6,1572.1,784.6z"
		/>
	<circle class="st14" cx="1513.1" cy="812.7" r="10.9"/>
	<circle class="st14" cx="1461.4" cy="769.5" r="10.9"/>
	<path class="st14" d="M1457.3,824.1c6,0,10.9,4.9,10.9,10.9s-4.9,10.9-10.9,10.9s-10.9-4.9-10.9-10.9S1451.3,824.1,1457.3,824.1z"
		/>
	<path class="st14" d="M1508.4,862.9c6,0,10.9,4.9,10.9,10.9s-4.9,10.9-10.9,10.9s-10.9-4.9-10.9-10.9
		C1497.4,867.8,1502.3,862.9,1508.4,862.9z"/>
	<path class="st14" d="M1451,886c6,0,10.9,4.9,10.9,10.9s-4.9,10.9-10.9,10.9s-10.9-4.9-10.9-10.9C1440,890.9,1444.9,886,1451,886z"
		/>
	<circle class="st14" cx="1399.3" cy="867.9" r="10.9"/>
	<path class="st14" d="M1346,824.9c6,0,10.9,4.9,10.9,10.9s-4.9,10.9-10.9,10.9s-10.9-4.9-10.9-10.9
		C1335,829.8,1339.9,824.9,1346,824.9z"/>
	<path class="st14" d="M1404.2,798.9c6,0,10.9,4.9,10.9,10.9s-4.9,10.9-10.9,10.9s-10.9-4.9-10.9-10.9S1398.2,798.9,1404.2,798.9z"
		/>
	<path class="st14" d="M1402.9,743.3c6,0,10.9,4.9,10.9,10.9s-4.9,10.9-10.9,10.9s-10.9-4.9-10.9-10.9S1396.9,743.3,1402.9,743.3z"
		/>
	<path class="st14" d="M1428.7,696.9c6,0,10.9,4.9,10.9,10.9s-4.9,10.9-10.9,10.9s-10.9-4.9-10.9-10.9
		C1417.8,701.7,1422.7,696.9,1428.7,696.9z"/>
	<path class="st14" d="M1486.7,694c6,0,10.9,4.9,10.9,10.9s-4.9,10.9-10.9,10.9s-10.9-4.9-10.9-10.9
		C1475.8,698.9,1480.7,694,1486.7,694z"/>
	<path class="st14" d="M1503,633.1c6,0,10.9,4.9,10.9,10.9s-4.9,11-10.9,11s-10.9-4.9-10.9-10.9S1496.9,633.1,1503,633.1z"/>
	<path class="st14" d="M1449.7,638.6c6,0,10.9,4.9,10.9,10.9s-4.9,10.9-10.9,10.9s-10.9-4.9-10.9-10.9
		C1438.8,643.5,1443.7,638.6,1449.7,638.6z"/>
	<path class="st14" d="M1394.8,648.2c6,0,10.9,4.9,10.9,10.9s-4.9,10.9-10.9,10.9s-10.9-4.9-10.9-10.9
		C1383.9,653.1,1388.8,648.2,1394.8,648.2z"/>
	<circle class="st14" cx="1299.2" cy="621.7" r="10.9"/>
	<path class="st14" d="M1357.5,593.6c6,0,10.9,4.9,10.9,10.9s-4.9,10.9-10.9,10.9s-10.9-4.9-10.9-10.9S1351.5,593.6,1357.5,593.6z"
		/>
	<path class="st14" d="M1375.1,535.5c6,0,10.9,4.9,10.9,10.9s-4.9,10.9-10.9,10.9s-10.9-4.9-10.9-10.9S1369.1,535.5,1375.1,535.5z"
		/>
	<path class="st14" d="M1414.1,586.6c6,0,10.9,4.9,10.9,10.9s-4.9,10.9-10.9,10.9s-10.9-4.9-10.9-10.9S1408.1,586.6,1414.1,586.6z"
		/>
	<path class="st14" d="M1470.8,578c6,0,10.9,4.9,10.9,10.9s-4.9,10.9-10.9,10.9s-10.9-4.9-10.9-10.9
		C1459.8,582.9,1464.7,578,1470.8,578z"/>
	<path class="st14" d="M1526.8,569.5c6,0,10.9,4.9,10.9,10.9s-4.9,10.9-10.9,10.9s-10.9-4.9-10.9-10.9S1520.8,569.5,1526.8,569.5z"
		/>
	<path class="st14" d="M1588,576.1c5.9,0,10.8,4.8,10.8,10.8s-4.8,10.8-10.8,10.8c-5.9,0-10.8-4.8-10.8-10.8S1582,576.1,1588,576.1z
		"/>
	<path class="st14" d="M1559.9,518.6c6,0,10.9,4.9,10.9,10.9s-4.9,10.9-10.9,10.9s-10.9-4.9-10.9-10.9S1553.9,518.6,1559.9,518.6z"
		/>
	<path class="st14" d="M1493.8,518.3c6,0,10.9,4.9,10.9,10.9s-4.9,10.9-10.9,10.9s-10.9-4.9-10.9-10.9S1487.8,518.3,1493.8,518.3z"
		/>
	<path class="st14" d="M1434,526.2c6,0,10.9,4.9,10.9,10.9S1440,548,1434,548s-10.9-4.9-10.9-10.9S1427.9,526.2,1434,526.2z"/>
	<path class="st14" d="M1392.6,476.3c6,0,10.9,4.9,10.9,10.9s-4.9,10.9-10.9,10.9s-10.9-4.9-10.9-10.9S1386.6,476.3,1392.6,476.3z"
		/>
	<path class="st14" d="M1409.2,417.3c6,0,10.9,4.9,10.9,10.9s-4.9,10.9-10.9,10.9s-10.9-4.9-10.9-10.9S1403.2,417.3,1409.2,417.3z"
		/>
	<path class="st14" d="M1453.4,467.4c6,0,10.9,4.9,10.9,10.9s-4.9,10.9-10.9,10.9s-10.9-4.9-10.9-10.9S1447.4,467.4,1453.4,467.4z"
		/>
	<path class="st14" d="M1488.5,424.3c6,0,10.9,4.9,10.9,10.9s-4.9,10.9-10.9,10.9s-10.9-4.9-10.9-10.9
		C1477.6,429.2,1482.5,424.3,1488.5,424.3z"/>
	<path class="st14" d="M1524.1,469.4c6,0,10.9,4.9,10.9,10.9s-4.9,10.9-10.9,10.9s-10.9-4.9-10.9-10.9S1518.1,469.4,1524.1,469.4z"
		/>
	<path class="st14" d="M1453.9,382.8c6,0,10.9,4.9,10.9,10.9s-4.9,10.9-10.9,10.9s-10.9-4.9-10.9-10.9
		C1442.9,387.7,1447.8,382.8,1453.9,382.8z"/>
	<path class="st14" d="M1412.2,344.8c6,0,10.9,4.9,10.9,10.9s-4.9,10.9-10.9,10.9s-10.9-4.9-10.9-10.9
		C1401.2,349.7,1406.1,344.8,1412.2,344.8z"/>
	<path class="st14" d="M1365,309.1c6,0,10.9,4.9,10.9,10.9s-4.9,10.9-10.9,10.9s-10.9-4.9-10.9-10.9S1358.9,309.1,1365,309.1z"/>
	<circle class="st14" cx="1316.5" cy="278.6" r="10.5"/>
	<path class="st14" d="M1310,333.3c6,0,10.9,4.9,10.9,10.9s-4.9,10.9-10.9,10.9s-10.9-4.9-10.9-10.9
		C1299.1,338.2,1304,333.3,1310,333.3z"/>
	<path class="st14" d="M1298.1,390.6c6,0,10.9,4.9,10.9,10.9s-4.9,10.9-10.9,10.9s-10.9-4.9-10.9-10.9
		C1287.1,395.5,1292,390.6,1298.1,390.6z"/>
	<path class="st14" d="M1359.8,373.5c6,0,10.9,4.9,10.9,10.9s-4.9,10.9-10.9,10.9s-10.9-4.9-10.9-10.9S1353.8,373.5,1359.8,373.5z"
		/>
	<path class="st14" d="M1346.2,432.2c6,0,10.9,4.9,10.9,10.9s-4.9,10.9-10.9,10.9s-10.9-4.9-10.9-10.9
		C1335.3,437.1,1340.2,432.2,1346.2,432.2z"/>
	<path class="st14" d="M1331.8,490.7c6,0,10.9,4.9,10.9,10.9s-4.9,10.9-10.9,10.9s-10.9-4.9-10.9-10.9S1325.8,490.7,1331.8,490.7z"
		/>
	<path class="st14" d="M1315,550.1c6,0,10.9,4.9,10.9,10.9s-4.9,11-10.9,11s-10.9-4.9-10.9-10.9S1308.9,550.1,1315,550.1z"/>
	<circle class="st14" cx="1272.2" cy="519.4" r="10.9"/>
	<path class="st14" d="M1283.3,450.4c6,0,10.9,4.9,10.9,10.9s-4.9,10.9-10.9,10.9s-10.9-4.9-10.9-10.9S1277.3,450.4,1283.3,450.4z"
		/>
	<path class="st14" d="M1219.3,473.7c6,0,10.9,4.9,10.9,10.9s-4.9,10.9-10.9,10.9s-10.9-4.9-10.9-10.9S1213.3,473.7,1219.3,473.7z"
		/>
	<path class="st14" d="M1186.3,425.8c6,0,10.9,4.9,10.9,10.9s-4.9,10.9-10.9,10.9s-10.9-4.9-10.9-10.9
		C1175.4,430.7,1180.3,425.8,1186.3,425.8z"/>
	<path class="st14" d="M1239.7,409.2c6,0,10.9,4.9,10.9,10.9s-4.9,10.9-10.9,10.9s-10.9-4.9-10.9-10.9
		C1228.8,414.1,1233.7,409.2,1239.7,409.2z"/>
	<path class="st14" d="M1244.5,349.4c6,0,10.9,4.9,10.9,10.9s-4.9,10.9-10.9,10.9s-10.9-4.9-10.9-10.9S1238.5,349.4,1244.5,349.4z"
		/>
	<path class="st14" d="M1264.8,295.1c6,0,10.9,4.9,10.9,10.9s-4.9,10.9-10.9,10.9s-10.9-4.9-10.9-10.9S1258.8,295.1,1264.8,295.1z"
		/>
	<circle class="st14" cx="1250.5" cy="250.7" r="10.3"/>
	<path class="st14" d="M1190.3,229.4c6,0,10.9,4.9,10.9,10.9s-4.9,10.9-10.9,10.9s-10.9-4.9-10.9-10.9S1184.3,229.4,1190.3,229.4z"
		/>
	<path class="st14" d="M1205.2,294.2c6,0,10.9,4.9,10.9,10.9s-4.9,10.9-10.9,10.9s-10.9-4.9-10.9-10.9
		C1194.2,299.1,1199.1,294.2,1205.2,294.2z"/>
	<path class="st14" d="M1185.2,367c6,0,10.9,4.9,10.9,10.9s-4.9,10.9-10.9,10.9s-10.9-4.9-10.9-10.9
		C1174.3,371.9,1179.2,367,1185.2,367z"/>
	<path class="st14" d="M1152.7,323.5c6,0,10.9,4.9,10.9,10.9s-4.9,10.9-10.9,10.9s-10.9-4.9-10.9-10.9
		C1141.8,328.4,1146.7,323.5,1152.7,323.5z"/>
	<path class="st14" d="M1110.7,363.4c6,0,10.9,4.9,10.9,10.9s-4.9,10.9-10.9,10.9s-10.9-4.9-10.9-10.9S1104.6,363.4,1110.7,363.4z"
		/>
	<path class="st14" d="M1131.1,413c6,0,10.9,4.9,10.9,10.9s-4.9,10.9-10.9,10.9s-10.9-4.9-10.9-10.9S1125,413,1131.1,413z"/>
	<path class="st14" d="M1151,471.5c6,0,10.9,4.9,10.9,10.9s-4.9,10.9-10.9,10.9s-10.9-4.9-10.9-10.9S1144.9,471.5,1151,471.5z"/>
	<path class="st14" d="M1168.2,525.7c6,0,10.9,4.9,10.9,10.9s-4.9,10.9-10.9,10.9s-10.9-4.9-10.9-10.9
		C1157.3,530.6,1162.2,525.7,1168.2,525.7z"/>
	<path class="st14" d="M1220,533.4c6,0,10.9,4.9,10.9,10.9s-4.9,10.9-10.9,10.9s-10.9-4.9-10.9-10.9S1213.9,533.4,1220,533.4z"/>
	<path class="st14" d="M1257.4,573.1c6,0,10.9,4.9,10.9,10.9s-4.9,10.9-10.9,10.9s-10.9-4.9-10.9-10.9S1251.3,573.1,1257.4,573.1z"
		/>
	<path class="st14" d="M1242.4,633.9c6,0,10.9,4.9,10.9,10.9s-4.9,10.9-10.9,10.9s-10.9-4.9-10.9-10.9
		C1231.5,638.8,1236.4,633.9,1242.4,633.9z"/>
	<path class="st14" d="M1195.7,589.9c6,0,10.9,4.9,10.9,10.9s-4.9,10.9-10.9,10.9s-10.9-4.9-10.9-10.9
		C1184.8,594.8,1189.7,589.9,1195.7,589.9z"/>
	<path class="st14" d="M1131.8,571.1c6,0,10.9,4.9,10.9,10.9s-4.9,10.9-10.9,10.9s-10.9-4.9-10.9-10.9S1125.8,571.1,1131.8,571.1z"
		/>
	<circle class="st14" cx="1148.9" cy="635.9" r="10.9"/>
	<path class="st14" d="M1190.7,660.9c6,0,10.9,4.9,10.9,10.9s-4.9,10.9-10.9,10.9s-10.9-4.9-10.9-10.9S1184.6,660.9,1190.7,660.9z"
		/>
	<path class="st14" d="M1188.5,719.1c6,0,10.9,4.9,10.9,10.9s-4.9,10.9-10.9,10.9s-10.9-4.9-10.9-10.9
		C1177.5,724,1182.4,719.1,1188.5,719.1z"/>
	<path class="st14" d="M1126.2,679.7c6,0,10.9,4.9,10.9,10.9s-4.9,10.9-10.9,10.9s-10.9-4.9-10.9-10.9
		C1115.3,684.6,1120.2,679.7,1126.2,679.7z"/>
	<path class="st14" d="M1076.7,715.3c6,0,10.9,4.9,10.9,10.9s-4.9,10.9-10.9,10.9s-10.9-4.9-10.9-10.9
		C1065.8,720.2,1070.7,715.3,1076.7,715.3z"/>
	<path class="st14" d="M1053.1,665.1c6,0,10.9,4.9,10.9,10.9s-4.9,10.9-10.9,10.9s-10.9-4.9-10.9-10.9S1047,665.1,1053.1,665.1z"/>
	<path class="st14" d="M1091.2,622c6,0,10.9,4.9,10.9,10.9s-4.9,10.9-10.9,10.9s-10.9-4.9-10.9-10.9
		C1080.3,626.9,1085.2,622,1091.2,622z"/>
	<path class="st14" d="M1028,610.1c6,0,10.9,4.9,10.9,10.9s-4.9,10.9-10.9,10.9s-10.9-4.9-10.9-10.9S1022,610.1,1028,610.1z"/>
	<path class="st14" d="M965,606.3c6,0,10.9,4.9,10.9,10.9s-4.9,10.9-10.9,10.9s-10.9-4.9-10.9-10.9S959,606.3,965,606.3z"/>
	<path class="st14" d="M956.4,555.1c6,0,10.9,4.9,10.9,10.9s-4.9,10.9-10.9,10.9s-10.9-4.9-10.9-10.9S950.4,555.1,956.4,555.1z"/>
	<path class="st14" d="M920.9,521.6c6,0,10.9,4.9,10.9,10.9s-4.9,10.9-10.9,10.9s-10.9-4.9-10.9-10.9S914.9,521.6,920.9,521.6z"/>
	<path class="st14" d="M977.8,494.7c6,0,10.9,4.9,10.9,10.9s-4.9,10.9-10.9,10.9s-10.9-4.9-10.9-10.9
		C966.9,499.6,971.8,494.7,977.8,494.7z"/>
	<path class="st14" d="M957.8,435.2c6,0,10.9,4.9,10.9,10.9s-4.9,10.9-10.9,10.9s-10.9-4.9-10.9-10.9S951.7,435.2,957.8,435.2z"/>
	<path class="st14" d="M938.1,376.8c6,0,10.9,4.9,10.9,10.9s-4.9,10.9-10.9,10.9s-10.9-4.9-10.9-10.9
		C927.1,381.7,932,376.8,938.1,376.8z"/>
	<path class="st14" d="M891.1,412.7c6,0,10.9,4.9,10.9,10.9s-4.9,10.9-10.9,10.9s-10.9-4.9-10.9-10.9S885,412.7,891.1,412.7z"/>
	<path class="st14" d="M909.8,469c6,0,10.9,4.9,10.9,10.9s-4.9,10.9-10.9,10.9s-10.9-4.9-10.9-10.9C898.8,473.9,903.7,469,909.8,469
		z"/>
	<path class="st14" d="M848.2,460.7c6,0,10.9,4.9,10.9,10.9s-4.9,10.9-10.9,10.9s-10.9-4.9-10.9-10.9S842.2,460.7,848.2,460.7z"/>
	<path class="st14" d="M829.1,400c6,0,10.9,4.9,10.9,10.9s-4.9,10.9-10.9,10.9s-10.9-4.9-10.9-10.9C818.1,404.9,823,400,829.1,400z"
		/>
	<path class="st14" d="M766.8,391.9c6,0,10.9,4.9,10.9,10.9s-4.9,10.9-10.9,10.9s-10.9-4.9-10.9-10.9
		C755.9,396.8,760.8,391.9,766.8,391.9z"/>
	<path class="st14" d="M787.2,449.7c6,0,10.9,4.9,10.9,10.9s-4.9,10.9-10.9,10.9s-10.9-4.9-10.9-10.9
		C776.2,454.6,781.1,449.7,787.2,449.7z"/>
	<path class="st14" d="M746.2,496.6c6,0,10.9,4.9,10.9,10.9s-4.9,10.9-10.9,10.9s-10.9-4.9-10.9-10.9
		C735.3,501.5,740.2,496.6,746.2,496.6z"/>
	<path class="st14" d="M706.6,540.9c6,0,10.9,4.9,10.9,10.9s-4.9,10.9-10.9,10.9s-10.9-4.9-10.9-10.9
		C695.7,545.8,700.6,540.9,706.6,540.9z"/>
	<circle class="st14" cx="729.3" cy="610.2" r="10.9"/>
	<path class="st14" d="M795.1,620.8c6,0,10.9,4.9,10.9,10.9s-4.9,10.9-10.9,10.9s-10.9-4.9-10.9-10.9
		C784.1,625.7,789,620.8,795.1,620.8z"/>
	<path class="st14" d="M771.8,558c6,0,10.9,4.9,10.9,10.9s-4.9,10.9-10.9,10.9s-10.9-4.9-10.9-10.9S765.8,558,771.8,558z"/>
	<path class="st14" d="M807.6,510.2c6,0,10.9,4.9,10.9,10.9s-4.9,10.9-10.9,10.9s-10.9-4.9-10.9-10.9
		C796.7,515.1,801.6,510.2,807.6,510.2z"/>
	<circle class="st14" cx="866" cy="532.8" r="10.9"/>
	<path class="st14" d="M834.6,573.3c6,0,10.9,4.9,10.9,10.9s-4.9,10.9-10.9,10.9s-10.9-4.9-10.9-10.9
		C823.6,578.2,828.5,573.3,834.6,573.3z"/>
	<path class="st14" d="M898.7,583.8c6,0,10.9,4.9,10.9,10.9s-4.9,10.9-10.9,10.9s-10.9-4.9-10.9-10.9S892.6,583.8,898.7,583.8z"/>
	<path class="st14" d="M857.7,634.6c6,0,10.9,4.9,10.9,10.9s-4.9,10.9-10.9,10.9s-10.9-4.9-10.9-10.9
		C846.7,639.5,851.6,634.6,857.7,634.6z"/>
	<path class="st14" d="M815.9,684.6c6,0,10.9,4.9,10.9,10.9s-4.9,10.9-10.9,10.9s-10.9-4.9-10.9-10.9
		C804.9,689.5,809.8,684.6,815.9,684.6z"/>
	<circle class="st14" cx="758.8" cy="719.1" r="10.9"/>
	<path class="st14" d="M747.6,655.8c6,0,10.9,4.9,10.9,10.9s-4.9,10.9-10.9,10.9s-10.9-4.9-10.9-10.9
		C736.7,660.7,741.6,655.8,747.6,655.8z"/>
	<path class="st14" d="M697.5,702.4c6,0,10.9,4.9,10.9,10.9s-4.9,10.9-10.9,10.9s-10.9-4.9-10.9-10.9S691.5,702.4,697.5,702.4z"/>
	<path class="st14" d="M684.3,644.7c6,0,10.9,4.9,10.9,10.9s-4.9,10.9-10.9,10.9s-10.9-4.9-10.9-10.9
		C673.4,649.6,678.3,644.7,684.3,644.7z"/>
	<path class="st14" d="M665.8,586.6c6,0,10.9,4.9,10.9,10.9s-4.9,10.9-10.9,10.9s-10.9-4.9-10.9-10.9
		C654.9,591.5,659.8,586.6,665.8,586.6z"/>
	<path class="st14" d="M604.6,574c6,0,10.9,4.9,10.9,10.9s-4.9,10.9-10.9,10.9s-10.9-4.9-10.9-10.9S598.5,574,604.6,574z"/>
	<path class="st14" d="M642.7,526.9c6,0,10.9,4.9,10.9,10.9s-4.9,10.9-10.9,10.9s-10.9-4.9-10.9-10.9
		C631.8,531.8,636.7,526.9,642.7,526.9z"/>
	<path class="st14" d="M681.8,481.2c6,0,10.9,4.9,10.9,10.9s-4.9,10.9-10.9,10.9s-10.9-4.9-10.9-10.9S675.8,481.2,681.8,481.2z"/>
	<path class="st14" d="M723.5,437.4c6,0,10.9,4.9,10.9,10.9s-4.9,10.9-10.9,10.9s-10.9-4.9-10.9-10.9S717.5,437.4,723.5,437.4z"/>
	<circle class="st14" cx="700.1" cy="392.3" r="10.9"/>
	<path class="st14" d="M656,423.1c6,0,10.9,4.9,10.9,10.9s-4.9,10.9-10.9,10.9s-10.9-4.9-10.9-10.9S650,423.1,656,423.1z"/>
	<path class="st14" d="M616.1,468.8c6,0,10.9,4.9,10.9,10.9s-4.9,10.9-10.9,10.9s-10.9-4.9-10.9-10.9S610.1,468.8,616.1,468.8z"/>
	<path class="st14" d="M578.1,515.5c6,0,10.9,4.9,10.9,10.9s-4.9,10.9-10.9,10.9s-10.9-4.9-10.9-10.9
		C567.2,520.4,572.1,515.5,578.1,515.5z"/>
	<path class="st14" d="M558.4,617.9c6,0,10.9,4.9,10.9,10.9s-4.9,10.9-10.9,10.9s-10.9-4.9-10.9-10.9S552.4,617.9,558.4,617.9z"/>
	<path class="st14" d="M508.8,649.3c6,0,10.9,4.9,10.9,10.9s-4.9,10.9-10.9,10.9s-10.9-4.9-10.9-10.9
		C497.9,654.2,502.7,649.3,508.8,649.3z"/>
	<path class="st14" d="M529,714.2c6,0,10.9,4.9,10.9,10.9S535.1,736,529,736s-10.9-4.9-10.9-10.9S523,714.2,529,714.2z"/>
	<circle class="st14" cx="494" cy="772.8" r="10.9"/>
	<path class="st14" d="M440.7,743c5.8,0,10.5,4.7,10.5,10.5s-4.7,10.5-10.5,10.5s-10.5-4.7-10.5-10.5S434.9,743,440.7,743z"/>
	<circle class="st14" cx="465.8" cy="702.5" r="10.9"/>
	<circle class="st14" cx="443.4" cy="640.6" r="4.7"/>
	<path class="st14" d="M491.6,585.3c6,0,10.9,4.9,10.9,10.9s-4.9,10.9-10.9,10.9s-10.9-4.9-10.9-10.9S485.5,585.3,491.6,585.3z"/>
	<circle class="st14" cx="543.8" cy="573.3" r="10.9"/>
	
		<ellipse transform="matrix(0.9239 -0.3827 0.3827 0.9239 -162.9055 234.4194)" class="st14" cx="507.8" cy="526.7" rx="10.1" ry="10.1"/>
	<path class="st14" d="M548.5,462.3c5.9,0,10.7,4.8,10.7,10.7c0,5.9-4.8,10.7-10.7,10.7s-10.7-4.8-10.7-10.7
		C537.8,467.1,542.6,462.3,548.5,462.3z"/>
	<path class="st14" d="M588.8,412.2c6,0,10.9,4.9,10.9,10.9s-4.9,10.9-10.9,10.9s-10.9-4.9-10.9-10.9S582.8,412.2,588.8,412.2z"/>
	<circle class="st14" cx="631.4" cy="376.2" r="10.9"/>
	<path class="st14" d="M679.8,327c6,0,10.9,4.9,10.9,10.9s-4.9,10.9-10.9,10.9s-10.9-4.9-10.9-10.9C668.9,331.9,673.8,327,679.8,327
		z"/>
	<circle class="st14" cx="745.6" cy="348.6" r="10.9"/>
	<path class="st14" d="M725.2,286.1c5.3,0,9.5,4.3,9.5,9.5c0,5.3-4.3,9.5-9.5,9.5s-9.5-4.3-9.5-9.5S720,286.1,725.2,286.1z"/>
	<circle class="st14" cx="781.5" cy="291.6" r="10.9"/>
	<path class="st14" d="M815.9,239.6c5.3,0,9.6,4.3,9.6,9.6s-4.3,9.6-9.6,9.6s-9.6-4.3-9.6-9.6S810.6,239.6,815.9,239.6z"/>
	<path class="st14" d="M873.7,226.8c6,0,10.9,4.9,10.9,10.9s-4.9,10.9-10.9,10.9s-10.9-4.9-10.9-10.9S867.6,226.8,873.7,226.8z"/>
	<path class="st14" d="M850.4,292.4c6,0,10.9,4.9,10.9,10.9s-4.9,10.9-10.9,10.9s-10.9-4.9-10.9-10.9S844.4,292.4,850.4,292.4z"/>
	<path class="st14" d="M808.4,339.7c6,0,10.9,4.9,10.9,10.9s-4.9,10.9-10.9,10.9s-10.9-4.9-10.9-10.9S802.4,339.7,808.4,339.7z"/>
	<path class="st14" d="M871.9,352.6c6,0,10.9,4.9,10.9,10.9s-4.9,10.9-10.9,10.9s-10.9-4.9-10.9-10.9S865.9,352.6,871.9,352.6z"/>
	<circle class="st14" cx="922.6" cy="331.3" r="10.9"/>
	<path class="st14" d="M907.2,270.3c6,0,10.9,4.9,10.9,10.9s-4.9,10.9-10.9,10.9s-10.9-4.9-10.9-10.9S901.1,270.3,907.2,270.3z"/>
	<path class="st14" d="M934.6,216.7c6,0,10.9,4.9,10.9,10.9s-4.9,10.9-10.9,10.9s-10.9-4.9-10.9-10.9
		C923.7,221.6,928.6,216.7,934.6,216.7z"/>
	<circle class="st14" cx="969.8" cy="280.2" r="10.9"/>
	<path class="st14" d="M983.1,331.9c6,0,10.9,4.9,10.9,10.9s-4.9,10.9-10.9,10.9s-10.9-4.9-10.9-10.9
		C972.2,336.8,977.1,331.9,983.1,331.9z"/>
	<path class="st14" d="M1000.6,391.2c6,0,10.9,4.9,10.9,10.9s-4.9,10.9-10.9,10.9s-10.9-4.9-10.9-10.9
		C989.6,396.1,994.5,391.2,1000.6,391.2z"/>
	<path class="st14" d="M1021.3,448.7c6,0,10.9,4.9,10.9,10.9s-4.9,10.9-10.9,10.9s-10.9-4.9-10.9-10.9
		C1010.3,453.6,1015.2,448.7,1021.3,448.7z"/>
	<path class="st14" d="M1044.3,504.1c6,0,10.9,4.9,10.9,10.9s-4.9,10.9-10.9,10.9s-10.9-4.9-10.9-10.9S1038.3,504.1,1044.3,504.1z"
		/>
	<path class="st14" d="M1010.9,552.6c6,0,10.9,4.9,10.9,10.9s-4.9,10.9-10.9,10.9s-10.9-4.9-10.9-10.9S1004.9,552.6,1010.9,552.6z"
		/>
	<circle class="st14" cx="1070.6" cy="574.6" r="10.9"/>
	<path class="st14" d="M1106.6,514.9c6,0,10.9,4.9,10.9,10.9s-4.9,10.9-10.9,10.9s-10.9-4.9-10.9-10.9S1100.5,514.9,1106.6,514.9z"
		/>
	<path class="st14" d="M1087.7,458.6c6,0,10.9,4.9,10.9,10.9s-4.9,10.9-10.9,10.9s-10.9-4.9-10.9-10.9
		C1076.8,463.5,1081.6,458.6,1087.7,458.6z"/>
	<path class="st14" d="M1065.1,405.6c6,0,10.9,4.9,10.9,10.9s-4.9,10.9-10.9,10.9s-10.9-4.9-10.9-10.9S1059.1,405.6,1065.1,405.6z"
		/>
	<path class="st14" d="M1046.6,351.1c6,0,10.9,4.9,10.9,10.9s-4.9,10.9-10.9,10.9s-10.9-4.9-10.9-10.9S1040.6,351.1,1046.6,351.1z"
		/>
	<path class="st14" d="M1031.6,295.7c6,0,10.9,4.9,10.9,10.9s-4.9,10.9-10.9,10.9s-10.9-4.9-10.9-10.9S1025.6,295.7,1031.6,295.7z"
		/>
	<circle class="st14" cx="1092.7" cy="319.5" r="10.9"/>
	<path class="st14" d="M1083.8,253.3c6,0,10.9,4.9,10.9,10.9s-4.9,10.9-10.9,10.9s-10.9-4.9-10.9-10.9S1077.8,253.3,1083.8,253.3z"
		/>
	<circle class="st14" cx="1144.6" cy="278.9" r="10.9"/>
	<path class="st14" d="M1129.2,210.4c5.9,0,10.6,4.7,10.6,10.6c0,5.9-4.7,10.6-10.6,10.6s-10.6-4.7-10.6-10.6
		C1118.6,215.1,1123.3,210.4,1129.2,210.4z"/>
	<circle class="st14" cx="1063.7" cy="210.7" r="10.6"/>
	<path class="st14" d="M1023.9,242.3c6,0,10.9,4.9,10.9,10.9c0,6-4.9,10.9-10.9,10.9s-10.9-4.9-10.9-10.9
		C1012.9,247.2,1017.8,242.3,1023.9,242.3z"/>
	<path class="st14" d="M991.7,200.5c5.8,0,10.5,4.7,10.5,10.5s-4.7,10.5-10.5,10.5s-10.5-4.7-10.5-10.5
		C981.1,205.2,985.8,200.5,991.7,200.5z"/>
</g>
<g>
	<path class="st15" d="M579.4,532.5c-81.7,0-148.1-66.4-148.1-148.1c0-81.7,66.4-148.1,148.1-148.1c81.7,0,148.1,66.4,148.1,148.1
		C727.5,466.1,661.1,532.5,579.4,532.5z M579.4,304.3c-44.2,0-80.1,35.9-80.1,80.1c0,44.2,35.9,80.1,80.1,80.1
		c44.2,0,80.1-35.9,80.1-80.1C659.5,340.2,623.6,304.3,579.4,304.3z"/>
</g>
<g id="Ellipse_8">
	<circle class="st15" cx="2905.8" cy="340.6" r="159.3"/>
	<circle class="st15" cx="2905.8" cy="340.6" r="157.9"/>
</g>
<g id="Ellipse_7" transform="translate(58)">
	<ellipse class="st16" cx="3009.8" cy="340.6" rx="160.7" ry="159.3"/>
	<ellipse class="st16" cx="3009.8" cy="340.6" rx="159.3" ry="157.9"/>
</g>
<g id="Ellipse_6" transform="translate(116)">
	<ellipse class="st0" cx="3112.5" cy="340.6" rx="160.7" ry="159.3"/>
	<ellipse class="st0" cx="3112.5" cy="340.6" rx="159.3" ry="157.9"/>
</g>
<g id="Ellipse_5" transform="translate(174)">
	<ellipse class="st17" cx="3215.2" cy="340.6" rx="160.7" ry="159.3"/>
	<ellipse class="st17" cx="3215.2" cy="340.6" rx="159.3" ry="157.9"/>
</g>
<g id="Ellipse_9" transform="translate(233)">
	<circle class="st14" cx="3318.3" cy="340.6" r="159.3"/>
	<circle class="st14" cx="3318.3" cy="340.6" r="157.9"/>
</g>
<g id="Ellipse_8_1_">
	<circle class="st18" cx="2906.8" cy="1077.6" r="159.3"/>
	<circle class="st18" cx="2906.8" cy="1077.6" r="157.9"/>
</g>
<g id="Ellipse_7_1_" transform="translate(58)">
	<ellipse class="st19" cx="3010.8" cy="1077.6" rx="160.7" ry="159.3"/>
	<ellipse class="st19" cx="3010.8" cy="1077.6" rx="159.3" ry="157.9"/>
</g>
<g id="Ellipse_6_1_" transform="translate(116)">
	<ellipse class="st20" cx="3113.5" cy="1077.6" rx="160.7" ry="159.3"/>
	<ellipse class="st20" cx="3113.5" cy="1077.6" rx="159.3" ry="157.9"/>
</g>
<g id="Ellipse_5_1_" transform="translate(174)">
	<ellipse class="st1" cx="3216.2" cy="1077.6" rx="160.7" ry="159.3"/>
	<ellipse class="st1" cx="3216.2" cy="1077.6" rx="159.3" ry="157.9"/>
</g>
<g id="Ellipse_9_1_" transform="translate(233)">
	<circle class="st21" cx="3319.3" cy="1077.6" r="159.3"/>
	<circle class="st21" cx="3319.3" cy="1077.6" r="157.9"/>
</g>
</svg>
