<?xml version="1.0" encoding="utf-8"?>
<!-- Generator: Adobe Illustrator 24.1.0, SVG Export Plug-In . SVG Version: 6.00 Build 0)  -->
<svg version="1.1" id="Calque_1" xmlns="http://www.w3.org/2000/svg" xmlns:xlink="http://www.w3.org/1999/xlink" x="0px" y="0px"
	 viewBox="0 0 2390 2658" style="enable-background:new 0 0 2390 2658;" xml:space="preserve">
<style type="text/css">
	.st0{fill:#FCCC2E;}
	.st1{fill:#0F122E;}
	.st2{fill:none;stroke:#FCCC2E;stroke-width:5;stroke-miterlimit:10;}
	.st3{fill:none;stroke:#8339EC;stroke-width:2.25;stroke-miterlimit:10;}
	.st4{fill:none;stroke:#8339EC;stroke-width:4.0909;stroke-miterlimit:10;}
	.st5{fill:none;stroke:#8339EC;stroke-width:5.9318;stroke-miterlimit:10;}
	.st6{fill:none;stroke:#8339EC;stroke-width:7.7727;stroke-miterlimit:10;}
	.st7{fill:none;stroke:#8339EC;stroke-width:9.6136;stroke-miterlimit:10;}
	.st8{fill:none;stroke:#8339EC;stroke-width:11.4545;stroke-miterlimit:10;}
	.st9{fill:none;stroke:#8339EC;stroke-width:13.2955;stroke-miterlimit:10;}
	.st10{fill:none;stroke:#8339EC;stroke-width:15.1364;stroke-miterlimit:10;}
	.st11{fill:none;stroke:#8339EC;stroke-width:16.9773;stroke-miterlimit:10;}
	.st12{fill:none;stroke:#8339EC;stroke-width:18.8182;stroke-miterlimit:10;}
	.st13{fill:none;stroke:#8339EC;stroke-width:20.6591;stroke-miterlimit:10;}
	.st14{fill:none;stroke:#8339EC;stroke-width:22.5;stroke-miterlimit:10;}
	.st15{fill:#E6E4E2;}
	.st16{fill:#FF006E;}
	.st17{fill:#8339EC;}
	.st18{fill:none;stroke:#0F122E;stroke-width:5;stroke-miterlimit:10;}
	.st19{fill:none;stroke:#E6E4E2;stroke-width:5;stroke-miterlimit:10;}
	.st20{fill:none;stroke:#FF006E;stroke-width:5;stroke-miterlimit:10;}
	.st21{fill:none;stroke:#8339EC;stroke-width:5;stroke-miterlimit:10;}
</style>
<g>
	<path class="st0" d="M1092,1365.9c-131.1,0-237.8-106.7-237.8-237.8c0-131.1,106.7-237.7,237.8-237.7
		c131.1,0,237.7,106.7,237.7,237.7C1329.7,1259.2,1223,1365.9,1092,1365.9z M1092,999.6c-70.9,0-128.6,57.7-128.6,128.6
		c0,70.9,57.7,128.6,128.6,128.6c70.9,0,128.6-57.7,128.6-128.6C1220.5,1057.3,1162.8,999.6,1092,999.6z"/>
</g>
<g>
	<ellipse class="st1" cx="2019.1" cy="537.7" rx="124.1" ry="131.1"/>
</g>
<g>
	<circle class="st1" cx="512.4" cy="508.8" r="270.8"/>
</g>
<g>
	<circle class="st1" cx="466.5" cy="1924.1" r="208"/>
</g>
<g>
	<path class="st2" d="M144.2,2509.3c-0.3-325.8,263.5-590.3,589.4-590.6l0,0c325.8-0.3,590.3,263.5,590.6,589.4"/>
	<path class="st2" d="M187.1,2509.2c-0.3-302.1,244.4-547.3,546.5-547.7l0,0c302.1-0.3,547.3,244.4,547.7,546.5"/>
	<path class="st2" d="M230,2509.2c-0.3-278.4,225.2-504.4,503.7-504.7l0,0c278.4-0.3,504.4,225.2,504.7,503.7"/>
	<path class="st2" d="M273,2509.1c-0.3-254.8,206-461.5,460.8-461.7l0,0c254.8-0.3,461.5,206,461.7,460.8"/>
	<path class="st2" d="M315.9,2509.1c-0.2-231.1,186.9-418.6,417.9-418.8l0,0c231.1-0.2,418.6,186.9,418.8,417.9"/>
	<path class="st2" d="M358.8,2509c-0.2-207.4,167.7-375.6,375.1-375.8l0,0c207.4-0.2,375.6,167.7,375.8,375.1"/>
	<path class="st2" d="M401.7,2509c-0.2-183.7,148.5-332.7,332.2-332.9l0,0c183.7-0.2,332.7,148.5,332.9,332.2"/>
	<path class="st2" d="M444.6,2508.9c-0.2-160,129.4-289.8,289.3-289.9l0,0c160-0.2,289.8,129.4,289.9,289.3"/>
	<path class="st2" d="M487.5,2508.9c-0.1-136.3,110.2-246.8,246.5-247l0,0c136.3-0.1,246.8,110.2,247,246.5"/>
	<path class="st2" d="M530.4,2508.9c-0.1-112.6,91-203.9,203.6-204l0,0c112.6-0.1,203.9,91,204,203.6"/>
	<path class="st2" d="M573.3,2508.8c-0.1-88.9,71.9-161,160.7-161.1l0,0c88.9-0.1,161,71.9,161.1,160.7"/>
	<path class="st2" d="M616.2,2508.8c-0.1-65.2,52.7-118.1,117.9-118.1l0,0c65.2-0.1,118.1,52.7,118.1,117.9"/>
</g>
<g>
	<line class="st3" x1="266.4" y1="1176.6" x2="202.3" y2="1111.7"/>
	<line class="st4" x1="336.7" y1="1107.2" x2="272.6" y2="1042.2"/>
	<line class="st5" x1="407" y1="1037.7" x2="342.9" y2="972.8"/>
	<line class="st6" x1="477.3" y1="968.3" x2="413.2" y2="903.4"/>
	<line class="st7" x1="547.7" y1="898.9" x2="483.5" y2="833.9"/>
	<line class="st8" x1="618" y1="829.4" x2="553.8" y2="764.5"/>
	<line class="st9" x1="688.3" y1="760" x2="624.1" y2="695"/>
	<line class="st10" x1="758.6" y1="690.5" x2="694.5" y2="625.6"/>
	<line class="st11" x1="828.9" y1="621.1" x2="764.8" y2="556.1"/>
	<line class="st12" x1="899.2" y1="551.6" x2="835.1" y2="486.7"/>
	<line class="st13" x1="969.5" y1="482.2" x2="905.4" y2="417.3"/>
	<line class="st14" x1="975.7" y1="347.8" x2="1039.8" y2="412.8"/>
</g>
<g id="Ellipse_8">
	<circle class="st1" cx="3079.2" cy="395.6" r="159.3"/>
	<circle class="st1" cx="3079.2" cy="395.6" r="157.9"/>
</g>
<g id="Ellipse_7" transform="translate(58)">
	<ellipse class="st15" cx="3183.2" cy="395.6" rx="160.7" ry="159.3"/>
	<ellipse class="st15" cx="3183.2" cy="395.6" rx="159.3" ry="157.9"/>
</g>
<g id="Ellipse_6" transform="translate(116)">
	<ellipse class="st0" cx="3285.9" cy="395.6" rx="160.7" ry="159.3"/>
	<ellipse class="st0" cx="3285.9" cy="395.6" rx="159.3" ry="157.9"/>
</g>
<g id="Ellipse_5" transform="translate(174)">
	<ellipse class="st16" cx="3388.6" cy="395.6" rx="160.7" ry="159.3"/>
	<ellipse class="st16" cx="3388.6" cy="395.6" rx="159.3" ry="157.9"/>
</g>
<g id="Ellipse_9" transform="translate(233)">
	<circle class="st17" cx="3491.7" cy="395.6" r="159.3"/>
	<circle class="st17" cx="3491.7" cy="395.6" r="157.9"/>
</g>
<g id="Ellipse_8_1_">
	<circle class="st18" cx="3080.2" cy="1132.6" r="159.3"/>
	<circle class="st18" cx="3080.2" cy="1132.6" r="157.9"/>
</g>
<g id="Ellipse_7_1_" transform="translate(58)">
	<ellipse class="st19" cx="3184.2" cy="1132.6" rx="160.7" ry="159.3"/>
	<ellipse class="st19" cx="3184.2" cy="1132.6" rx="159.3" ry="157.9"/>
</g>
<g id="Ellipse_6_1_" transform="translate(116)">
	<ellipse class="st2" cx="3286.9" cy="1132.6" rx="160.7" ry="159.3"/>
	<ellipse class="st2" cx="3286.9" cy="1132.6" rx="159.3" ry="157.9"/>
</g>
<g id="Ellipse_5_1_" transform="translate(174)">
	<ellipse class="st20" cx="3389.6" cy="1132.6" rx="160.7" ry="159.3"/>
	<ellipse class="st20" cx="3389.6" cy="1132.6" rx="159.3" ry="157.9"/>
</g>
<g id="Ellipse_9_1_" transform="translate(233)">
	<circle class="st21" cx="3492.7" cy="1132.6" r="159.3"/>
	<circle class="st21" cx="3492.7" cy="1132.6" r="157.9"/>
</g>
<g>
	<circle class="st16" cx="1781.5" cy="1305.9" r="12"/>
	<path class="st16" d="M1730.7,1325c6.6,0,12,5.4,12,12s-5.4,12-12,12s-12-5.4-12-12C1718.7,1330.3,1724,1325,1730.7,1325z"/>
	<path class="st16" d="M1710.8,1381.9c6.6,0,12,5.4,12,12s-5.4,12-12,12s-12-5.4-12-12C1698.8,1387.2,1704.2,1381.9,1710.8,1381.9z"
		/>
	<path class="st16" d="M1669.4,1322.2c6.6,0,12,5.4,12,12s-5.4,12-12,12s-12-5.4-12-12S1662.7,1322.2,1669.4,1322.2z"/>
	<path class="st16" d="M1642.8,1263.8c6.6,0,12,5.4,12,12s-5.4,12-12,12s-12-5.4-12-12C1630.9,1269.2,1636.2,1263.8,1642.8,1263.8z"
		/>
	<path class="st16" d="M1617.1,1204.7c6.6,0,12,5.4,12,12s-5.4,12-12,12s-12-5.4-12-12C1605.2,1210,1610.5,1204.7,1617.1,1204.7z"/>
	<path class="st16" d="M1572.4,1254.6c6.6,0,12,5.4,12,12s-5.4,12-12,12s-12-5.4-12-12S1565.8,1254.6,1572.4,1254.6z"/>
	<circle class="st16" cx="1543.8" cy="1202.4" r="12"/>
	<path class="st16" d="M1502,1244.1c6.6,0,12,5.4,12,12s-5.4,12-12,12s-12-5.4-12-12C1490.1,1249.4,1495.4,1244.1,1502,1244.1z"/>
	<path class="st16" d="M1464.6,1297.7c6.6,0,12,5.4,12,12s-5.4,12-12,12s-12-5.4-12-12S1458,1297.7,1464.6,1297.7z"/>
	<path class="st16" d="M1429.9,1362.8c6.6,0,12,5.4,12,12s-5.4,12-12,12s-12-5.4-12-12C1418,1368.2,1423.3,1362.8,1429.9,1362.8z"/>
	<path class="st16" d="M1399.8,1306.9c6.6,0,12,5.4,12,12s-5.4,12-12,12s-12-5.4-12-12C1387.8,1312.2,1393.2,1306.9,1399.8,1306.9z"
		/>
	<path class="st16" d="M1325.9,1312.2c6.6,0,12,5.4,12,12s-5.4,12-12,12s-12-5.4-12-12S1319.3,1312.2,1325.9,1312.2z"/>
	<circle class="st16" cx="1360.6" cy="1377.9" r="12"/>
	<path class="st16" d="M1326.5,1425.2c6.6,0,12,5.4,12,12s-5.4,12-12,12s-12-5.4-12-12C1314.5,1430.5,1319.9,1425.2,1326.5,1425.2z"
		/>
	<path class="st16" d="M1392.9,1424.4c6.6,0,12,5.4,12,12s-5.4,12-12,12s-12-5.4-12-12S1386.3,1424.4,1392.9,1424.4z"/>
	<path class="st16" d="M1456.6,1421.6c6.6,0,12,5.4,12,12s-5.4,12-12,12s-12-5.4-12-12C1444.7,1426.9,1450,1421.6,1456.6,1421.6z"/>
	<path class="st16" d="M1518.8,1416c6.6,0,12,5.4,12,12s-5.4,12-12,12s-12-5.4-12-12S1512.2,1416,1518.8,1416z"/>
	<path class="st16" d="M1496.7,1358.9c6.6,0,12,5.4,12,12s-5.4,12-12,12s-12-5.4-12-12S1490.1,1358.9,1496.7,1358.9z"/>
	<path class="st16" d="M1536.1,1310.3c6.6,0,12,5.4,12,12s-5.4,12-12,12s-12-5.4-12-12C1524.1,1315.7,1529.5,1310.3,1536.1,1310.3z"
		/>
	<circle class="st16" cx="1602.1" cy="1332.3" r="12"/>
	<path class="st16" d="M1571.2,1380.6c6.6,0,12,5.4,12,12s-5.4,12-12,12s-12-5.4-12-12C1559.3,1386,1564.6,1380.6,1571.2,1380.6z"/>
	<path class="st16" d="M1559.2,1459.7c6.6,0,12,5.4,12,12s-5.4,12-12,12s-12-5.4-12-12S1552.6,1459.7,1559.2,1459.7z"/>
	<path class="st16" d="M1599.7,1510.2c6.6,0,12,5.4,12,12s-5.4,12-12,12s-12-5.4-12-12C1587.7,1515.5,1593.1,1510.2,1599.7,1510.2z"
		/>
	<path class="st16" d="M1663.5,1498.2c6.6,0,12,5.4,12,12s-5.4,12-12,12s-12-5.4-12-12C1651.5,1503.5,1656.9,1498.2,1663.5,1498.2z"
		/>
	<circle class="st16" cx="1618.8" cy="1452.8" r="12"/>
	<path class="st16" d="M1642.1,1381c6.6,0,12,5.4,12,12s-5.4,12-12,12s-12-5.4-12-12C1630.1,1386.3,1635.5,1381,1642.1,1381z"/>
	<path class="st16" d="M1687.8,1438.9c6.6,0,12,5.4,12,12s-5.4,12-12,12s-12-5.4-12-12S1681.2,1438.9,1687.8,1438.9z"/>
	<path class="st16" d="M1734.9,1487.7c6.6,0,12,5.4,12,12s-5.4,12-12,12s-12-5.4-12-12S1728.3,1487.7,1734.9,1487.7z"/>
	<circle class="st16" cx="1771.3" cy="1550.2" r="12"/>
	<path class="st16" d="M1704.2,1549.6c6.6,0,12,5.4,12,12s-5.4,12-12,12s-12-5.4-12-12C1692.3,1554.9,1697.6,1549.6,1704.2,1549.6z"
		/>
	<path class="st16" d="M1638.6,1565.7c6.6,0,12,5.4,12,12s-5.4,12-12,12s-12-5.4-12-12S1632,1565.7,1638.6,1565.7z"/>
	<path class="st16" d="M1576.6,1575.6c6.6,0,12,5.4,12,12s-5.4,12-12,12s-12-5.4-12-12C1564.6,1580.9,1570,1575.6,1576.6,1575.6z"/>
	<path class="st16" d="M1677.9,1614.7c6.6,0,12,5.4,12,12s-5.4,12-12,12s-12-5.4-12-12C1666,1620,1671.3,1614.7,1677.9,1614.7z"/>
	<path class="st16" d="M1614.5,1639c6.6,0,12,5.4,12,12s-5.4,12-12,12s-12-5.4-12-12S1607.9,1639,1614.5,1639z"/>
	<path class="st16" d="M1614.6,1713c6.6,0,12,5.4,12,12s-5.4,12-12,12s-12-5.4-12-12C1602.6,1718.3,1608,1713,1614.6,1713z"/>
	<path class="st16" d="M1677.7,1754.8c6.6,0,12,5.4,12,12s-5.4,12-12,12s-12-5.4-12-12C1665.8,1760.2,1671.1,1754.8,1677.7,1754.8z"
		/>
	<path class="st16" d="M1620.5,1778.2c6.6,0,12,5.4,12,12s-5.4,12-12,12s-12-5.4-12-12C1608.6,1783.6,1613.9,1778.2,1620.5,1778.2z"
		/>
	<path class="st16" d="M1557.3,1752.4c6.6,0,12,5.4,12,12s-5.4,12-12,12s-12-5.4-12-12S1550.7,1752.4,1557.3,1752.4z"/>
	<path class="st16" d="M1555,1687.8c6.6,0,12,5.4,12,12s-5.4,12-12,12s-12-5.4-12-12S1548.4,1687.8,1555,1687.8z"/>
	<path class="st16" d="M1496.8,1722.3c6.6,0,12,5.4,12,12s-5.4,12-12,12s-12-5.4-12-12S1490.2,1722.3,1496.8,1722.3z"/>
	<path class="st16" d="M1499.1,1789.8c6.6,0,12,5.4,12,12s-5.4,12-12,12s-12-5.4-12-12S1492.5,1789.8,1499.1,1789.8z"/>
	<path class="st16" d="M1437.4,1760.2c6.6,0,12,5.4,12,12s-5.4,12-12,12s-12-5.4-12-12C1425.5,1765.5,1430.8,1760.2,1437.4,1760.2z"
		/>
	<path class="st16" d="M1389.4,1800.7c6.6,0,12,5.4,12,12s-5.4,12-12,12s-12-5.4-12-12C1377.4,1806,1382.8,1800.7,1389.4,1800.7z"/>
	<path class="st16" d="M1347.5,1849.8c6.6,0,12,5.4,12,12s-5.4,12-12,12s-12-5.4-12-12S1340.9,1849.8,1347.5,1849.8z"/>
	<circle class="st16" cx="1329.1" cy="1787.9" r="12"/>
	<path class="st16" d="M1372.2,1725.3c6.6,0,12,5.4,12,12s-5.4,12-12,12s-12-5.4-12-12C1360.2,1730.6,1365.6,1725.3,1372.2,1725.3z"
		/>
	<path class="st16" d="M1437.1,1694.5c6.6,0,12,5.4,12,12s-5.4,12-12,12s-12-5.4-12-12S1430.5,1694.5,1437.1,1694.5z"/>
	<path class="st16" d="M1487.5,1654c6.6,0,12,5.4,12,12s-5.4,12-12,12s-12-5.4-12-12S1480.9,1654,1487.5,1654z"/>
	<circle class="st16" cx="1549.1" cy="1641.9" r="12"/>
	<path class="st16" d="M1533.2,1526.2c6.6,0,12,5.4,12,12s-5.4,12-12,12s-12-5.4-12-12S1526.6,1526.2,1533.2,1526.2z"/>
	<path class="st16" d="M1492.1,1477.8c6.6,0,12,5.4,12,12s-5.4,12-12,12s-12-5.4-12-12C1480.1,1483.2,1485.5,1477.8,1492.1,1477.8z"
		/>
	<path class="st16" d="M1426.1,1483.7c6.6,0,12,5.4,12,12s-5.4,12-12,12s-12-5.4-12-12S1419.5,1483.7,1426.1,1483.7z"/>
	<path class="st16" d="M1360.5,1486.2c6.6,0,12,5.4,12,12s-5.4,12-12,12s-12-5.4-12-12S1353.9,1486.2,1360.5,1486.2z"/>
	<path class="st16" d="M1292,1486c6.6,0,12,5.4,12,12s-5.4,12-12,12s-12-5.4-12-12S1285.4,1486,1292,1486z"/>
	<path class="st16" d="M1258.1,1424.9c6.6,0,12,5.4,12,12s-5.4,12-12,12s-12-5.4-12-12C1246.2,1430.2,1251.5,1424.9,1258.1,1424.9z"
		/>
	<path class="st16" d="M1286.1,1366.9c6.6,0,12,5.4,12,12s-5.4,12-12,12s-12-5.4-12-12C1274.2,1372.2,1279.5,1366.9,1286.1,1366.9z"
		/>
	<path class="st16" d="M1254.3,1307.4c6.6,0,12,5.4,12,12s-5.4,12-12,12s-12-5.4-12-12C1242.4,1312.7,1247.7,1307.4,1254.3,1307.4z"
		/>
	<circle class="st16" cx="1233.7" cy="1253.4" r="12"/>
	<path class="st16" d="M1216.9,1176.6c6.6,0,12,5.4,12,12s-5.4,12-12,12s-12-5.4-12-12C1204.9,1181.9,1210.3,1176.6,1216.9,1176.6z"
		/>
	<path class="st16" d="M1165.6,1223.9c6.6,0,12,5.4,12,12s-5.4,12-12,12s-12-5.4-12-12C1153.7,1229.2,1159,1223.9,1165.6,1223.9z"/>
	<path class="st16" d="M1185.8,1292.1c6.6,0,12,5.4,12,12s-5.4,12-12,12s-12-5.4-12-12S1179.2,1292.1,1185.8,1292.1z"/>
	<path class="st16" d="M1140.7,1338.5c6.6,0,12,5.4,12,12s-5.4,12-12,12s-12-5.4-12-12S1134.1,1338.5,1140.7,1338.5z"/>
	<path class="st16" d="M1210.4,1362.9c6.6,0,12,5.4,12,12s-5.4,12-12,12s-12-5.4-12-12C1198.5,1368.2,1203.8,1362.9,1210.4,1362.9z"
		/>
	<path class="st16" d="M1197.8,1430.5c6.6,0,12,5.4,12,12s-5.4,12-12,12s-12-5.4-12-12C1185.9,1435.9,1191.2,1430.5,1197.8,1430.5z"
		/>
	<path class="st16" d="M1154.3,1481.9c6.6,0,12,5.4,12,12s-5.4,12-12,12s-12-5.4-12-12S1147.7,1481.9,1154.3,1481.9z"/>
	<path class="st16" d="M1111.7,1536c6.6,0,12,5.4,12,12s-5.4,12-12,12s-12-5.4-12-12S1105.1,1536,1111.7,1536z"/>
	<path class="st16" d="M1094.5,1456.9c6.6,0,12,5.4,12,12s-5.4,12-12,12s-12-5.4-12-12C1082.5,1462.2,1087.9,1456.9,1094.5,1456.9z"
		/>
	<path class="st16" d="M1144.5,1405.4c6.6,0,12,5.4,12,12s-5.4,12-12,12s-12-5.4-12-12S1137.9,1405.4,1144.5,1405.4z"/>
	<path class="st16" d="M1083,1387.8c6.6,0,12,5.4,12,12s-5.4,12-12,12s-12-5.4-12-12S1076.4,1387.8,1083,1387.8z"/>
	<path class="st16" d="M1023.3,1366.1c6.5,0,11.7,5.2,11.7,11.7s-5.2,11.7-11.7,11.7c-6.5,0-11.7-5.2-11.7-11.7
		C1011.6,1371.3,1016.8,1366.1,1023.3,1366.1z"/>
	<circle class="st16" cx="1024.3" cy="1446.9" r="11.9"/>
	<path class="st16" d="M1045.5,1496.9c6.6,0,12,5.4,12,12s-5.4,12-12,12s-12-5.4-12-12C1033.6,1502.3,1038.9,1496.9,1045.5,1496.9z"
		/>
	<path class="st16" d="M1050.4,1558.2c6.6,0,11.9,5.3,11.9,11.9s-5.3,11.9-11.9,11.9s-11.9-5.3-11.9-11.9
		S1043.9,1558.2,1050.4,1558.2z"/>
	<path class="st16" d="M1082.4,1611.6c6.6,0,12,5.4,12,12s-5.4,12-12,12s-12-5.4-12-12C1070.5,1617,1075.8,1611.6,1082.4,1611.6z"/>
	<path class="st16" d="M1146.5,1603.4c6.6,0,12,5.4,12,12s-5.4,12-12,12s-12-5.4-12-12S1139.8,1603.4,1146.5,1603.4z"/>
	<path class="st16" d="M1182.7,1545.8c6.6,0,12,5.4,12,12s-5.4,12-12,12s-12-5.4-12-12S1176.1,1545.8,1182.7,1545.8z"/>
	<path class="st16" d="M1224.1,1490.2c6.6,0,12,5.4,12,12s-5.4,12-12,12s-12-5.4-12-12C1212.1,1495.5,1217.5,1490.2,1224.1,1490.2z"
		/>
	<path class="st16" d="M1255.9,1548.3c6.6,0,12,5.4,12,12s-5.4,12-12,12s-12-5.4-12-12C1243.9,1553.6,1249.3,1548.3,1255.9,1548.3z"
		/>
	<path class="st16" d="M1325.8,1545.2c6.6,0,12,5.4,12,12s-5.4,12-12,12s-12-5.4-12-12C1313.9,1550.5,1319.2,1545.2,1325.8,1545.2z"
		/>
	<circle class="st16" cx="1361.4" cy="1613.7" r="12"/>
	<path class="st16" d="M1396.8,1546.5c6.6,0,12,5.4,12,12s-5.4,12-12,12s-12-5.4-12-12C1384.8,1551.8,1390.2,1546.5,1396.8,1546.5z"
		/>
	<circle class="st16" cx="1462.4" cy="1552" r="12"/>
	<path class="st16" d="M1503.4,1587.2c6.6,0,12,5.4,12,12s-5.4,12-12,12s-12-5.4-12-12C1491.5,1592.6,1496.8,1587.2,1503.4,1587.2z"
		/>
	<path class="st16" d="M1435.7,1607.7c6.6,0,12,5.4,12,12s-5.4,12-12,12s-12-5.4-12-12S1429.1,1607.7,1435.7,1607.7z"/>
	<path class="st16" d="M1392,1657.5c6.6,0,12,5.4,12,12s-5.4,12-12,12s-12-5.4-12-12C1380,1662.8,1385.4,1657.5,1392,1657.5z"/>
	<path class="st16" d="M1328.1,1664.5c6.6,0,12,5.4,12,12s-5.4,12-12,12s-12-5.4-12-12S1321.5,1664.5,1328.1,1664.5z"/>
	<path class="st16" d="M1295.5,1718.8c6.6,0,12,5.4,12,12s-5.4,12-12,12s-12-5.4-12-12C1283.6,1724.1,1288.9,1718.8,1295.5,1718.8z"
		/>
	<path class="st16" d="M1256.9,1771.8c6.6,0,12,5.4,12,12s-5.4,12-12,12s-12-5.4-12-12C1244.9,1777.1,1250.3,1771.8,1256.9,1771.8z"
		/>
	<path class="st16" d="M1217.4,1719.7c6.6,0,12,5.4,12,12s-5.4,12-12,12s-12-5.4-12-12C1205.5,1725.1,1210.8,1719.7,1217.4,1719.7z"
		/>
	<path class="st16" d="M1254.3,1663.8c6.6,0,12,5.4,12,12s-5.4,12-12,12s-12-5.4-12-12C1242.4,1669.2,1247.7,1663.8,1254.3,1663.8z"
		/>
	<path class="st16" d="M1291.6,1606.3c6.6,0,12,5.4,12,12s-5.4,12-12,12s-12-5.4-12-12C1279.6,1611.7,1285,1606.3,1291.6,1606.3z"/>
	<circle class="st16" cx="1218.6" cy="1618.1" r="12"/>
	<path class="st16" d="M1178.8,1665c6.6,0,12,5.4,12,12s-5.4,12-12,12s-12-5.4-12-12S1172.2,1665,1178.8,1665z"/>
	<path class="st16" d="M1109.6,1671.3c6.6,0,12,5.4,12,12s-5.4,12-12,12s-12-5.4-12-12S1103,1671.3,1109.6,1671.3z"/>
	<path class="st16" d="M1143.5,1730c6.6,0,12,5.4,12,12s-5.4,12-12,12s-12-5.4-12-12S1136.9,1730,1143.5,1730z"/>
	<circle class="st16" cx="1186.9" cy="1794.7" r="12"/>
	<path class="st16" d="M1232.8,1835c6.6,0,11.9,5.3,11.9,11.9s-5.3,11.9-11.9,11.9s-11.9-5.3-11.9-11.9S1226.3,1835,1232.8,1835z"/>
	<path class="st16" d="M1291.8,1827.6c6.6,0,12,5.4,12,12s-5.4,12-12,12s-12-5.4-12-12C1279.9,1833,1285.2,1827.6,1291.8,1827.6z"/>
	<circle class="st16" cx="1289" cy="1904.9" r="11.3"/>
	<circle class="st16" cx="1354" cy="1928.3" r="12"/>
	<path class="st16" d="M1411.6,1951.6c6.6,0,12,5.4,12,12s-5.4,12-12,12s-12-5.4-12-12C1399.7,1956.9,1405,1951.6,1411.6,1951.6z"/>
	<path class="st16" d="M1478,1976.2c6.6,0,12,5.4,12,12s-5.4,12-12,12s-12-5.4-12-12C1466.1,1981.6,1471.4,1976.2,1478,1976.2z"/>
	<path class="st16" d="M1526.2,1928.5c6.6,0,12,5.4,12,12s-5.4,12-12,12s-12-5.4-12-12C1514.3,1933.9,1519.6,1928.5,1526.2,1928.5z"
		/>
	<path class="st16" d="M1462.7,1907.1c6.6,0,12,5.4,12,12s-5.4,12-12,12s-12-5.4-12-12S1456.1,1907.1,1462.7,1907.1z"/>
	<path class="st16" d="M1405.6,1877c6.6,0,12,5.4,12,12s-5.4,12-12,12s-12-5.4-12-12C1393.7,1882.4,1399,1877,1405.6,1877z"/>
	<path class="st16" d="M1449.2,1831.8c6.6,0,12,5.4,12,12s-5.4,12-12,12s-12-5.4-12-12S1442.6,1831.8,1449.2,1831.8z"/>
	<path class="st16" d="M1509.6,1859.8c6.6,0,12,5.4,12,12s-5.4,12-12,12s-12-5.4-12-12C1497.6,1865.1,1503,1859.8,1509.6,1859.8z"/>
	<path class="st16" d="M1559.9,1816.1c6.6,0,12,5.4,12,12s-5.4,12-12,12s-12-5.4-12-12S1553.3,1816.1,1559.9,1816.1z"/>
	<path class="st16" d="M1573.6,1881.4c6.6,0,12,5.4,12,12s-5.4,12-12,12s-12-5.4-12-12C1561.6,1886.7,1567,1881.4,1573.6,1881.4z"/>
	<path class="st16" d="M1621.4,1837.1c6.6,0,12,5.4,12,12s-5.4,12-12,12s-12-5.4-12-12C1609.5,1842.5,1614.8,1837.1,1621.4,1837.1z"
		/>
	<path class="st16" d="M1643.8,1891c6.6,0,12,5.4,12,12s-5.4,12-12,12s-12-5.4-12-12S1637.2,1891,1643.8,1891z"/>
	<path class="st16" d="M1594.3,1941.4c6.6,0,12,5.4,12,12s-5.4,12-12,12s-12-5.4-12-12C1582.4,1946.8,1587.7,1941.4,1594.3,1941.4z"
		/>
	<path class="st16" d="M1548.9,1992.4c6.6,0,12,5.4,12,12s-5.4,12-12,12s-12-5.4-12-12C1537,1997.7,1542.3,1992.4,1548.9,1992.4z"/>
	<path class="st16" d="M1620.4,2000.1c6.6,0,12,5.4,12,12s-5.4,12-12,12s-12-5.4-12-12S1613.8,2000.1,1620.4,2000.1z"/>
	<circle class="st16" cx="1662.7" cy="1961.5" r="12"/>
	<path class="st16" d="M1693.9,2008.3c6.6,0,11.9,5.3,11.9,11.9s-5.3,11.9-11.9,11.9s-11.9-5.3-11.9-11.9
		S1687.3,2008.3,1693.9,2008.3z"/>
	<circle class="st16" cx="1768" cy="2008.7" r="12"/>
	<path class="st16" d="M1726.3,1951.3c6.6,0,12,5.4,12,12s-5.4,12-12,12s-12-5.4-12-12C1714.4,1956.7,1719.7,1951.3,1726.3,1951.3z"
		/>
	<circle class="st16" cx="1782.6" cy="1934.1" r="12"/>
	<path class="st16" d="M1758.6,1853c6.6,0,12,5.4,12,12s-5.4,12-12,12s-12-5.4-12-12S1752,1853,1758.6,1853z"/>
	<circle class="st16" cx="1710.3" cy="1903.6" r="12"/>
	<path class="st16" d="M1685.8,1826.8c6.6,0,12,5.4,12,12s-5.4,12-12,12s-12-5.4-12-12C1673.8,1832.2,1679.2,1826.8,1685.8,1826.8z"
		/>
	<path class="st16" d="M1739.1,1787.1c6.6,0,12,5.4,12,12s-5.4,12-12,12s-12-5.4-12-12S1732.5,1787.1,1739.1,1787.1z"/>
	<path class="st16" d="M1806.4,1803.8c6.6,0,12,5.4,12,12s-5.4,12-12,12s-12-5.4-12-12C1794.4,1809.2,1799.8,1803.8,1806.4,1803.8z"
		/>
	<circle class="st16" cx="1826.7" cy="1877.8" r="12"/>
	<path class="st16" d="M1850,1922.8c6.6,0,12,5.4,12,12s-5.4,12-12,12s-12-5.4-12-12C1838,1928.2,1843.4,1922.8,1850,1922.8z"/>
	<path class="st16" d="M1832.2,1983.4c6.6,0,12,5.4,12,12s-5.4,12-12,12s-12-5.4-12-12S1825.6,1983.4,1832.2,1983.4z"/>
	<path class="st16" d="M1900.5,1959.9c6.6,0,12,5.4,12,12s-5.4,12-12,12s-12-5.4-12-12C1888.6,1965.2,1893.9,1959.9,1900.5,1959.9z"
		/>
	<path class="st16" d="M1959.2,1930.1c6.6,0,12,5.4,12,12s-5.4,12-12,12s-12-5.4-12-12C1947.3,1935.5,1952.6,1930.1,1959.2,1930.1z"
		/>
	<path class="st16" d="M1963.6,1867.7c6.6,0,12,5.4,12,12s-5.4,12-12,12s-12-5.4-12-12C1951.7,1873.1,1957,1867.7,1963.6,1867.7z"/>
	<path class="st16" d="M2018.9,1894.2c6.6,0,12,5.4,12,12s-5.4,12-12,12s-12-5.4-12-12S2012.3,1894.2,2018.9,1894.2z"/>
	<path class="st16" d="M2072.8,1858.4c6.6,0,12,5.4,12,12s-5.4,12-12,12s-12-5.4-12-12S2066.2,1858.4,2072.8,1858.4z"/>
	<path class="st16" d="M2011.9,1820.9c6.6,0,12,5.4,12,12s-5.4,12-12,12s-12-5.4-12-12C2000,1826.3,2005.3,1820.9,2011.9,1820.9z"/>
	<path class="st16" d="M1986.1,1758.8c6.6,0,12,5.4,12,12s-5.4,12-12,12s-12-5.4-12-12C1974.2,1764.2,1979.5,1758.8,1986.1,1758.8z"
		/>
	<path class="st16" d="M1918.9,1755.8c6.6,0,12,5.4,12,12s-5.4,12-12,12s-12-5.4-12-12S1912.3,1755.8,1918.9,1755.8z"/>
	<path class="st16" d="M1941.5,1813.6c6.6,0,12,5.4,12,12s-5.4,12-12,12s-12-5.4-12-12S1934.9,1813.6,1941.5,1813.6z"/>
	<circle class="st16" cx="1901.5" cy="1895.1" r="12"/>
	<path class="st16" d="M1876.5,1820.1c6.6,0,12,5.4,12,12s-5.4,12-12,12s-12-5.4-12-12S1869.9,1820.1,1876.5,1820.1z"/>
	<path class="st16" d="M1856.3,1758.2c6.6,0,12,5.4,12,12s-5.4,12-12,12s-12-5.4-12-12S1849.7,1758.2,1856.3,1758.2z"/>
	<path class="st16" d="M1837.1,1699.4c6.6,0,12,5.4,12,12s-5.4,12-12,12s-12-5.4-12-12S1830.5,1699.4,1837.1,1699.4z"/>
	<path class="st16" d="M1786.9,1664c6.6,0,12,5.4,12,12s-5.4,12-12,12s-12-5.4-12-12S1780.3,1664,1786.9,1664z"/>
	<path class="st16" d="M1789.2,1739.6c6.6,0,12,5.4,12,12s-5.4,12-12,12s-12-5.4-12-12S1782.6,1739.6,1789.2,1739.6z"/>
	<circle class="st16" cx="1731.7" cy="1729.5" r="12"/>
	<path class="st16" d="M1668.9,1684.5c6.6,0,12,5.4,12,12s-5.4,12-12,12s-12-5.4-12-12S1662.3,1684.5,1668.9,1684.5z"/>
	<path class="st16" d="M1725.4,1656.5c6.6,0,12,5.4,12,12s-5.4,12-12,12s-12-5.4-12-12S1718.8,1656.5,1725.4,1656.5z"/>
	<path class="st16" d="M1747.3,1599.7c6.6,0,12,5.4,12,12s-5.4,12-12,12s-12-5.4-12-12S1740.7,1599.7,1747.3,1599.7z"/>
	<path class="st16" d="M1811.8,1599.8c6.6,0,12,5.4,12,12s-5.4,12-12,12s-12-5.4-12-12C1799.9,1605.2,1805.2,1599.8,1811.8,1599.8z"
		/>
	<path class="st16" d="M1859.8,1640.7c6.6,0,12,5.4,12,12s-5.4,12-12,12s-12-5.4-12-12S1853.2,1640.7,1859.8,1640.7z"/>
	<path class="st16" d="M1898.6,1692.4c6.6,0,12,5.4,12,12s-5.4,12-12,12s-12-5.4-12-12C1886.6,1697.7,1892,1692.4,1898.6,1692.4z"/>
	<path class="st16" d="M1958.3,1697.8c6.6,0,12,5.4,12,12s-5.4,12-12,12s-12-5.4-12-12S1951.7,1697.8,1958.3,1697.8z"/>
	<path class="st16" d="M1989.4,1642.1c6.6,0,12,5.4,12,12s-5.4,12-12,12s-12-5.4-12-12C1977.4,1647.4,1982.8,1642.1,1989.4,1642.1z"
		/>
	<path class="st16" d="M2053.7,1625.6c6.6,0,12,5.4,12,12s-5.4,12-12,12c-6.6,0-12-5.4-12-12S2047.1,1625.6,2053.7,1625.6z"/>
	<path class="st16" d="M2086.4,1686.8c6.6,0,12,5.4,12,12s-5.4,12-12,12s-12-5.4-12-12C2074.5,1692.1,2079.8,1686.8,2086.4,1686.8z"
		/>
	<path class="st16" d="M2022.5,1691.9c6.6,0,12,5.4,12,12s-5.4,12-12,12s-12-5.4-12-12C2010.6,1697.3,2015.9,1691.9,2022.5,1691.9z"
		/>
	<path class="st16" d="M2048.1,1746.3c6.6,0,12,5.4,12,12s-5.4,12-12,12s-12-5.4-12-12C2036.1,1751.7,2041.5,1746.3,2048.1,1746.3z"
		/>
	<path class="st16" d="M2072,1798.9c6.6,0,12,5.4,12,12s-5.4,12-12,12s-12-5.4-12-12C2060.1,1804.3,2065.4,1798.9,2072,1798.9z"/>
	<path class="st16" d="M2133.8,1813.4c6.6,0,11.9,5.3,11.9,11.9s-5.3,11.9-11.9,11.9c-6.6,0-11.9-5.3-11.9-11.9
		S2127.3,1813.4,2133.8,1813.4z"/>
	<path class="st16" d="M2115.2,1748c6.6,0,12,5.4,12,12s-5.4,12-12,12s-12-5.4-12-12C2103.2,1753.3,2108.5,1748,2115.2,1748z"/>
	<path class="st16" d="M2180.4,1756.3c6.6,0,12,5.4,12,12s-5.4,12-12,12s-12-5.4-12-12S2173.8,1756.3,2180.4,1756.3z"/>
	<path class="st16" d="M2153,1694.9c6.6,0,12,5.4,12,12s-5.4,12-12,12s-12-5.4-12-12C2141.1,1700.3,2146.4,1694.9,2153,1694.9z"/>
	<path class="st16" d="M2219.7,1697.3c6.6,0,12,5.4,12,12s-5.4,12-12,12s-12-5.4-12-12S2213.1,1697.3,2219.7,1697.3z"/>
	<path class="st16" d="M2256.1,1639.3c6.6,0,11.9,5.3,11.9,11.9s-5.3,11.9-11.9,11.9c-6.6,0-11.9-5.3-11.9-11.9
		S2249.6,1639.3,2256.1,1639.3z"/>
	<path class="st16" d="M2186.9,1637.4c6.6,0,12,5.4,12,12s-5.4,12-12,12s-12-5.4-12-12S2180.3,1637.4,2186.9,1637.4z"/>
	<circle class="st16" cx="2125.5" cy="1645.8" r="12"/>
	<path class="st16" d="M2103.4,1580.2c6.6,0,12,5.4,12,12s-5.4,12-12,12s-12-5.4-12-12C2091.4,1585.5,2096.8,1580.2,2103.4,1580.2z"
		/>
	<path class="st16" d="M2050.4,1552.9c6.6,0,12,5.4,12,12s-5.4,12-12,12c-6.6,0-12-5.4-12-12
		C2038.4,1558.3,2043.8,1552.9,2050.4,1552.9z"/>
	<path class="st16" d="M1993.4,1583.4c6.6,0,12,5.4,12,12s-5.4,12-12,12s-12-5.4-12-12S1986.8,1583.4,1993.4,1583.4z"/>
	<path class="st16" d="M1938,1552.2c6.6,0,12,5.4,12,12s-5.4,12-12,12s-12-5.4-12-12S1931.4,1552.2,1938,1552.2z"/>
	<path class="st16" d="M1929,1626.3c6.6,0,12,5.4,12,12s-5.4,12-12,12s-12-5.4-12-12S1922.4,1626.3,1929,1626.3z"/>
	<path class="st16" d="M1880.8,1580.3c6.6,0,12,5.4,12,12s-5.4,12-12,12s-12-5.4-12-12C1868.8,1585.7,1874.2,1580.3,1880.8,1580.3z"
		/>
	<path class="st16" d="M1831.7,1538.7c6.6,0,12,5.4,12,12s-5.4,12-12,12s-12-5.4-12-12C1819.8,1544,1825.1,1538.7,1831.7,1538.7z"/>
	<path class="st16" d="M1883,1510c6.6,0,12,5.4,12,12s-5.4,12-12,12s-12-5.4-12-12S1876.4,1510,1883,1510z"/>
	<path class="st16" d="M1880.2,1447c6.6,0,12,5.4,12,12s-5.4,12-12,12s-12-5.4-12-12C1868.3,1452.4,1873.6,1447,1880.2,1447z"/>
	<path class="st16" d="M1827,1409.2c6.6,0,12,5.4,12,12s-5.4,12-12,12s-12-5.4-12-12S1820.4,1409.2,1827,1409.2z"/>
	<path class="st16" d="M1812,1476.4c6.6,0,12,5.4,12,12s-5.4,12-12,12s-12-5.4-12-12C1800.1,1481.8,1805.4,1476.4,1812,1476.4z"/>
	<path class="st16" d="M1760.6,1429.7c6.6,0,12,5.4,12,12s-5.4,12-12,12s-12-5.4-12-12C1748.7,1435,1754,1429.7,1760.6,1429.7z"/>
	<path class="st16" d="M1778,1366c6.6,0,12,5.4,12,12s-5.4,12-12,12s-12-5.4-12-12C1766,1371.3,1771.3,1366,1778,1366z"/>
	<path class="st16" d="M1835.7,1339.4c6.6,0,12,5.4,12,12s-5.4,12-12,12s-12-5.4-12-12S1829.1,1339.4,1835.7,1339.4z"/>
	<path class="st16" d="M1895.6,1312.9c6.6,0,12,5.4,12,12s-5.4,12-12,12s-12-5.4-12-12C1883.7,1318.2,1889,1312.9,1895.6,1312.9z"/>
	<path class="st16" d="M1895.9,1247.6c6.6,0,12,5.4,12,12s-5.4,12-12,12s-12-5.4-12-12S1889.3,1247.6,1895.9,1247.6z"/>
	<path class="st16" d="M1957.8,1282.9c6.6,0,12,5.4,12,12s-5.4,12-12,12s-12-5.4-12-12S1951.2,1282.9,1957.8,1282.9z"/>
	<path class="st16" d="M1951.1,1219.6c6.6,0,12,5.4,12,12s-5.4,12-12,12s-12-5.4-12-12S1944.5,1219.6,1951.1,1219.6z"/>
	<path class="st16" d="M2003.6,1194.4c6.6,0,12,5.4,12,12s-5.4,12-12,12s-12-5.4-12-12S1997,1194.4,2003.6,1194.4z"/>
	<circle class="st16" cx="2021.9" cy="1265.6" r="12"/>
	<circle class="st16" cx="2011.7" cy="1333.3" r="12"/>
	<path class="st16" d="M1951,1350.3c6.6,0,12,5.4,12,12s-5.4,12-12,12s-12-5.4-12-12C1939.1,1355.6,1944.4,1350.3,1951,1350.3z"/>
	<path class="st16" d="M1889.2,1380.1c6.6,0,12,5.4,12,12s-5.4,12-12,12s-12-5.4-12-12S1882.6,1380.1,1889.2,1380.1z"/>
	<path class="st16" d="M1945,1416.5c6.6,0,12,5.4,12,12s-5.4,12-12,12s-12-5.4-12-12C1933.1,1421.9,1938.4,1416.5,1945,1416.5z"/>
	<path class="st16" d="M1941.4,1481.9c6.6,0,12,5.4,12,12s-5.4,12-12,12s-12-5.4-12-12S1934.8,1481.9,1941.4,1481.9z"/>
	<circle class="st16" cx="1996.7" cy="1528.1" r="12"/>
	<path class="st16" d="M2003.5,1450.7c6.6,0,12,5.4,12,12s-5.4,12-12,12s-12-5.4-12-12C1991.5,1456,1996.9,1450.7,2003.5,1450.7z"/>
	<path class="st16" d="M2059.6,1486.5c6.6,0,12,5.4,12,12s-5.4,12-12,12s-12-5.4-12-12S2053,1486.5,2059.6,1486.5z"/>
	<circle class="st16" cx="2115.3" cy="1530.4" r="12"/>
	<path class="st16" d="M2165.4,1566c6.6,0,12,5.4,12,12s-5.4,12-12,12s-12-5.4-12-12C2153.5,1571.4,2158.8,1566,2165.4,1566z"/>
	<path class="st16" d="M2221.9,1588.2c6.6,0,12,5.4,12,12s-5.4,12-12,12s-12-5.4-12-12S2215.3,1588.2,2221.9,1588.2z"/>
	<circle class="st16" cx="2281" cy="1583.4" r="12"/>
	<path class="st16" d="M2296.6,1507.7c6.6,0,12,5.4,12,12s-5.4,12-12,12s-12-5.4-12-12S2290,1507.7,2296.6,1507.7z"/>
	<path class="st16" d="M2310.1,1444.8c6.6,0,12,5.4,12,12s-5.4,12-12,12s-12-5.4-12-12S2303.5,1444.8,2310.1,1444.8z"/>
	<circle class="st16" cx="2242.8" cy="1478.2" r="12"/>
	<path class="st16" d="M2230,1528.1c6.6,0,12,5.4,12,12s-5.4,12-12,12s-12-5.4-12-12S2223.4,1528.1,2230,1528.1z"/>
	<circle class="st16" cx="2177" cy="1506.8" r="12"/>
	<path class="st16" d="M2250.4,1404.5c6.6,0,12,5.4,12,12s-5.4,12-12,12s-12-5.4-12-12C2238.5,1409.9,2243.8,1404.5,2250.4,1404.5z"
		/>
	<path class="st16" d="M2313,1378.3c6.6,0,12,5.4,12,12s-5.4,12-12,12s-12-5.4-12-12C2301,1383.7,2306.4,1378.3,2313,1378.3z"/>
	<path class="st16" d="M2321.2,1311.7c6.4,0,11.6,5.2,11.6,11.6s-5.2,11.6-11.6,11.6c-6.4,0-11.6-5.2-11.6-11.6
		S2314.8,1311.7,2321.2,1311.7z"/>
	<path class="st16" d="M2303.8,1242.4c6.6,0,12,5.4,12,12s-5.4,12-12,12s-12-5.4-12-12C2291.9,1247.7,2297.2,1242.4,2303.8,1242.4z"
		/>
	<path class="st16" d="M2289.9,1182.8c6.6,0,12,5.4,12,12s-5.4,12-12,12s-12-5.4-12-12C2278,1188.2,2283.3,1182.8,2289.9,1182.8z"/>
	<circle class="st16" cx="2236" cy="1175.2" r="12"/>
	<path class="st16" d="M2230.4,1227.5c6.6,0,12,5.4,12,12s-5.4,12-12,12s-12-5.4-12-12S2223.8,1227.5,2230.4,1227.5z"/>
	<path class="st16" d="M2199.5,1295.5c6.6,0,12,5.4,12,12s-5.4,12-12,12s-12-5.4-12-12C2187.5,1300.8,2192.9,1295.5,2199.5,1295.5z"
		/>
	<path class="st16" d="M2260.6,1282.6c6.6,0,12,5.4,12,12s-5.4,12-12,12s-12-5.4-12-12S2254,1282.6,2260.6,1282.6z"/>
	<path class="st16" d="M2255.9,1342.1c6.6,0,12,5.4,12,12s-5.4,12-12,12s-12-5.4-12-12C2243.9,1347.4,2249.3,1342.1,2255.9,1342.1z"
		/>
	<circle class="st16" cx="2191.4" cy="1372.8" r="12"/>
	<circle class="st16" cx="2134.8" cy="1325.6" r="12"/>
	<path class="st16" d="M2130.4,1385.2c6.6,0,12,5.4,12,12s-5.4,12-12,12s-12-5.4-12-12S2123.8,1385.2,2130.4,1385.2z"/>
	<path class="st16" d="M2186.2,1427.7c6.6,0,12,5.4,12,12s-5.4,12-12,12s-12-5.4-12-12C2174.3,1433,2179.6,1427.7,2186.2,1427.7z"/>
	<path class="st16" d="M2123.5,1452.9c6.6,0,12,5.4,12,12s-5.4,12-12,12s-12-5.4-12-12C2111.5,1458.2,2116.8,1452.9,2123.5,1452.9z"
		/>
	<circle class="st16" cx="2067" cy="1433.1" r="12"/>
	<path class="st16" d="M2008.7,1386.1c6.6,0,12,5.4,12,12s-5.4,12-12,12s-12-5.4-12-12S2002.1,1386.1,2008.7,1386.1z"/>
	<path class="st16" d="M2072.4,1357.6c6.6,0,12,5.4,12,12s-5.4,12-12,12s-12-5.4-12-12S2065.8,1357.6,2072.4,1357.6z"/>
	<path class="st16" d="M2070.9,1296.9c6.6,0,12,5.4,12,12s-5.4,12-12,12s-12-5.4-12-12C2059,1302.3,2064.3,1296.9,2070.9,1296.9z"/>
	<path class="st16" d="M2099.1,1246.1c6.6,0,12,5.4,12,12s-5.4,12-12,12s-12-5.4-12-12C2087.2,1251.5,2092.5,1246.1,2099.1,1246.1z"
		/>
	<path class="st16" d="M2162.5,1243.1c6.6,0,12,5.4,12,12s-5.4,12-12,12s-12-5.4-12-12C2150.6,1248.4,2155.9,1243.1,2162.5,1243.1z"
		/>
	<path class="st16" d="M2180.3,1176.4c6.6,0,12,5.4,12,12s-5.4,12-12,12s-12-5.4-12-12S2173.7,1176.4,2180.3,1176.4z"/>
	<path class="st16" d="M2122.1,1182.5c6.6,0,12,5.4,12,12s-5.4,12-12,12s-12-5.4-12-12C2110.1,1187.8,2115.5,1182.5,2122.1,1182.5z"
		/>
	<path class="st16" d="M2062.1,1192.9c6.6,0,12,5.4,12,12s-5.4,12-12,12s-12-5.4-12-12S2055.5,1192.9,2062.1,1192.9z"/>
	<circle class="st16" cx="1957.6" cy="1164" r="12"/>
	<path class="st16" d="M2021.3,1133.3c6.6,0,12,5.4,12,12s-5.4,12-12,12s-12-5.4-12-12C2009.4,1138.6,2014.7,1133.3,2021.3,1133.3z"
		/>
	<path class="st16" d="M2040.6,1069.8c6.6,0,12,5.4,12,12s-5.4,12-12,12s-12-5.4-12-12C2028.6,1075.1,2034,1069.8,2040.6,1069.8z"/>
	<path class="st16" d="M2083.2,1125.6c6.6,0,12,5.4,12,12s-5.4,12-12,12s-12-5.4-12-12S2076.6,1125.6,2083.2,1125.6z"/>
	<path class="st16" d="M2145.1,1116.2c6.6,0,12,5.4,12,12s-5.4,12-12,12s-12-5.4-12-12C2133.2,1121.5,2138.5,1116.2,2145.1,1116.2z"
		/>
	<path class="st16" d="M2206.4,1107c6.6,0,12,5.4,12,12s-5.4,12-12,12s-12-5.4-12-12C2194.4,1112.3,2199.8,1107,2206.4,1107z"/>
	<path class="st16" d="M2273.2,1114.2c6.5,0,11.8,5.3,11.8,11.8s-5.3,11.8-11.8,11.8s-11.8-5.3-11.8-11.8
		C2261.4,1119.4,2266.7,1114.2,2273.2,1114.2z"/>
	<path class="st16" d="M2242.6,1051.3c6.6,0,12,5.4,12,12s-5.4,12-12,12s-12-5.4-12-12C2230.6,1056.7,2236,1051.3,2242.6,1051.3z"/>
	<path class="st16" d="M2170.3,1051c6.6,0,12,5.4,12,12s-5.4,12-12,12s-12-5.4-12-12C2158.3,1056.3,2163.7,1051,2170.3,1051z"/>
	<path class="st16" d="M2104.9,1059.6c6.6,0,12,5.4,12,12s-5.4,12-12,12s-12-5.4-12-12S2098.3,1059.6,2104.9,1059.6z"/>
	<path class="st16" d="M2059.7,1005.1c6.6,0,12,5.4,12,12s-5.4,12-12,12s-12-5.4-12-12S2053.1,1005.1,2059.7,1005.1z"/>
	<path class="st16" d="M2077.8,940.6c6.6,0,12,5.4,12,12s-5.4,12-12,12s-12-5.4-12-12C2065.9,945.9,2071.2,940.6,2077.8,940.6z"/>
	<path class="st16" d="M2126.2,995.3c6.6,0,12,5.4,12,12s-5.4,12-12,12s-12-5.4-12-12S2119.6,995.3,2126.2,995.3z"/>
	<path class="st16" d="M2164.5,948.2c6.6,0,12,5.4,12,12s-5.4,12-12,12s-12-5.4-12-12C2152.5,953.5,2157.9,948.2,2164.5,948.2z"/>
	<path class="st16" d="M2203.4,997.5c6.6,0,12,5.4,12,12s-5.4,12-12,12s-12-5.4-12-12C2191.5,1002.9,2196.8,997.5,2203.4,997.5z"/>
	<path class="st16" d="M2126.6,902.9c6.6,0,12,5.4,12,12s-5.4,12-12,12s-12-5.4-12-12C2114.7,908.2,2120,902.9,2126.6,902.9z"/>
	<path class="st16" d="M2081.1,861.3c6.6,0,12,5.4,12,12s-5.4,12-12,12s-12-5.4-12-12C2069.1,866.6,2074.5,861.3,2081.1,861.3z"/>
	<path class="st16" d="M2029.4,822.3c6.6,0,12,5.4,12,12s-5.4,12-12,12s-12-5.4-12-12S2022.8,822.3,2029.4,822.3z"/>
	<circle class="st16" cx="1976.4" cy="789" r="11.5"/>
	<path class="st16" d="M1969.4,848.7c6.6,0,12,5.4,12,12s-5.4,12-12,12s-12-5.4-12-12C1957.4,854.1,1962.8,848.7,1969.4,848.7z"/>
	<path class="st16" d="M1956.3,911.3c6.6,0,12,5.4,12,12s-5.4,12-12,12s-12-5.4-12-12C1944.4,916.7,1949.7,911.3,1956.3,911.3z"/>
	<path class="st16" d="M2023.8,892.8c6.6,0,12,5.4,12,12s-5.4,12-12,12s-12-5.4-12-12C2011.8,898.1,2017.2,892.8,2023.8,892.8z"/>
	<path class="st16" d="M2009,956.8c6.6,0,12,5.4,12,12s-5.4,12-12,12s-12-5.4-12-12S2002.4,956.8,2009,956.8z"/>
	<path class="st16" d="M1993.2,1020.9c6.6,0,12,5.4,12,12s-5.4,12-12,12s-12-5.4-12-12C1981.3,1026.2,1986.6,1020.9,1993.2,1020.9z"
		/>
	<path class="st16" d="M1974.8,1085.7c6.6,0,12,5.4,12,12s-5.4,12-12,12s-12-5.4-12-12S1968.2,1085.7,1974.8,1085.7z"/>
	<circle class="st16" cx="1928" cy="1052.2" r="12"/>
	<path class="st16" d="M1940.2,976.8c6.6,0,12,5.4,12,12s-5.4,12-12,12s-12-5.4-12-12C1928.3,982.1,1933.6,976.8,1940.2,976.8z"/>
	<path class="st16" d="M1870.3,1002.2c6.6,0,12,5.4,12,12s-5.4,12-12,12s-12-5.4-12-12S1863.6,1002.2,1870.3,1002.2z"/>
	<path class="st16" d="M1834.2,949.8c6.6,0,12,5.4,12,12s-5.4,12-12,12s-12-5.4-12-12S1827.6,949.8,1834.2,949.8z"/>
	<path class="st16" d="M1892.6,931.7c6.6,0,12,5.4,12,12s-5.4,12-12,12s-12-5.4-12-12C1880.6,937.1,1886,931.7,1892.6,931.7z"/>
	<path class="st16" d="M1897.8,866.4c6.6,0,12,5.4,12,12s-5.4,12-12,12s-12-5.4-12-12C1885.8,871.7,1891.2,866.4,1897.8,866.4z"/>
	<path class="st16" d="M1920,807.1c6.6,0,12,5.4,12,12s-5.4,12-12,12s-12-5.4-12-12C1908,812.4,1913.4,807.1,1920,807.1z"/>
	<circle class="st16" cx="1904.3" cy="758.5" r="11.2"/>
	<path class="st16" d="M1838.6,735.2c6.6,0,12,5.4,12,12s-5.4,12-12,12s-12-5.4-12-12S1832,735.2,1838.6,735.2z"/>
	<path class="st16" d="M1854.8,806c6.6,0,12,5.4,12,12s-5.4,12-12,12s-12-5.4-12-12S1848.2,806,1854.8,806z"/>
	<path class="st16" d="M1833,885.6c6.6,0,12,5.4,12,12s-5.4,12-12,12s-12-5.4-12-12C1821,890.9,1826.4,885.6,1833,885.6z"/>
	<path class="st16" d="M1797.4,838c6.6,0,12,5.4,12,12s-5.4,12-12,12s-12-5.4-12-12C1785.5,843.4,1790.8,838,1797.4,838z"/>
	<path class="st16" d="M1751.5,881.6c6.6,0,12,5.4,12,12s-5.4,12-12,12s-12-5.4-12-12S1744.9,881.6,1751.5,881.6z"/>
	<path class="st16" d="M1773.8,935.9c6.6,0,12,5.4,12,12s-5.4,12-12,12s-12-5.4-12-12S1767.2,935.9,1773.8,935.9z"/>
	<path class="st16" d="M1795.6,999.8c6.6,0,12,5.4,12,12s-5.4,12-12,12s-12-5.4-12-12C1783.6,1005.1,1789,999.8,1795.6,999.8z"/>
	<path class="st16" d="M1814.4,1059.1c6.6,0,12,5.4,12,12s-5.4,12-12,12s-12-5.4-12-12C1802.4,1064.4,1807.8,1059.1,1814.4,1059.1z"
		/>
	<path class="st16" d="M1870.9,1067.4c6.6,0,12,5.4,12,12s-5.4,12-12,12s-12-5.4-12-12C1859,1072.8,1864.3,1067.4,1870.9,1067.4z"/>
	<path class="st16" d="M1911.8,1110.9c6.6,0,12,5.4,12,12s-5.4,12-12,12s-12-5.4-12-12S1905.2,1110.9,1911.8,1110.9z"/>
	<path class="st16" d="M1895.5,1177.3c6.6,0,12,5.4,12,12s-5.4,12-12,12s-12-5.4-12-12C1883.5,1182.6,1888.9,1177.3,1895.5,1177.3z"
		/>
	<path class="st16" d="M1844.5,1129.2c6.6,0,12,5.4,12,12s-5.4,12-12,12s-12-5.4-12-12S1837.8,1129.2,1844.5,1129.2z"/>
	<path class="st16" d="M1774.6,1108.7c6.6,0,12,5.4,12,12s-5.4,12-12,12s-12-5.4-12-12C1762.7,1114.1,1768,1108.7,1774.6,1108.7z"/>
	<circle class="st16" cx="1793.3" cy="1179.6" r="12"/>
	<path class="st16" d="M1838.9,1206.9c6.6,0,12,5.4,12,12s-5.4,12-12,12s-12-5.4-12-12C1827,1212.2,1832.3,1206.9,1838.9,1206.9z"/>
	<path class="st16" d="M1836.5,1270.5c6.6,0,12,5.4,12,12s-5.4,12-12,12s-12-5.4-12-12C1824.6,1275.9,1829.9,1270.5,1836.5,1270.5z"
		/>
	<path class="st16" d="M1768.5,1227.4c6.6,0,12,5.4,12,12s-5.4,12-12,12s-12-5.4-12-12S1761.9,1227.4,1768.5,1227.4z"/>
	<path class="st16" d="M1714.4,1266.3c6.6,0,12,5.4,12,12s-5.4,12-12,12s-12-5.4-12-12C1702.4,1271.7,1707.8,1266.3,1714.4,1266.3z"
		/>
	<path class="st16" d="M1688.5,1211.5c6.6,0,12,5.4,12,12s-5.4,12-12,12s-12-5.4-12-12S1681.9,1211.5,1688.5,1211.5z"/>
	<path class="st16" d="M1730.2,1164.4c6.6,0,12,5.4,12,12s-5.4,12-12,12s-12-5.4-12-12C1718.3,1169.7,1723.6,1164.4,1730.2,1164.4z"
		/>
	<path class="st16" d="M1661.1,1151.3c6.6,0,12,5.4,12,12s-5.4,12-12,12s-12-5.4-12-12C1649.2,1156.7,1654.5,1151.3,1661.1,1151.3z"
		/>
	<path class="st16" d="M1592.3,1147.1c6.6,0,12,5.4,12,12s-5.4,12-12,12s-12-5.4-12-12C1580.4,1152.5,1585.7,1147.1,1592.3,1147.1z"
		/>
	<path class="st16" d="M1582.9,1091.2c6.6,0,12,5.4,12,12s-5.4,12-12,12s-12-5.4-12-12C1571,1096.5,1576.3,1091.2,1582.9,1091.2z"/>
	<path class="st16" d="M1544.1,1054.6c6.6,0,12,5.4,12,12s-5.4,12-12,12s-12-5.4-12-12C1532.1,1059.9,1537.5,1054.6,1544.1,1054.6z"
		/>
	<path class="st16" d="M1606.3,1025.1c6.6,0,12,5.4,12,12s-5.4,12-12,12s-12-5.4-12-12S1599.7,1025.1,1606.3,1025.1z"/>
	<path class="st16" d="M1584.4,960.1c6.6,0,12,5.4,12,12s-5.4,12-12,12s-12-5.4-12-12S1577.8,960.1,1584.4,960.1z"/>
	<path class="st16" d="M1562.8,896.3c6.6,0,12,5.4,12,12s-5.4,12-12,12s-12-5.4-12-12C1550.9,901.6,1556.2,896.3,1562.8,896.3z"/>
	<path class="st16" d="M1511.5,935.6c6.6,0,12,5.4,12,12s-5.4,12-12,12s-12-5.4-12-12S1504.9,935.6,1511.5,935.6z"/>
	<path class="st16" d="M1531.9,997.1c6.6,0,12,5.4,12,12s-5.4,12-12,12s-12-5.4-12-12S1525.3,997.1,1531.9,997.1z"/>
	<path class="st16" d="M1464.6,988c6.6,0,12,5.4,12,12s-5.4,12-12,12s-12-5.4-12-12C1452.7,993.4,1458,988,1464.6,988z"/>
	<path class="st16" d="M1443.7,921.7c6.6,0,12,5.4,12,12s-5.4,12-12,12s-12-5.4-12-12C1431.7,927,1437.1,921.7,1443.7,921.7z"/>
	<path class="st16" d="M1375.7,912.8c6.6,0,12,5.4,12,12s-5.4,12-12,12s-12-5.4-12-12S1369.1,912.8,1375.7,912.8z"/>
	<path class="st16" d="M1397.9,976c6.6,0,12,5.4,12,12s-5.4,12-12,12s-12-5.4-12-12C1386,981.4,1391.3,976,1397.9,976z"/>
	<path class="st16" d="M1353.2,1027.2c6.6,0,12,5.4,12,12s-5.4,12-12,12s-12-5.4-12-12S1346.5,1027.2,1353.2,1027.2z"/>
	<path class="st16" d="M1309.9,1075.7c6.6,0,12,5.4,12,12s-5.4,12-12,12s-12-5.4-12-12C1297.9,1081,1303.3,1075.7,1309.9,1075.7z"/>
	<circle class="st16" cx="1334.6" cy="1151.5" r="12"/>
	<path class="st16" d="M1406.5,1163c6.6,0,12,5.4,12,12s-5.4,12-12,12s-12-5.4-12-12C1394.6,1168.3,1399.9,1163,1406.5,1163z"/>
	<path class="st16" d="M1381.1,1094.4c6.6,0,12,5.4,12,12s-5.4,12-12,12s-12-5.4-12-12C1369.2,1099.8,1374.5,1094.4,1381.1,1094.4z"
		/>
	<path class="st16" d="M1420.2,1042.1c6.6,0,12,5.4,12,12s-5.4,12-12,12s-12-5.4-12-12C1408.3,1047.5,1413.6,1042.1,1420.2,1042.1z"
		/>
	<circle class="st16" cx="1484" cy="1066.9" r="12"/>
	<path class="st16" d="M1449.7,1111.1c6.6,0,12,5.4,12,12s-5.4,12-12,12s-12-5.4-12-12C1437.8,1116.4,1443.1,1111.1,1449.7,1111.1z"
		/>
	<path class="st16" d="M1519.8,1122.5c6.6,0,12,5.4,12,12s-5.4,12-12,12s-12-5.4-12-12S1513.1,1122.5,1519.8,1122.5z"/>
	<path class="st16" d="M1474.9,1178.1c6.6,0,12,5.4,12,12s-5.4,12-12,12s-12-5.4-12-12C1463,1183.5,1468.3,1178.1,1474.9,1178.1z"/>
	<path class="st16" d="M1429.3,1232.8c6.6,0,12,5.4,12,12s-5.4,12-12,12s-12-5.4-12-12C1417.3,1238.1,1422.7,1232.8,1429.3,1232.8z"
		/>
	<circle class="st16" cx="1366.9" cy="1270.5" r="12"/>
	<path class="st16" d="M1354.7,1201.2c6.6,0,12,5.4,12,12s-5.4,12-12,12s-12-5.4-12-12S1348.1,1201.2,1354.7,1201.2z"/>
	<path class="st16" d="M1299.9,1252.2c6.6,0,12,5.4,12,12s-5.4,12-12,12s-12-5.4-12-12C1288,1257.6,1293.3,1252.2,1299.9,1252.2z"/>
	<path class="st16" d="M1285.5,1189.2c6.6,0,12,5.4,12,12s-5.4,12-12,12s-12-5.4-12-12C1273.5,1194.5,1278.9,1189.2,1285.5,1189.2z"
		/>
	<path class="st16" d="M1265.2,1125.7c6.6,0,12,5.4,12,12s-5.4,12-12,12s-12-5.4-12-12C1253.3,1131,1258.6,1125.7,1265.2,1125.7z"/>
	<path class="st16" d="M1198.3,1111.9c6.6,0,12,5.4,12,12s-5.4,12-12,12s-12-5.4-12-12S1191.7,1111.9,1198.3,1111.9z"/>
	<path class="st16" d="M1240,1060.3c6.6,0,12,5.4,12,12s-5.4,12-12,12s-12-5.4-12-12C1228,1065.7,1233.4,1060.3,1240,1060.3z"/>
	<path class="st16" d="M1282.8,1010.4c6.6,0,12,5.4,12,12s-5.4,12-12,12s-12-5.4-12-12C1270.8,1015.7,1276.2,1010.4,1282.8,1010.4z"
		/>
	<path class="st16" d="M1328.3,962.5c6.6,0,12,5.4,12,12s-5.4,12-12,12s-12-5.4-12-12S1321.7,962.5,1328.3,962.5z"/>
	<circle class="st16" cx="1302.7" cy="913.3" r="12"/>
	<path class="st16" d="M1254.5,946.9c6.6,0,12,5.4,12,12s-5.4,12-12,12s-12-5.4-12-12S1247.9,946.9,1254.5,946.9z"/>
	<path class="st16" d="M1210.9,996.9c6.6,0,12,5.4,12,12s-5.4,12-12,12s-12-5.4-12-12C1199,1002.3,1204.3,996.9,1210.9,996.9z"/>
	<path class="st16" d="M1169.4,1047.9c6.6,0,12,5.4,12,12s-5.4,12-12,12s-12-5.4-12-12S1162.8,1047.9,1169.4,1047.9z"/>
	<path class="st16" d="M1147.9,1159.8c6.6,0,12,5.4,12,12s-5.4,12-12,12s-12-5.4-12-12S1141.3,1159.8,1147.9,1159.8z"/>
	<path class="st16" d="M1093.6,1194.1c6.6,0,12,5.4,12,12s-5.4,12-12,12s-12-5.4-12-12C1081.7,1199.5,1087,1194.1,1093.6,1194.1z"/>
	<path class="st16" d="M1115.7,1265.1c6.6,0,12,5.4,12,12s-5.4,12-12,12s-12-5.4-12-12S1109.1,1265.1,1115.7,1265.1z"/>
	<circle class="st16" cx="1077.4" cy="1329.1" r="12"/>
	<path class="st16" d="M1019.2,1296.6c6.3,0,11.5,5.1,11.5,11.5s-5.1,11.5-11.5,11.5c-6.3,0-11.5-5.1-11.5-11.5
		S1012.9,1296.6,1019.2,1296.6z"/>
	<circle class="st16" cx="1046.6" cy="1252.3" r="12"/>
	<circle class="st16" cx="1022.1" cy="1184.6" r="5.1"/>
	<path class="st16" d="M1074.8,1124.2c6.6,0,12,5.4,12,12s-5.4,12-12,12s-12-5.4-12-12S1068.2,1124.2,1074.8,1124.2z"/>
	<circle class="st16" cx="1131.9" cy="1111.1" r="12"/>
	<circle class="st16" cx="1092.5" cy="1060.2" r="11.1"/>
	<path class="st16" d="M1137.1,989.7c6.5,0,11.7,5.3,11.7,11.7c0,6.5-5.3,11.7-11.7,11.7s-11.7-5.3-11.7-11.7
		C1125.3,995,1130.6,989.7,1137.1,989.7z"/>
	<path class="st16" d="M1181.1,935c6.6,0,12,5.4,12,12s-5.4,12-12,12s-12-5.4-12-12S1174.5,935,1181.1,935z"/>
	<circle class="st16" cx="1227.6" cy="895.6" r="11.9"/>
	<path class="st16" d="M1280.5,841.9c6.6,0,11.9,5.3,11.9,11.9c0,6.6-5.3,11.9-11.9,11.9s-11.9-5.3-11.9-11.9
		S1274,841.9,1280.5,841.9z"/>
	<circle class="st16" cx="1352.4" cy="865.5" r="12"/>
	<path class="st16" d="M1330.2,797.2c5.7,0,10.4,4.7,10.4,10.4s-4.7,10.4-10.4,10.4c-5.7,0-10.4-4.7-10.4-10.4
		S1324.4,797.2,1330.2,797.2z"/>
	<circle class="st16" cx="1391.7" cy="803.2" r="12"/>
	<path class="st16" d="M1429.3,746.4c5.8,0,10.5,4.7,10.5,10.5s-4.7,10.5-10.5,10.5s-10.5-4.7-10.5-10.5S1423.5,746.4,1429.3,746.4z
		"/>
	<path class="st16" d="M1492.4,732.3c6.6,0,11.9,5.3,11.9,11.9s-5.3,11.9-11.9,11.9s-11.9-5.3-11.9-11.9S1485.9,732.3,1492.4,732.3z
		"/>
	<path class="st16" d="M1467,804.1c6.6,0,12,5.4,12,12s-5.4,12-12,12s-12-5.4-12-12S1460.4,804.1,1467,804.1z"/>
	<path class="st16" d="M1421.1,855.8c6.6,0,12,5.4,12,12s-5.4,12-12,12s-12-5.4-12-12C1409.2,861.1,1414.5,855.8,1421.1,855.8z"/>
	<path class="st16" d="M1490.6,869.9c6.6,0,12,5.4,12,12s-5.4,12-12,12s-12-5.4-12-12S1484,869.9,1490.6,869.9z"/>
	<circle class="st16" cx="1545.9" cy="846.5" r="12"/>
	<path class="st16" d="M1529.1,779.9c6.6,0,12,5.4,12,12s-5.4,12-12,12s-12-5.4-12-12C1517.1,785.2,1522.5,779.9,1529.1,779.9z"/>
	<path class="st16" d="M1559.1,721.3c6.6,0,11.9,5.3,11.9,11.9s-5.3,11.9-11.9,11.9s-11.9-5.3-11.9-11.9S1552.5,721.3,1559.1,721.3z
		"/>
	<circle class="st16" cx="1597.5" cy="790.7" r="12"/>
	<path class="st16" d="M1612.1,847.2c6.6,0,12,5.4,12,12s-5.4,12-12,12s-12-5.4-12-12C1600.1,852.6,1605.5,847.2,1612.1,847.2z"/>
	<path class="st16" d="M1631.1,912.1c6.6,0,12,5.4,12,12s-5.4,12-12,12s-12-5.4-12-12C1619.2,917.4,1624.5,912.1,1631.1,912.1z"/>
	<path class="st16" d="M1653.8,974.9c6.6,0,12,5.4,12,12s-5.4,12-12,12s-12-5.4-12-12C1641.8,980.2,1647.2,974.9,1653.8,974.9z"/>
	<path class="st16" d="M1678.9,1035.4c6.6,0,12,5.4,12,12s-5.4,12-12,12s-12-5.4-12-12C1667,1040.8,1672.3,1035.4,1678.9,1035.4z"/>
	<path class="st16" d="M1642.4,1088.4c6.6,0,12,5.4,12,12s-5.4,12-12,12s-12-5.4-12-12S1635.8,1088.4,1642.4,1088.4z"/>
	<circle class="st16" cx="1707.7" cy="1112.5" r="12"/>
	<path class="st16" d="M1747,1047.2c6.6,0,12,5.4,12,12s-5.4,12-12,12s-12-5.4-12-12S1740.4,1047.2,1747,1047.2z"/>
	<path class="st16" d="M1726.4,985.8c6.6,0,12,5.4,12,12s-5.4,12-12,12s-12-5.4-12-12C1714.4,991.1,1719.8,985.8,1726.4,985.8z"/>
	<path class="st16" d="M1701.7,927.8c6.6,0,12,5.4,12,12s-5.4,12-12,12s-12-5.4-12-12S1695.1,927.8,1701.7,927.8z"/>
	<path class="st16" d="M1681.5,868.2c6.6,0,12,5.4,12,12s-5.4,12-12,12s-12-5.4-12-12C1669.5,873.6,1674.9,868.2,1681.5,868.2z"/>
	<path class="st16" d="M1665.1,807.6c6.6,0,12,5.4,12,12s-5.4,12-12,12s-12-5.4-12-12S1658.5,807.6,1665.1,807.6z"/>
	<circle class="st16" cx="1731.8" cy="833.7" r="12"/>
	<path class="st16" d="M1722.2,761.3c6.6,0,12,5.4,12,12s-5.4,12-12,12s-12-5.4-12-12C1710.2,766.6,1715.6,761.3,1722.2,761.3z"/>
	<circle class="st16" cx="1788.6" cy="789.3" r="12"/>
	<path class="st16" d="M1771.7,714.4c6.4,0,11.6,5.2,11.6,11.6c0,6.4-5.2,11.6-11.6,11.6s-11.6-5.2-11.6-11.6
		C1760.1,719.6,1765.3,714.4,1771.7,714.4z"/>
	<circle class="st16" cx="1700.1" cy="714.8" r="11.6"/>
	<path class="st16" d="M1656.6,749.3c6.6,0,12,5.4,12,12s-5.4,12-12,12s-12-5.4-12-12C1644.7,754.6,1650,749.3,1656.6,749.3z"/>
	<path class="st16" d="M1621.4,703.6c6.3,0,11.5,5.1,11.5,11.5c0,6.3-5.1,11.5-11.5,11.5s-11.5-5.1-11.5-11.5
		C1609.9,708.8,1615.1,703.6,1621.4,703.6z"/>
</g>
</svg>
