<?xml version="1.0" encoding="utf-8"?>
<!-- Generator: Adobe Illustrator 24.1.0, SVG Export Plug-In . SVG Version: 6.00 Build 0)  -->
<svg version="1.1" id="Layer_1" xmlns="http://www.w3.org/2000/svg" xmlns:xlink="http://www.w3.org/1999/xlink" x="0px" y="0px"
	 viewBox="0 0 79.2 21" style="enable-background:new 0 0 79.2 21;" xml:space="preserve">
<style type="text/css">
	.st0{fill:#FFFFFF;}
	.st1{fill:#FEF033;}
	.st2{fill:none;stroke:#000000;stroke-width:2;stroke-linecap:round;stroke-linejoin:round;stroke-miterlimit:10;}
	.st3{fill:none;stroke:#FFFFFF;stroke-width:3;stroke-miterlimit:10;}
	.st4{fill:none;stroke:#000000;stroke-width:2;stroke-miterlimit:10;}
	.st5{fill:none;stroke:#000000;stroke-width:2;stroke-linejoin:bevel;stroke-miterlimit:10;}
	.st6{fill:#8339EC;}
</style>
<path class="st6" d="M30.7,15.8c3.2,0,4.8-2.2,6-3.8c1.1-1.5,1.7-2.2,2.8-2.2c1.1,0,1.6,0.6,2.8,2.2c1.2,1.6,2.8,3.8,6,3.8
	c3.2,0,4.8-2.2,6-3.8c1.1-1.5,1.7-2.2,2.8-2.2c1.1,0,1.6,0.6,2.8,2.2c1.2,1.6,2.8,3.8,6,3.8c3.2,0,4.8-2.2,6-3.8
	c1.1-1.5,1.7-2.2,2.8-2.2v-4c-3.2,0-4.8,2.2-6,3.8c-1.1,1.5-1.7,2.2-2.8,2.2s-1.6-0.6-2.8-2.2c-1.2-1.6-2.8-3.8-6-3.8
	c-3.2,0-4.8,2.2-6,3.8c-1.1,1.5-1.7,2.2-2.8,2.2c-1.1,0-1.6-0.6-2.8-2.2c-1.2-1.6-2.8-3.8-6-3.8c-3.2,0-4.8,2.2-6,3.8
	c-1.1,1.5-1.7,2.2-2.8,2.2c-1.1,0-1.6-0.6-2.8-2.2c-1.2-1.6-2.8-3.8-6-3.8c-3.2,0-4.8,2.2-6,3.8c-1.1,1.5-1.7,2.2-2.8,2.2
	c-1.1,0-1.6-0.6-2.8-2.2C9.3,8,7.7,5.8,4.5,5.8v4c1.1,0,1.6,0.6,2.8,2.2c1.2,1.6,2.8,3.8,6,3.8c3.2,0,4.8-2.2,6-3.8
	c1.1-1.5,1.7-2.2,2.8-2.2c1.1,0,1.6,0.6,2.8,2.2C25.9,13.6,27.5,15.8,30.7,15.8z"/>
</svg>
